<svg width="615" height="648" viewBox="0 0 615 648" fill="none" xmlns="http://www.w3.org/2000/svg">
<path d="M179.994 177.724C179.621 176.266 178.254 174.443 176.918 173.654L168.808 168.946C167.472 168.186 165.142 167.366 163.62 167.123L154.298 165.665C152.776 165.422 151.036 164.086 150.414 162.719L149.296 160.228C148.674 158.861 146.966 157.343 145.505 156.857L140.751 155.308C139.291 154.822 137.209 153.576 136.122 152.483L132.393 148.808C131.306 147.745 129.162 146.864 127.608 146.864H100.608C99.0541 146.864 97.3763 145.709 96.817 144.282L95.4189 140.607C94.8906 139.209 93.2439 137.63 91.7836 137.144L86.0354 135.2C84.5751 134.714 83.1148 133.104 82.773 131.616L82.5865 130.857C82.2448 129.399 80.8466 127.607 79.4795 126.878L71.9603 122.899C70.5932 122.17 70.0339 120.499 70.6864 119.132L73.0788 114.242C73.7313 112.875 75.5024 111.478 77.0249 111.144L90.2611 108.167C91.7525 107.833 93.7721 108.532 94.7353 109.716L96.5374 111.964C97.5006 113.148 99.4891 113.817 100.981 113.452L103.218 112.905C104.709 112.541 106.169 111.022 106.449 109.534L106.853 107.408C107.133 105.919 108.407 104.036 109.68 103.186L128.54 90.7628C129.814 89.9123 130.56 88.0291 130.156 86.5712L128.199 79.2207C127.826 77.7627 128.758 76.5781 130.312 76.6085L158.741 77.0034C160.295 77.0337 161.445 75.8188 161.32 74.3001L160.326 61.4822C160.202 59.9939 158.897 58.4448 157.405 58.05L155.634 57.5943C154.143 57.1995 152.776 55.6504 152.62 54.1621L152.279 51.1854C152.123 49.6971 150.694 48.5125 149.172 48.6036L135.096 49.2719C133.543 49.3326 131.772 50.5172 131.088 51.884L129.628 54.8911C128.975 56.2579 127.204 57.1387 125.682 56.8654L115.832 55.0733C114.31 54.7999 113.191 53.342 113.347 51.8537L113.751 47.9354C113.906 46.4471 115.211 44.7765 116.671 44.2601L124.377 41.4657C125.837 40.9494 127.546 39.4003 128.23 38.0638L134.879 24.6993C135.562 23.3324 134.848 22.239 133.294 22.239H98.7124C97.1588 22.239 94.9839 23.0894 93.8653 24.1221L89.795 27.8582C88.6765 28.8909 86.5015 29.6199 84.979 29.468L11.9002 22.5123C10.3777 22.3604 9.29021 23.4539 9.47664 24.9726L11.1234 36.8792C11.3409 38.3676 10.2223 39.5825 8.69986 39.5825H2.79638C1.24284 39.5825 0 40.8279 0 42.3162V50.4261C0 51.9448 1.05641 53.828 2.36139 54.6177L6.74239 57.321C8.04737 58.1411 10.3777 58.7789 11.9002 58.7789H14.9141C16.4676 58.7789 17.7726 57.5336 17.8658 56.0453L18.0211 53.0686C18.1144 51.5499 19.4504 50.4261 20.9729 50.5172L37.9065 51.5803C39.4601 51.6714 41.4797 52.7345 42.4118 53.9191L47.1346 59.9028C48.0667 61.0874 48.6571 63.3047 48.4396 64.793L47.321 72.508C47.1035 73.9963 45.6743 75.4543 44.1829 75.7277L39.6154 76.5781C38.093 76.8515 36.8501 78.3094 36.8191 79.8282L36.4151 108.562C36.3841 110.081 37.2851 112.146 38.4037 113.209L47.7871 122.048C48.9057 123.081 49.5892 125.177 49.3407 126.665L48.8124 129.702C48.5639 131.191 49.5581 132.74 51.0496 133.135L70.096 138.237C71.5874 138.632 73.1721 140.151 73.6071 141.579L74.4149 144.221C74.8499 145.679 76.4656 146.833 78.0191 146.833H81.033C82.5865 146.833 84.0469 148.048 84.3265 149.537L84.7926 152.179C85.0722 153.667 86.5326 154.882 88.0861 154.882H93.0264C94.5799 154.882 96.0403 156.097 96.3199 157.586L97.2831 162.962C97.5628 164.45 96.5063 165.665 94.9528 165.665H94.3314C92.7778 165.665 91.3796 166.88 91.2243 168.399L89.9504 179.364C89.7639 180.852 90.6029 182.857 91.7836 183.829L100.887 191.119C102.068 192.06 103.062 194.095 103.062 195.584V206.518C103.062 208.037 104.057 210.011 105.268 210.923L111.389 215.539C112.601 216.451 113.689 218.455 113.813 219.944L116.765 261.343C116.858 262.832 117.976 264.806 119.188 265.717L122.388 268.056C123.631 268.967 124.626 270.942 124.626 272.43V283.365C124.626 284.883 125.775 286.584 127.204 287.161L139.291 292.082C140.72 292.659 142.181 291.93 142.553 290.472L144.542 282.666C144.915 281.208 144.231 279.234 143.02 278.323L140.72 276.561C139.509 275.619 138.607 273.645 138.701 272.126L140.254 249.012C140.347 247.493 141.311 245.397 142.398 244.334L166.292 220.582C167.379 219.518 168.249 217.392 168.249 215.874V203.997C168.249 202.479 169.119 200.352 170.176 199.259L180.243 188.719C181.299 187.626 181.858 185.53 181.516 184.042L179.994 177.724ZM146.189 26.3395C146.934 27.6455 147.214 29.9236 146.81 31.3815L144.728 38.7928C144.325 40.2508 145.226 41.6176 146.748 41.8606L154.019 42.9844C155.541 43.2274 157.716 42.5896 158.835 41.5569L159.518 40.9494C160.637 39.9167 161.569 37.8512 161.569 36.3325V31.8068C161.569 30.2881 160.419 28.5871 158.99 27.9796L153.553 25.6712C152.154 25.0637 151.471 23.4539 152.092 22.0567L152.589 20.9025C153.211 19.5053 154.889 17.9866 156.349 17.4702L172.568 11.9422C174.028 11.4562 176.048 10.1197 177.073 8.9655L178.161 7.75054C179.186 6.6267 179.652 4.50051 179.186 3.07293L178.751 1.64535C178.316 0.187394 176.825 -0.420085 175.458 0.308892L166.758 4.77388C165.391 5.47248 163.029 6.01921 161.476 5.98884L146.251 5.74585C144.697 5.71547 143.082 6.90006 142.678 8.32764L141.155 13.4001C140.72 14.8581 140.969 17.1057 141.715 18.4422L146.189 26.3395ZM224.425 8.69213L199.444 2.37433C197.953 2.00984 195.747 2.46545 194.535 3.40704L182.2 13.0052C180.988 13.9468 178.813 15.1011 177.353 15.5567L169.026 18.1992C167.566 18.6548 166.354 20.2343 166.354 21.7226C166.354 23.2109 167.628 24.3955 169.15 24.3955H173.438C174.992 24.3955 175.924 25.5801 175.551 27.0381L171.978 40.7671C171.605 42.2251 171.729 44.5943 172.257 45.9915L175.302 54.1925C175.83 55.62 177.508 56.7743 179.062 56.7743H181.982C183.536 56.7743 185.431 55.7112 186.239 54.4355L196.275 38.3979C197.083 37.1222 198.947 35.6947 200.408 35.239L224.425 27.8582C225.886 27.4025 227.098 25.7927 227.098 24.3044V12.094C227.129 10.6057 225.917 9.05662 224.425 8.69213ZM248.35 41.1012L250.774 37.426C251.612 36.1503 251.115 34.6619 249.686 34.1152L244.994 32.2928C243.565 31.746 241.763 32.3535 241.017 33.6596L239.308 36.6059C238.563 37.912 239.06 39.5522 240.427 40.2508L244.342 42.1947C245.709 42.8629 247.511 42.377 248.35 41.1012ZM269.944 66.1598C270.814 67.4052 272.244 67.3748 273.114 66.1295L273.952 64.8841C274.791 63.6388 274.605 61.7252 273.517 60.6621L271.529 58.7182C270.441 57.6551 268.888 57.8373 268.08 59.1131L268.049 59.1738C267.241 60.4495 267.303 62.515 268.204 63.7603L269.944 66.1598ZM279.918 73.0547H280.167C281.72 73.0547 283.647 72.022 284.517 70.7463L285.542 69.2276C286.381 67.9519 287.033 65.7042 286.971 64.1855L286.567 54.5873C286.505 53.0686 285.324 52.37 283.926 53.0079L282.497 53.6761C281.099 54.314 279.949 56.0756 279.949 57.5943V60.814C279.949 62.3327 279.328 64.3374 278.551 65.3094C277.774 66.2813 277.153 68.286 277.153 69.8047V70.3211C277.122 71.8094 278.365 73.0547 279.918 73.0547ZM614.614 44.0779L610.047 37.0919C609.208 35.8162 607.281 34.8746 605.728 34.9657L580.343 36.5451C578.789 36.6363 576.677 35.8162 575.62 34.7227L569.592 28.5264C568.536 27.4329 566.423 26.3395 564.901 26.0661L529.573 20.1128C528.051 19.8698 525.565 19.9002 524.073 20.2039L496.265 25.975C494.743 26.2787 492.505 25.7927 491.294 24.8815L477.654 14.8277C476.411 13.9165 474.143 13.1875 472.62 13.1875H419.893C418.339 13.1875 416.04 13.8557 414.735 14.6758L406.253 20.052C404.948 20.8721 403.922 22.7857 403.984 24.274L404.171 32.0194C404.202 33.5381 403.021 34.4493 401.53 34.0848L392.457 31.8675C390.966 31.503 388.946 32.1713 387.983 33.3559L381.582 41.2227C380.619 42.4073 378.568 43.3793 377.046 43.3793H360.236C358.683 43.3793 356.757 42.3466 355.918 41.0709L349.703 31.503C348.865 30.2273 347 28.7997 345.54 28.3138L338.642 26.0053C337.182 25.5194 334.789 25.5194 333.36 26.0357L316.551 31.9283C315.09 32.4446 313.071 33.7811 312.077 34.9049L301.916 46.2345C300.891 47.3583 300.86 49.2415 301.823 50.4261L305.272 54.6177C306.235 55.8023 308.286 56.7439 309.839 56.7439H316.364C317.918 56.7439 319.969 55.8023 320.963 54.6481L328.886 45.4751C329.88 44.3209 331.931 43.6223 333.422 43.9564L334.541 44.1994C336.063 44.5031 337.182 45.9915 337.026 47.5102L336.871 49.12C336.716 50.6083 337.586 52.6434 338.735 53.6153L338.766 53.6457C339.947 54.6177 339.792 56.0149 338.425 56.7439L335.442 58.3233C334.075 59.0523 332.832 60.8444 332.677 62.3631L332.304 65.7042C332.148 67.1926 330.75 68.4986 329.197 68.5594L309.808 69.4706C308.255 69.5314 306.67 68.4075 306.266 66.9799L305.738 65.0967C305.334 63.6388 303.718 62.4542 302.196 62.4542H299.244C297.691 62.4542 295.92 63.578 295.267 64.9449L292.657 70.5641C292.005 71.9309 290.327 73.5104 288.867 74.0267L287.841 74.4216C286.412 74.9683 284.423 76.3655 283.46 77.5197L281.068 80.3749C280.104 81.5291 279.825 83.6249 280.477 84.9917L282.404 89.0315C283.056 90.3983 282.342 91.674 280.819 91.8866L273.859 92.7979C272.337 92.9801 271.374 94.3469 271.715 95.8353L273.393 102.761C273.735 104.219 275.257 105.707 276.78 106.041L284.361 107.712C285.853 108.046 287.095 107.074 287.095 105.585V103.338C287.095 101.819 288.183 99.9661 289.488 99.1764L295.05 95.896C296.355 95.1063 298.685 94.6507 300.207 94.8633L305.862 95.6834C307.385 95.896 309.218 97.1717 309.933 98.5082L312.294 102.973C313.009 104.31 312.822 106.405 311.89 107.59L311.3 108.349C310.368 109.564 310.399 111.508 311.362 112.693L311.828 113.24C312.791 114.424 314.531 114.576 315.712 113.604L320 110.05C321.18 109.078 321.584 107.165 320.901 105.828L317.483 99.1157C316.799 97.7792 317.265 95.9568 318.508 95.0759L319.906 94.104C321.149 93.2231 322.889 93.5268 323.728 94.7722L329.849 103.733C330.719 104.978 332.583 105.585 334.044 105.069L340.631 102.73C342.091 102.214 344.111 102.73 345.105 103.854L353.587 113.27C354.613 114.394 355.141 116.52 354.799 117.978L354.115 120.712C353.743 122.17 352.22 123.628 350.729 123.931L329.197 128.305C327.674 128.609 325.282 128.427 323.821 127.91L315.898 124.994C314.469 124.478 312.511 123.05 311.548 121.866L306.08 114.941C305.148 113.756 303.097 112.845 301.575 112.966L287.406 113.877C285.853 113.969 283.647 114.849 282.435 115.791L254.471 138.116C253.29 139.058 252.141 141.062 251.954 142.581L251.022 149.719C250.836 151.207 249.748 153.273 248.599 154.275L246.796 155.885C245.647 156.917 244.839 158.953 244.932 160.471L245.802 171.619C245.926 173.107 246.983 175.142 248.195 176.084L262.643 187.747C263.823 188.719 266.06 189.478 267.614 189.478H293.31C294.863 189.478 297.069 190.268 298.25 191.271L302.88 195.128C304.06 196.1 305.086 198.135 305.148 199.654L305.521 207.399C305.583 208.918 306.732 210.801 308.037 211.591L315.463 216.117C316.768 216.906 317.763 218.789 317.638 220.308L315.712 247.068C315.619 248.556 316.489 250.561 317.7 251.502L323.2 255.815C324.412 256.757 325.313 258.762 325.251 260.25L324.194 281.512C324.132 283.031 325.313 284.337 326.866 284.458L342.029 285.643C343.551 285.764 345.726 284.974 346.814 283.911L362.629 268.451C363.716 267.388 364.617 265.292 364.617 263.773V247.979C364.617 246.46 365.581 244.456 366.792 243.514L376.611 235.708C377.792 234.766 378.91 232.761 379.034 231.243L380.836 211.895C380.992 210.406 381.924 208.25 382.949 207.095L401.312 186.714C402.338 185.591 403.176 183.434 403.176 181.915V173.866C403.176 172.348 401.903 171.133 400.38 171.163L377.326 171.436C375.772 171.467 374.467 170.221 374.405 168.733L374.001 160.502C373.939 158.983 372.913 156.978 371.733 156.006L366.451 151.663C365.27 150.691 364.214 148.656 364.089 147.167L363.561 141.032C363.437 139.544 364.555 138.025 366.047 137.66L371.795 136.324C373.286 135.99 375.43 136.567 376.549 137.6L384.379 144.98C385.497 146.013 386.336 148.109 386.243 149.628L385.59 160.654C385.497 162.172 386.616 163.782 388.076 164.268L391.649 165.422C393.11 165.908 395.129 165.331 396.123 164.177L408.024 150.326C409.018 149.172 408.831 147.441 407.651 146.499L396.869 138.025C395.657 137.083 395.502 135.352 396.496 134.198L399.821 130.34C400.815 129.186 402.835 128.518 404.357 128.882L407.154 129.55C408.645 129.915 410.478 131.282 411.224 132.588L414.145 137.782C414.89 139.118 416.755 140.212 418.308 140.242L427.194 140.455C428.748 140.485 429.991 141.761 429.991 143.249V150.023C429.991 151.541 431.234 152.878 432.787 153.03L440.71 153.789C442.233 153.941 443.258 155.277 442.978 156.735L441.052 166.819C440.772 168.308 441.332 170.464 442.326 171.619L453.605 185.105C454.568 186.259 456.65 187.231 458.172 187.231H460.161C461.714 187.231 463.454 186.107 464.076 184.71L478.679 151.238C479.269 149.84 481.04 148.717 482.594 148.717H484.241C485.794 148.717 487.907 149.628 488.963 150.721L497.632 159.742C498.689 160.836 499.559 162.962 499.559 164.481V174.747C499.559 176.266 500.335 178.453 501.267 179.668L506.425 186.228C507.357 187.413 509.035 187.535 510.123 186.471L511.707 184.953C512.795 183.89 512.764 182.219 511.583 181.247L509.253 179.273C508.072 178.301 507.233 176.266 507.388 174.747L507.513 173.471C507.668 171.983 509.035 170.738 510.589 170.738H510.931C512.484 170.738 514.193 171.892 514.721 173.289L515.343 174.899C515.902 176.296 517.424 176.812 518.729 176.023L525.161 172.165C526.466 171.376 527.553 169.492 527.553 168.004V159.59C527.553 158.072 526.466 156.219 525.13 155.46L521.712 153.485C520.376 152.726 519.506 150.873 519.755 149.385L520.842 142.702C521.091 141.214 522.551 140.151 524.073 140.303L531.686 141.153C533.208 141.336 535.01 140.364 535.632 138.966L540.852 127.91C541.504 126.543 541.225 124.478 540.261 123.293L534.234 115.973C533.271 114.789 532.68 112.632 532.96 111.144L534.327 103.368C534.576 101.88 536.067 100.665 537.589 100.665H542.871C544.425 100.665 545.606 99.4194 545.544 97.9311L543.835 65.2182C543.741 63.6995 544.705 61.7252 545.916 60.814L551.696 56.4705C552.907 55.5593 555.176 54.8911 556.698 55.0126L571.861 56.1971C573.383 56.3186 574.75 57.6551 574.843 59.1434L575.807 73.2977C575.9 74.8164 577.143 76.5478 578.541 77.1552L581.027 78.2487C582.425 78.8866 584.071 78.2487 584.662 76.8515L593.051 57.321C593.641 55.9238 595.226 54.1621 596.562 53.4027L606.225 47.8139C607.561 47.0546 609.891 46.4167 611.445 46.4167H613.434C614.863 46.3863 615.453 45.3536 614.614 44.0779ZM556.356 112.359C555.797 113.756 555.735 116.064 556.232 117.492L557.879 122.2C558.376 123.628 560.054 124.903 561.576 125.025L563.409 125.177C564.932 125.298 566.889 124.387 567.759 123.111L571.084 118.251C571.954 117.006 572.637 114.728 572.637 113.24V96.6554C572.637 95.1367 571.798 92.9801 570.804 91.8563L568.07 88.8189C567.045 87.695 565.025 87.1483 563.565 87.6647L561.452 88.3936C559.992 88.8796 559.308 90.4287 559.96 91.7955L561.359 94.8329C561.98 96.1998 562.042 98.4778 561.483 99.875L556.356 112.359ZM398.702 232.276L397.988 231.82C396.683 231 394.849 231.334 393.886 232.519L382.514 246.764C381.551 247.949 381.271 250.044 381.893 251.442L383.664 255.542C384.254 256.939 385.994 258.276 387.517 258.549L388.418 258.701C389.94 258.974 392.208 258.488 393.482 257.638L398.796 253.993C400.069 253.112 401.095 251.199 401.095 249.68V236.467C401.064 234.979 400.007 233.096 398.702 232.276ZM511.148 209.586H518.388C519.941 209.586 521.184 208.341 521.184 206.852V203.754C521.184 202.236 519.91 200.99 518.388 200.99L513.603 200.929C512.049 200.899 510.527 199.684 510.185 198.226L509.439 194.946C509.097 193.488 507.699 191.757 506.301 191.119L498.533 187.535C497.135 186.897 495.333 187.413 494.494 188.689L494.028 189.418C493.22 190.693 492.878 192.911 493.313 194.369L495.24 200.96C495.675 202.418 497.135 204.149 498.502 204.817L505.835 208.402C507.233 209.039 509.626 209.586 511.148 209.586ZM550.142 201.112L547.905 196.616C547.221 195.25 545.575 194.733 544.208 195.432L536.067 199.623C534.7 200.322 534.296 201.932 535.166 203.177L536.719 205.425C537.589 206.67 539.516 208.037 540.976 208.462L552.659 211.773C554.15 212.198 556.356 211.895 557.568 211.074C558.78 210.285 558.78 208.887 557.537 208.007L553.653 205.243C552.379 204.301 550.794 202.479 550.142 201.112ZM557.288 264.533L561.234 258.306C562.042 257.03 562.819 254.752 562.912 253.234L563.969 239.383C564.093 237.895 563.565 235.556 562.819 234.25L554.15 218.759C553.404 217.423 551.571 216.633 550.08 216.997L549.365 217.18C547.874 217.544 546.631 219.063 546.631 220.551V220.885C546.631 222.404 545.699 223.619 544.518 223.619C543.338 223.619 541.566 222.708 540.541 221.584L540.075 221.067C539.05 219.944 536.968 219.245 535.445 219.488L526.373 220.976C524.85 221.219 522.955 222.495 522.178 223.801L519.599 228.023C518.823 229.329 516.989 230.848 515.591 231.425L505.431 235.586C504.002 236.163 502.852 237.864 502.852 239.383V261.465C502.852 262.984 503.971 264.806 505.307 265.535H505.338C506.705 266.264 508.973 266.446 510.433 265.96L515.032 264.381C516.492 263.895 518.046 262.285 518.512 260.857L518.574 260.706C519.04 259.278 520.656 257.85 522.178 257.547L527.553 256.514C529.076 256.21 531.064 256.97 531.997 258.185L537.03 264.685C537.962 265.9 539.982 266.872 541.535 266.872H553.001C554.554 266.841 556.481 265.808 557.288 264.533ZM572.637 270.82L571.861 270.213C570.649 269.271 568.847 269.453 567.852 270.608L566.05 272.703C565.056 273.858 563.068 275.224 561.607 275.71L557.257 277.229C555.797 277.745 554.958 279.325 555.393 280.783L555.797 282.15C556.232 283.608 557.817 284.549 559.339 284.246L563.471 283.456C564.994 283.152 566.672 282.119 567.2 281.147C567.759 280.175 569.344 279.082 570.773 278.748C572.202 278.414 573.694 276.956 574.067 275.498L574.16 275.103C574.533 273.706 573.849 271.762 572.637 270.82ZM584.103 255.967C583.357 255.967 581.959 255.694 581.027 255.36C580.063 255.026 578.634 255.815 577.857 257.091L576.304 259.643C575.496 260.949 575.713 262.923 576.739 264.016L577.422 264.776C578.448 265.9 580.25 265.991 581.399 265.019L586.091 261.009C587.241 260.007 587.583 258.458 586.837 257.577C586.091 256.727 584.848 255.967 584.103 255.967Z" fill="#DADADA"/>
<path d="M458.551 40.1618L455.524 33.3445C455.138 32.4452 454.07 32.039 453.15 32.4162L446.176 35.3752C445.731 35.5492 445.227 35.5782 444.782 35.4042L437.719 32.6773C436.799 32.3291 435.731 32.7643 435.375 33.6636L432.585 40.568C432.407 41.0031 432.051 41.3512 431.635 41.5253L424.662 44.4843C423.742 44.8614 423.326 45.9058 423.712 46.8051L426.739 53.6224C426.917 54.0576 426.947 54.5507 426.769 54.9859L423.979 61.8902C423.623 62.7895 424.068 63.8339 424.988 64.182L432.051 66.909C432.496 67.083 432.852 67.4311 433.03 67.8373L436.057 74.6546C436.443 75.5539 437.511 75.9601 438.431 75.5829L445.405 72.6239C445.85 72.4498 446.355 72.4208 446.8 72.5949L453.862 75.3218C454.782 75.6699 455.851 75.2348 456.207 74.3355L458.996 67.4311C459.174 66.996 459.53 66.6479 459.946 66.4738L466.92 63.5148C467.84 63.1377 468.255 62.0933 467.869 61.194L464.842 54.3767C464.664 53.9415 464.635 53.4484 464.813 53.0132L467.602 46.1088C467.958 45.2095 467.513 44.1652 466.593 43.8171L459.53 41.0901C459.115 40.9161 458.759 40.597 458.551 40.1618Z" fill="#F4B503"/>
<path d="M447.212 64.1353C452.948 63.3995 456.988 58.2571 456.236 52.6495C455.483 47.0419 450.223 43.0926 444.486 43.8284C438.75 44.5642 434.71 49.7065 435.463 55.3141C436.216 60.9217 441.476 64.8711 447.212 64.1353Z" fill="#F9CD15"/>
<path d="M524.015 106.537C522.146 98.4718 514.786 92.4377 505.943 92.4087C501.046 92.3797 496.595 94.2073 493.242 97.2244C488.642 89.6818 480.244 84.6341 470.629 84.6051C460.391 84.547 451.488 90.204 447.067 98.5008C444.93 97.2244 442.407 96.4701 439.707 96.4411C433.327 96.4121 427.926 100.473 426.086 106.13L524.015 106.537Z" fill="white"/>
<path d="M189.937 539.604C189.937 539.604 249.116 466.322 284.293 466.561C319.491 466.8 357.829 514.824 407.893 555.851C464.013 601.822 390.742 603.755 386.501 604.134C382.28 604.513 236.35 599.469 233.923 596.997C231.497 594.525 192.526 562.729 192.526 562.729L189.937 539.604Z" fill="#C5DDF9"/>
<path d="M493.533 541.814H496.042V514.722H493.533V541.814Z" fill="#355389"/>
<path d="M494.806 462.155L502.963 526.626H486.649L494.806 462.155Z" fill="#3C8F7C"/>
<path d="M500.005 503.241L488.361 513.009L488.809 509.461L499.638 500.39L500.005 503.241Z" fill="#50BFA5"/>
<path d="M498.21 489.107L491.093 491.5L491.42 488.848L497.904 486.675L498.21 489.107Z" fill="#50BFA5"/>
<path d="M153.006 494.092L160.306 551.665H145.726L153.006 494.092Z" fill="#3C8F7C"/>
<path d="M165.852 502.564L171.399 546.402H160.306L165.852 502.564Z" fill="#3C8F7C"/>
<path d="M176.946 515.601L182.493 559.458H171.399L176.946 515.601Z" fill="#3C8F7C"/>
<path d="M139.384 506.95L146.664 564.523H132.083L139.384 506.95Z" fill="#3C8F7C"/>
<path d="M166.934 524.852C230.151 535.138 324.997 627.538 397.228 627.538C469.458 627.538 485.018 605.43 512.12 610.115C539.201 614.779 575.581 627.538 575.581 627.538L38.7461 629.093C38.7461 629.093 103.717 514.585 166.934 524.852Z" fill="#86B1F2"/>
<path d="M395.739 497.94L403.039 555.493H388.458L395.739 497.94Z" fill="#3C8F7C"/>
<path d="M413.092 514.883L418.639 558.721H407.545L413.092 514.883Z" fill="#3C8F7C"/>
<path d="M369.371 538.288L374.918 582.125H363.824L369.371 538.288Z" fill="#3C8F7C"/>
<path d="M382.117 510.777L389.397 568.35H374.816L382.117 510.777Z" fill="#3C8F7C"/>
<path d="M453.45 524.852C390.232 535.138 295.387 627.538 223.156 627.538C150.905 627.538 135.366 605.43 108.264 610.115C81.1826 614.779 44.8022 627.538 44.8022 627.538L581.637 629.093C581.637 629.093 516.646 514.585 453.45 524.852Z" fill="#86B1F2"/>
<path d="M431.8 611.123H434.655V580.204H431.8V611.123Z" fill="#355389"/>
<path d="M433.24 520.246L442.539 593.807H423.921L433.24 520.246Z" fill="#3C8F7C"/>
<path d="M439.175 567.134L425.899 578.258L426.409 574.231L438.746 563.865L439.175 567.134Z" fill="#50BFA5"/>
<path d="M437.135 551.006L428.999 553.717L429.386 550.707L436.768 548.235L437.135 551.006Z" fill="#50BFA5"/>
<path d="M464.05 624.305H466.763V577.676H464.05V624.305Z" fill="#355389"/>
<path d="M464.687 494.55L478.105 588.664H451.289L464.687 494.55Z" fill="#3C8F7C"/>
<path d="M477.248 582.684L453.185 575.268L453.552 572.716L476.86 579.913L477.248 582.684Z" fill="#50BFA5"/>
<path d="M473.027 552.96L457.08 548.036L457.426 545.485L472.619 550.169L473.027 552.96Z" fill="#50BFA5"/>
<path d="M38.7461 629.093C38.7461 629.093 108.061 570.245 197.421 566.636C227.418 565.42 350.304 589.761 453.776 608.879C458.12 609.676 467.521 617.551 471.926 618.368C520.909 627.379 566.568 629.273 581.332 629.851L38.7461 629.093Z" fill="#96D9C9"/>
<path d="M595.872 564.364L595.974 559.3C595.974 555.532 593.037 552.502 589.428 552.502C580.312 552.502 572.91 560.177 572.91 569.646V576.564C572.91 579.594 571.258 582.226 568.852 583.561C566.649 584.757 565.324 587.17 565.324 589.741V593.389C565.324 597.337 567.118 601.025 570.075 603.496C571.809 604.952 572.93 607.165 572.93 609.656V614.82C572.93 620.541 577.396 625.166 582.902 625.166H586.043C591.549 625.166 596.015 620.541 596.015 614.82C595.117 607.603 597.299 603.437 599.828 601.044C603.539 597.536 605.721 592.612 605.721 587.409V586.671C605.721 581.169 603.274 576.026 599.196 572.517C597.34 571.002 595.872 568.49 595.872 564.364Z" fill="#4E9B87"/>
<path d="M606.13 631.166C606.13 631.166 580.68 598.133 564.671 593.07C548.663 588.006 563.754 608.121 563.754 608.121C563.754 608.121 535.347 577.76 524.926 580.491C515.382 583.003 524.926 601.821 524.926 601.821C524.926 601.821 514.159 591.395 501.108 591.395C488.056 591.395 511.202 630.408 511.202 630.408L606.13 631.166Z" fill="#96D9C9"/>
<path d="M524.926 630.428C524.926 630.428 507.531 584.956 485.996 590.219C468.54 594.485 480.959 617.351 479.879 616.314C478.818 615.278 469.458 599.748 454.306 599.748C439.155 599.748 458.956 620.7 458.956 620.7C458.956 620.7 426.695 610.852 424.166 621.198C422.066 629.791 433.791 630.428 433.791 630.428H524.926Z" fill="#3C8F7C"/>
<path d="M127.331 621.936C127.433 621.378 127.474 620.78 127.474 620.202C127.474 613.623 121.172 608.281 113.382 608.281C105.592 608.281 99.291 613.623 99.291 620.202C99.291 620.8 99.3318 621.378 99.4338 621.936H127.331Z" fill="#3C8F7C"/>
<path d="M143.279 619.006C143.381 618.209 143.421 617.391 143.421 616.554C143.421 607.284 137.12 599.749 129.33 599.749C121.54 599.749 115.239 607.264 115.239 616.554C115.239 617.391 115.28 618.209 115.382 619.006H143.279Z" fill="#50BFA5"/>
<path d="M138.12 629.313C138.018 628.754 137.977 628.156 137.977 627.578C137.977 621 144.278 615.657 152.068 615.657C159.858 615.657 166.16 621 166.16 627.578C166.16 628.176 166.119 628.754 166.017 629.313H138.12Z" fill="#50BFA5"/>
<path d="M115.586 629.313C115.464 628.515 115.403 627.698 115.403 626.861C115.403 617.591 123.397 610.055 133.267 610.055C143.137 610.055 151.131 617.571 151.131 626.861C151.131 627.698 151.069 628.515 150.947 629.313H115.586Z" fill="#3C8F7C"/>
<path d="M129.289 610.055C124.354 610.055 119.95 612.448 117.054 616.176C115.565 615.837 113.995 615.637 112.364 615.637C103.615 615.637 96.5186 620.98 96.5186 627.559C96.5186 628.157 96.5797 628.735 96.6817 629.293H144.971C145.073 628.495 145.135 627.678 145.135 626.841C145.135 617.591 138.038 610.055 129.289 610.055Z" fill="#50BFA5"/>
<path d="M68.2113 593.927C64.0716 587.588 63.2967 579.952 63.3782 574.65C63.4598 568.888 64.561 564.582 64.561 564.543L64.2551 564.443C64.2347 564.483 63.1539 568.829 63.052 574.63C62.9704 579.992 63.7453 587.707 67.9462 594.126L68.2113 593.927Z" fill="#3C8F7C"/>
<path d="M65.58 563.466C65.478 564.761 64.8866 565.858 64.0301 566.536C63.296 565.639 62.8881 564.383 62.9901 563.087C63.0921 561.791 63.6834 560.695 64.5399 560.017C65.2741 560.934 65.6819 562.17 65.58 563.466Z" fill="#3C8F7C"/>
<path d="M62.7656 566.476C63.4794 567.613 63.6833 568.889 63.459 570.005C62.3782 569.746 61.3382 569.008 60.6448 567.892C59.9311 566.756 59.7271 565.48 59.9515 564.363C61.0323 564.622 62.0723 565.36 62.7656 566.476Z" fill="#3C8F7C"/>
<path d="M61.1955 570.025C62.2967 570.722 63.0308 571.799 63.3163 572.915C62.2763 573.194 61.0527 573.035 59.9719 572.337C58.8707 571.639 58.1366 570.563 57.8511 569.447C58.8707 569.148 60.0943 569.327 61.1955 570.025Z" fill="#3C8F7C"/>
<path d="M61.6855 574.948C62.542 575.506 63.0926 576.443 63.2353 577.48C62.3381 577.859 61.3184 577.819 60.4619 577.261C59.6055 576.703 59.0549 575.766 58.9121 574.729C59.789 574.35 60.8086 574.39 61.6855 574.948Z" fill="#3C8F7C"/>
<path d="M65.2545 569.108C66.2334 568.61 67.3142 568.57 68.2522 568.929C68.0075 569.906 67.355 570.803 66.3761 571.301C65.3973 571.8 64.3165 571.839 63.3784 571.481C63.6231 570.504 64.2757 569.607 65.2545 569.108Z" fill="#3C8F7C"/>
<path d="M65.1525 572.517C66.1313 572.019 67.2121 571.979 68.1502 572.338C67.9055 573.314 67.2529 574.212 66.2741 574.71C65.2952 575.208 64.2144 575.248 63.2764 574.889C63.5211 573.893 64.1736 573.015 65.1525 572.517Z" fill="#3C8F7C"/>
<path d="M62.297 580.351C62.8068 580.471 63.235 580.809 63.5001 581.248C63.1331 581.546 62.6436 581.666 62.1338 581.566C61.624 581.447 61.1958 581.108 60.9307 580.67C61.2977 580.371 61.7871 580.232 62.297 580.351Z" fill="#3C8F7C"/>
<path d="M66.4985 598.392C57.0159 596.179 49.7765 589.302 45.3717 583.939C40.5999 578.118 38.0304 572.736 38.01 572.696L37.6226 572.895C37.643 572.955 40.2328 578.357 45.0251 584.218C49.4707 589.641 56.7916 596.578 66.3965 598.811L66.4985 598.392Z" fill="#3C8F7C"/>
<path d="M38.1322 570.643C39.1315 572.039 39.4577 573.713 39.1926 575.228C37.704 575.049 36.2561 574.212 35.2365 572.796C34.2168 571.381 33.9109 569.726 34.176 568.211C35.6851 568.411 37.133 569.228 38.1322 570.643Z" fill="#3C8F7C"/>
<path d="M37.887 576.404C39.5388 576.843 40.844 577.899 41.5577 579.235C40.273 580.052 38.6008 580.351 36.949 579.913C35.2972 579.474 33.9921 578.418 33.2783 577.082C34.5631 576.265 36.2352 575.985 37.887 576.404Z" fill="#3C8F7C"/>
<path d="M39.2947 581.508C40.9669 581.129 42.6187 581.468 43.8627 582.306C43.0674 583.621 41.7011 584.658 40.0289 585.037C38.3567 585.416 36.7049 585.077 35.4609 584.239C36.2562 582.924 37.6022 581.887 39.2947 581.508Z" fill="#3C8F7C"/>
<path d="M43.0672 586.133C44.7394 585.754 46.3912 586.093 47.6352 586.93C46.8398 588.246 45.4735 589.282 43.8013 589.661C42.1292 590.04 40.4773 589.701 39.2334 588.864C40.0287 587.548 41.395 586.531 43.0672 586.133Z" fill="#3C8F7C"/>
<path d="M41.9457 578.438C41.8642 576.863 42.3944 575.368 43.2916 574.311C44.2909 575.148 44.9842 576.484 45.0658 578.079C45.1474 579.654 44.6172 581.149 43.7199 582.205C42.7003 581.348 42.0273 580.013 41.9457 578.438Z" fill="#3C8F7C"/>
<path d="M45.8806 583.222C45.7786 581.647 46.2884 580.152 47.1653 579.075C48.1849 579.893 48.8987 581.228 49.0006 582.803C49.1026 584.378 48.5928 585.873 47.7159 586.95C46.6963 586.133 45.9825 584.797 45.8806 583.222Z" fill="#3C8F7C"/>
<path d="M49.1442 590.718C49.7559 590.319 50.4697 590.239 51.1019 590.439C50.9999 591.097 50.6124 591.715 50.0007 592.113C49.3889 592.512 48.6751 592.592 48.043 592.392C48.1449 591.715 48.5324 591.097 49.1442 590.718Z" fill="#3C8F7C"/>
<path d="M91.6218 611.51L92.0297 611.49C91.4383 600.884 95.4149 590.897 98.8612 584.378C102.593 577.321 106.529 572.716 106.57 572.656L106.264 572.357C106.223 572.397 102.267 577.042 98.4941 584.139C95.0478 590.698 91.0305 600.785 91.6218 611.51Z" fill="#3C8F7C"/>
<path d="M108.384 572.038C107.446 573.573 106.1 574.53 104.734 574.809C104.509 573.194 104.836 571.4 105.774 569.845C106.712 568.31 108.058 567.353 109.424 567.074C109.648 568.689 109.322 570.503 108.384 572.038Z" fill="#3C8F7C"/>
<path d="M103.367 573.891C103.429 575.745 102.858 577.479 101.92 578.715C100.88 577.679 100.186 576.084 100.125 574.21C100.064 572.356 100.635 570.621 101.573 569.385C102.613 570.422 103.306 572.017 103.367 573.891Z" fill="#3C8F7C"/>
<path d="M99.3712 577.201C100.146 578.796 100.289 580.61 99.881 582.205C98.5555 581.866 97.3115 580.849 96.5366 579.254C95.7617 577.66 95.6189 575.846 96.0268 574.251C97.3523 574.59 98.5963 575.626 99.3712 577.201Z" fill="#3C8F7C"/>
<path d="M96.618 585.354C96.9851 585.992 97.1075 586.75 96.9851 587.428C96.4141 587.328 95.8635 586.949 95.4964 586.311C95.1294 585.673 95.007 584.916 95.1294 584.238C95.7004 584.338 96.251 584.716 96.618 585.354Z" fill="#3C8F7C"/>
<path d="M95.434 588.285C95.801 588.923 95.9234 589.681 95.801 590.358C95.23 590.259 94.6794 589.88 94.3124 589.242C93.9453 588.604 93.8229 587.846 93.9453 587.169C94.5163 587.268 95.0669 587.647 95.434 588.285Z" fill="#3C8F7C"/>
<path d="M104.448 578.797C105.855 578.817 107.079 579.514 107.874 580.591C106.977 581.648 105.692 582.305 104.305 582.285C102.898 582.266 101.675 581.568 100.879 580.491C101.756 579.435 103.041 578.777 104.448 578.797Z" fill="#3C8F7C"/>
<path d="M102.164 582.922C103.571 582.942 104.795 583.64 105.59 584.716C104.693 585.773 103.408 586.431 102.022 586.411C100.615 586.391 99.391 585.693 98.5957 584.617C99.493 583.56 100.778 582.902 102.164 582.922Z" fill="#3C8F7C"/>
<path d="M98.4127 588.564C99.3303 588.584 100.126 589.023 100.635 589.721C100.044 590.399 99.208 590.837 98.3107 590.817C97.393 590.797 96.5977 590.359 96.0879 589.661C96.6589 588.983 97.495 588.564 98.4127 588.564Z" fill="#3C8F7C"/>
<path d="M56.2415 628.915C56.2415 627.14 67.1515 629.234 68.0692 626.821C68.9869 624.409 58.7294 624.27 58.7294 621.02C58.7294 617.771 63.9499 620.043 67.0292 620.043C70.0881 620.043 60.9726 618.648 60.9726 617.492C60.9726 616.335 64.1742 616.953 64.1742 615.717C64.1742 614.501 47.3707 613.564 49.3488 610.574C51.3065 607.584 60.3404 611.451 62.8283 609.896C65.3162 608.341 49.5935 606.647 49.1857 604.354C48.7982 602.042 60.7687 606.328 62.4612 604.673C64.1538 603.019 43.5165 597.058 44.3934 592.672C45.2499 588.287 60.0345 598.274 63.7256 597.198C67.4166 596.121 45.1071 580.751 50.2869 574.771C55.4666 568.79 65.3774 594.586 68.7626 593.669C72.1477 592.752 64.5209 577.362 67.9876 574.691C71.434 572.019 81.3448 596.36 81.977 601.344C82.6091 606.348 83.8531 590.599 89.2775 588.745C94.702 586.911 89.4407 598.493 90.3787 602.042C91.3168 605.57 95.7216 592.971 101.656 593.908C107.59 594.825 90.9293 606.348 92.5811 609.737C94.2329 613.126 107.101 598.454 111.118 602.401C115.156 606.348 95.6196 617.272 96.7004 620.263C97.7608 623.253 109.487 618.13 112.851 621.419C116.216 624.708 100.269 626.801 98.1483 626.801C96.0275 626.801 87.952 629.393 95.8439 628.895C103.695 628.396 56.2415 630.669 56.2415 628.915Z" fill="#3C8F7C"/>
<path d="M87.3408 630.947C87.3408 630.947 100.474 631.645 104.307 629.273C108.141 626.92 105.123 625.086 105.123 625.086C105.123 625.086 117.277 624.827 117.236 622.016C117.216 619.205 114.259 619.365 114.259 619.365C114.259 619.365 120.397 615.298 119.255 612.746C117.501 608.839 107.509 615.637 107.509 615.637C107.509 615.637 110.792 611.829 108.141 610.952C100.861 608.52 87.3408 630.947 87.3408 630.947Z" fill="#50BFA5"/>
<path d="M119.253 612.745C120.395 615.277 114.257 619.364 114.257 619.364C114.257 619.364 118.682 619.304 117.969 622.035C117.255 624.766 106.12 625.683 106.12 625.683C106.12 625.683 110.015 626.421 106.182 628.773C102.348 631.126 87.3389 630.926 87.3389 630.926L119.253 612.745Z" fill="#96D9C9"/>
<path d="M33.5465 518.852C33.5669 518.155 34.5458 517.616 35.076 518.234C35.5858 518.852 35.5654 518.434 36.0752 519.769C37.5231 523.577 39.6643 527.265 42.1318 530.495C46.8833 536.674 51.594 539.784 56.9368 542.874C54.7344 538.03 53.2662 532.847 53.0826 527.624C53.0215 525.73 53.0418 523.756 53.8779 522.002C54.1023 521.524 54.9995 521.623 55.1015 522.162C55.5501 524.853 54.8976 526.886 55.7745 531.711C57.8953 543.213 66.3174 555.414 74.4541 563.966C72.9042 549.493 72.1497 533.066 74.9231 518.474C75.3717 516.081 76.1059 513.809 76.7788 511.456C76.942 510.898 77.7373 511.137 77.6353 511.696C77.4926 512.473 76.1671 522.52 76.0855 523.198C74.8008 534.302 75.0455 546.622 76.0651 557.846C82.3664 549.493 86.5877 539.744 88.5658 529.558C89.1571 526.547 89.2999 523.437 90.1156 520.487C90.2379 520.088 90.9109 520.029 90.9925 520.487C91.8286 524.913 90.1564 532.747 88.9328 537.013C86.4449 545.645 82.4684 553.38 77.0439 560.278C76.84 560.537 85.772 628.057 85.5273 628.915C85.1194 630.35 82.5499 631.367 82.1625 628.815C81.9993 627.778 77.0847 586.732 74.8823 567.714C74.0462 567.255 73.516 566.458 71.3544 564.085C66.3786 558.603 61.4436 551.805 58.1604 545.366C56.1823 545.247 41.9075 538.469 34.8313 523.019C34.6273 522.58 33.7097 520.487 33.5669 520.009C33.4242 519.59 33.5261 519.251 33.5465 518.852Z" fill="#184655"/>
<path d="M79.3687 496.963C79.2056 494.889 79.124 492.756 79.124 490.603C79.124 466.482 89.5854 446.945 102.514 446.945C115.423 446.945 125.905 466.502 125.905 490.603C125.905 492.756 125.823 494.889 125.66 496.963H79.3687Z" fill="#50BFA5"/>
<path d="M52.919 486.238C52.7559 483.307 52.6743 480.317 52.6743 477.267C52.6743 443.258 63.1357 415.687 76.0646 415.687C88.9935 415.687 99.4345 443.238 99.4345 477.247C99.4345 480.297 99.353 483.288 99.1898 486.218H52.919V486.238Z" fill="#96D9C9"/>
<path d="M61.4646 523.956C61.6278 521.882 61.7093 519.749 61.7093 517.596C61.7093 493.475 51.2479 473.938 38.319 473.938C25.4105 473.938 14.9287 493.495 14.9287 517.596C14.9287 519.749 15.0103 521.882 15.1734 523.956H61.4646Z" fill="#96D9C9"/>
<path d="M98.905 523.956C99.1089 521.025 99.2109 518.035 99.2109 514.985C99.2109 480.975 85.9353 453.405 69.56 453.405C53.1848 453.405 39.9092 480.975 39.9092 514.985C39.9092 518.035 40.0111 521.025 40.2151 523.956H98.905Z" fill="#50BFA5"/>
<path d="M76.1467 453.405C84.3241 453.405 91.645 462.156 96.4577 475.872C98.9048 474.616 101.515 473.938 104.227 473.938C118.747 473.938 130.534 493.494 130.534 517.596C130.534 519.749 130.432 521.882 130.248 523.956H50.1053C49.9218 521.025 49.8198 518.035 49.8198 514.985C49.8402 480.975 61.6067 453.405 76.1467 453.405Z" fill="#96D9C9"/>
<path d="M36.3185 619.145C36.4 618.368 36.4408 617.551 36.4408 616.733C36.4408 607.623 31.1388 600.227 24.5927 600.227C18.0467 600.227 12.7446 607.623 12.7446 616.733C12.7446 617.551 12.7854 618.348 12.867 619.145H36.3185Z" fill="#3C8F7C"/>
<path d="M49.7169 615.079C49.7985 613.963 49.8393 612.846 49.8393 611.69C49.8393 598.832 44.5372 588.426 37.9912 588.426C31.4451 588.426 26.1431 598.852 26.1431 611.69C26.1431 612.846 26.1838 613.982 26.2654 615.079H49.7169Z" fill="#50BFA5"/>
<path d="M45.3738 629.332C45.2923 628.554 45.2515 627.737 45.2515 626.919C45.2515 617.809 50.5535 610.413 57.0996 610.413C63.6456 610.413 68.9477 617.809 68.9477 626.919C68.9477 627.737 68.9069 628.534 68.8253 629.332H45.3738Z" fill="#50BFA5"/>
<path d="M26.4278 629.332C26.3258 628.215 26.2646 627.099 26.2646 625.943C26.2646 613.085 32.9942 602.678 41.2736 602.678C49.5734 602.678 56.2826 613.105 56.2826 625.943C56.2826 627.099 56.2214 628.235 56.1194 629.332H26.4278Z" fill="#3C8F7C"/>
<path d="M37.9508 602.678C33.8111 602.678 30.0996 605.988 27.6525 611.171C26.4086 610.692 25.0831 610.433 23.7168 610.433C16.355 610.433 10.4004 617.829 10.4004 626.94C10.4004 627.757 10.4412 628.554 10.5431 629.352H51.1244C51.2264 628.235 51.2672 627.119 51.2672 625.963C51.2672 613.105 45.3125 602.678 37.9508 602.678Z" fill="#50BFA5"/>
<path d="M262.455 443.872V442.388H257.325V443.872H262.455Z" fill="#F7CC7F"/>
<path d="M268.126 477.215V442.215C268.126 439.906 266.203 438.026 263.841 438.026H256.383C254.021 438.026 252.098 439.906 252.098 442.215V477.215C252.098 479.524 254.021 481.405 256.383 481.405H263.841C266.203 481.405 268.126 479.524 268.126 477.215Z" fill="#F47458"/>
<path d="M260.128 481.405H264.414C266.472 481.405 268.126 480.514 268.126 479.425V440.005C268.126 438.916 266.945 438.026 264.92 438.026H260.128V481.405Z" fill="#B75742"/>
<path d="M260.825 464.185V454.091H258.936V464.185H260.825Z" fill="#1A1A1A"/>
<path d="M283.379 477.15V451.683C283.379 449.341 281.422 447.428 279.026 447.428H271.703C269.307 447.428 267.35 449.341 267.35 451.683V477.15C267.35 479.492 269.307 481.405 271.703 481.405H279.026C281.422 481.405 283.379 479.492 283.379 477.15Z" fill="#355389"/>
<path d="M275.381 481.405H279.667C281.725 481.405 283.379 480.712 283.379 479.854V449.011C283.379 448.153 281.725 447.46 279.667 447.46H275.381V481.405Z" fill="#5184CE"/>
<path d="M277.705 451.979V450.825H272.576V451.979H277.705Z" fill="#F7CC7F"/>
<path d="M276.095 467.924V460.007H274.206V467.924H276.095Z" fill="#1A1A1A"/>
<path d="M199.591 481.966H198.815V489.586H199.591V481.966Z" fill="#13375B"/>
<path d="M292.389 481.966H291.613V489.586H292.389V481.966Z" fill="#13375B"/>
<path d="M258.88 465.736H205.969C203.37 465.736 201.278 467.781 201.278 470.321V476.787C201.278 479.327 203.37 481.372 205.969 481.372H258.88C261.479 481.372 263.571 479.327 263.571 476.787V470.321C263.605 467.781 261.479 465.736 258.88 465.736Z" fill="#B75742"/>
<path d="M263.605 473.554V469.364C263.605 467.352 262.323 465.736 260.771 465.736H204.147C202.595 465.736 201.312 467.352 201.312 469.364V473.554H263.605Z" fill="#91342A"/>
<path d="M211.335 471.278H209.209V476.292H211.335V471.278Z" fill="#F7CC7F"/>
<path d="M255.675 471.278H253.549V476.292H255.675V471.278Z" fill="#F7CC7F"/>
<path d="M238.837 472.862H224.327V474.709H238.837V472.862Z" fill="#1A1A1A"/>
<path d="M249.566 450.066H215.316C212.515 450.066 210.288 452.277 210.288 454.982V460.787C210.288 463.525 212.548 465.703 215.316 465.703H249.566C252.367 465.703 254.594 463.492 254.594 460.787V455.015C254.628 452.277 252.367 450.066 249.566 450.066Z" fill="#4E9B87"/>
<path d="M254.628 457.918V453.695C254.628 451.683 253.717 450.066 252.603 450.066H212.278C211.165 450.066 210.253 451.683 210.253 453.695V457.885H254.628V457.918Z" fill="#3C8F7C"/>
<path d="M216.227 455.641H214.708V460.655H216.227V455.641Z" fill="#F7CC7F"/>
<path d="M288.98 481.372L252.3 481.339L251.692 465.373H288.98C293.502 465.373 297.18 468.969 297.18 473.389C297.18 477.81 293.502 481.372 288.98 481.372Z" fill="#FAE0B2"/>
<path d="M260.129 473.389C260.129 477.81 256.755 481.405 252.604 481.405C248.454 481.405 245.079 477.81 245.079 473.389C245.079 468.969 248.454 465.373 252.604 465.373C256.755 465.373 260.129 468.969 260.129 473.389Z" fill="#F7CC7F"/>
<path d="M267.89 482.13C267.553 481.867 267.486 481.405 267.722 481.042C270.219 477.611 270.894 473.949 269.78 470.189C269.173 468.078 268.093 466.494 267.519 465.703C267.283 465.373 267.317 464.944 267.62 464.68C267.958 464.383 268.498 464.416 268.802 464.812C269.476 465.703 270.59 467.451 271.299 469.727C272.21 472.696 272.48 477.215 269.038 481.999C268.768 482.328 268.262 482.394 267.89 482.13Z" fill="#F47458"/>
<path d="M281.322 482.13C280.984 481.867 280.917 481.405 281.153 481.042C283.65 477.611 284.325 473.949 283.211 470.189C282.604 468.078 281.524 466.494 280.95 465.703C280.714 465.373 280.748 464.944 281.052 464.68C281.389 464.383 281.929 464.416 282.233 464.812C282.908 465.703 284.021 467.451 284.73 469.727C285.641 472.696 285.911 477.215 282.469 481.999C282.165 482.328 281.659 482.394 281.322 482.13Z" fill="#F47458"/>
<path d="M258.813 471.937C258.408 469.43 257.024 468.143 255.911 467.516C254.291 466.593 252.165 466.461 250.309 467.154C248.521 467.813 247.103 469.364 246.563 471.145C246.091 472.728 246.428 474.378 247.508 475.73C249.297 478.006 252.064 477.644 253.414 477.083C254.628 476.555 255.539 475.334 255.742 473.982C255.911 472.86 255.371 471.805 254.392 471.178C253.414 470.551 252.165 470.551 251.22 471.178C250.511 471.64 249.803 472.498 250.478 474.18L251.018 473.982C250.579 472.926 250.748 472.168 251.524 471.673C252.3 471.178 253.279 471.178 254.088 471.673C254.898 472.168 255.303 473.025 255.168 473.916C255 475.104 254.223 476.159 253.177 476.588C251.996 477.083 249.533 477.413 247.947 475.433C246.732 473.883 246.8 472.366 247.103 471.376C247.576 469.76 248.892 468.341 250.478 467.747C252.199 467.088 254.122 467.219 255.607 468.044C257.024 468.836 257.935 470.221 258.205 472.069C258.576 474.444 258.138 476.324 256.856 477.677C254.46 480.217 249.398 480.184 248.521 480.151C248.824 480.349 249.162 480.547 249.499 480.711H249.533C251.085 480.711 255 480.448 257.26 478.039C258.711 476.555 259.218 474.51 258.813 471.937Z" fill="#F47458"/>
<path d="M248.993 455.641H247.475V460.655H248.993V455.641Z" fill="#F7CC7F"/>
<path d="M237.014 457.225H226.688V459.073H237.014V457.225Z" fill="#1A1A1A"/>
<path d="M223.376 449.414L205.934 481.742L206.441 482.004L223.883 449.675L223.376 449.414Z" fill="black"/>
<path d="M242.962 449.166L242.455 449.427L260.357 482.602L260.865 482.341L242.962 449.166Z" fill="black"/>
<path d="M279.818 447.003L279.287 447.215L293.801 482.008L294.332 481.796L279.818 447.003Z" fill="black"/>
<path d="M262.429 437.722L261.888 437.908L277.795 481.953L278.336 481.766L262.429 437.722Z" fill="black"/>
<path d="M295.932 481.372H195.407V482.394H295.932V481.372Z" fill="#13375B"/>
<path d="M124.745 591.354C124.745 591.354 201.446 603.791 202.391 603.263C203.302 602.735 213.257 560.808 213.257 560.808C213.257 560.808 149.817 549.658 148.805 549.658C147.792 549.658 133.991 560.445 133.788 561.17C133.586 561.896 124.745 591.354 124.745 591.354Z" fill="#183658"/>
<path d="M358.765 602.009C360.62 602.173 453.52 600.227 453.52 600.227L446.534 579.346C446.534 579.346 433.644 560.312 426.861 560.642C420.045 561.005 379.585 554.572 372.6 559.322C365.615 564.073 359.372 560.279 356.031 571.627C352.724 582.942 350.126 584.228 352.724 591.057C355.255 597.885 358.765 602.009 358.765 602.009Z" fill="#183658"/>
<path d="M163.485 629.751C180.947 629.751 195.104 615.913 195.104 598.842C195.104 581.771 180.947 567.932 163.485 567.932C146.022 567.932 131.866 581.771 131.866 598.842C131.866 615.913 146.022 629.751 163.485 629.751Z" fill="#1A1A1A"/>
<path d="M163.484 620.35C175.636 620.35 185.486 610.72 185.486 598.842C185.486 586.963 175.636 577.333 163.484 577.333C151.333 577.333 141.483 586.963 141.483 598.842C141.483 610.72 151.333 620.35 163.484 620.35Z" fill="#9E9DA2"/>
<path d="M163.485 613.224C171.61 613.224 178.197 606.785 178.197 598.841C178.197 590.898 171.61 584.458 163.485 584.458C155.359 584.458 148.772 590.898 148.772 598.841C148.772 606.785 155.359 613.224 163.485 613.224Z" fill="#D8D9DD"/>
<path d="M406.953 629.751C424.415 629.751 438.571 615.913 438.571 598.842C438.571 581.771 424.415 567.932 406.953 567.932C389.49 567.932 375.334 581.771 375.334 598.842C375.334 615.913 389.49 629.751 406.953 629.751Z" fill="#1A1A1A"/>
<path d="M406.953 620.35C419.104 620.35 428.955 610.72 428.955 598.842C428.955 586.963 419.104 577.333 406.953 577.333C394.802 577.333 384.952 586.963 384.952 598.842C384.952 610.72 394.802 620.35 406.953 620.35Z" fill="#9E9DA2"/>
<path d="M392.241 598.841C392.241 606.791 398.821 613.224 406.953 613.224C415.086 613.224 421.666 606.791 421.666 598.841C421.666 590.891 415.086 584.459 406.953 584.459C398.821 584.426 392.241 590.891 392.241 598.841Z" fill="#D8D9DD"/>
<path d="M479.537 569.383C476.871 552.163 468.233 548.535 442.654 543.52C414.444 538.012 378.641 520.033 378.641 520.033C378.641 520.033 317.563 490.773 302.614 487.408C287.665 484.043 250.85 485 219.94 485.264C189.03 485.495 170.875 493.907 155.184 505.881C139.492 517.856 112.26 526.994 112.26 526.994L107.3 527.851C102.205 528.742 98.5264 533.063 98.5264 538.11V580.863C98.5264 585.712 101.867 589.934 106.659 591.188L124.543 595.806C125.995 596.037 127.344 595.047 127.513 593.596C129.47 576.112 144.925 562.818 163.384 562.818C182.989 562.851 199.085 578.587 199.085 597.785C199.085 599.963 198.883 602.107 198.478 604.152C198.073 606.296 199.76 608.243 201.987 608.243H366.493C369.698 608.243 372.162 605.505 371.757 602.404C371.554 600.919 371.453 599.402 371.453 597.851C371.386 578.916 387.077 563.214 406.446 562.818C426.524 562.422 442.924 578.191 442.924 597.752C442.924 599.039 442.857 600.325 442.722 601.579C442.317 605.142 445.152 608.243 448.796 608.243H472.451C476.737 608.243 480.246 604.845 480.246 600.622V578.224C480.178 575.321 480.01 572.319 479.537 569.383Z" fill="#F7CC7F"/>
<path d="M99.5724 543.191H119.043C120.697 543.191 121.844 544.84 121.203 546.358L119.009 551.471C116.917 556.353 112.058 559.52 106.659 559.52H99.5724C98.1888 559.52 97.0415 558.431 97.0415 557.046V545.665C97.0415 544.28 98.1888 543.191 99.5724 543.191Z" fill="#CF283C"/>
<path d="M448.559 551.109C459.289 552.725 471.64 562.655 471.64 562.655C474.609 565.755 472.146 570.802 467.827 570.539L446.905 569.252C442.552 568.988 438.84 566.085 437.659 561.995C435.601 555.1 437.322 549.426 448.559 551.109Z" fill="#EAFCFC"/>
<path d="M98.6273 582.479C97.2775 582.446 96.3326 583.766 96.8388 584.986C98.2223 588.45 101.226 591.155 105.072 592.145L125.117 597.324C126.737 597.588 128.255 596.466 128.458 594.85C128.829 591.518 129.639 588.351 130.82 585.349C131.225 584.327 130.448 583.238 129.369 583.205L98.6273 582.479Z" fill="#EAB054"/>
<path d="M443.06 590.529C441.541 590.496 440.36 591.782 440.563 593.267C440.765 594.916 440.9 596.565 440.9 598.281C440.9 599.732 440.833 601.118 440.664 602.536C440.225 606.495 443.364 609.958 447.413 609.958H473.666C478.424 609.958 482.305 606.165 482.305 601.514V594.883C482.305 593.003 480.753 591.452 478.829 591.419L443.06 590.529Z" fill="#EAB054"/>
<path opacity="0.5" d="M378.674 529.963C378.336 529.765 343.545 511.127 320.498 500.67C297.653 490.344 272.175 491.433 271.096 491.466C268.16 491.4 207.183 490.114 188.455 495.82C169.558 501.56 144.992 527.786 143.946 528.907L143.676 529.204L150.29 559.553L150.998 559.52C170.233 558.464 184.946 563.478 193.584 574.001C200.097 581.952 200.907 590.363 200.907 590.462L200.974 591.188L270.319 592.936H271.129L271.973 592.969L368.618 594.817V593.992C369.09 563.28 379.045 531.249 379.112 530.919L379.315 530.293L378.674 529.963ZM202.425 589.572C202.088 587.296 200.637 580.104 194.9 573.045C188.725 565.458 176.172 556.683 151.606 557.87L145.464 529.699C148.299 526.697 171.583 502.682 188.961 497.371C206.34 492.06 262.862 492.95 270.319 493.082V591.287L202.425 589.572ZM366.93 593.134L271.939 591.32V493.082C276.394 492.95 299.239 492.819 319.823 502.154C341.183 511.82 372.633 528.577 377.324 531.084C375.907 535.67 367.538 564.831 366.93 593.134Z" fill="#FEB546"/>
<path opacity="0.5" d="M96.8379 584.988C98.2214 588.452 101.225 591.156 105.072 592.146L125.116 597.325C126.736 597.589 128.254 596.468 128.457 594.851C128.592 593.565 128.794 592.311 129.064 591.091L96.8379 584.988Z" fill="#FEB546"/>
<path opacity="0.5" d="M440.832 600.128C440.799 600.952 440.731 601.744 440.63 602.569C440.191 606.527 443.329 609.991 447.379 609.991H473.632C478.39 609.991 482.271 606.197 482.271 601.546V600.161H440.832V600.128Z" fill="#FEB546"/>
<path d="M372.971 600.129C372.971 598.381 373.106 596.665 373.342 594.983C373.646 592.971 372.093 591.123 370.001 591.057L198.882 586.967C197.026 586.934 195.676 588.649 196.182 590.43C197.06 593.498 197.532 596.731 197.532 600.063C197.532 602.273 197.33 604.417 196.925 606.529C196.52 608.706 198.207 610.751 200.468 610.751H367.909C371.182 610.751 373.679 607.914 373.241 604.714C373.072 603.197 372.971 601.646 372.971 600.129Z" fill="#EAB054"/>
<path opacity="0.5" d="M372.972 600.129C372.972 600.096 372.972 600.063 372.972 600.03H197.568C197.568 602.24 197.365 604.384 196.96 606.495C196.555 608.672 198.242 610.718 200.503 610.718H367.944C371.218 610.718 373.715 607.881 373.276 604.681C373.074 603.196 372.972 601.646 372.972 600.129Z" fill="#FEB546"/>
<path d="M164.159 532.833L258.712 533.691C258.712 533.691 264.516 533.526 265.292 528.215C266.068 522.904 266.001 500.076 266.001 500.076C266.001 500.076 265.326 495.491 260.838 495.425C258.104 495.392 235.259 493.808 213.055 496.447C194.934 498.592 178.163 506.707 165.441 519.143L158.726 525.708C158.726 525.708 154.204 532.734 164.159 532.833Z" fill="#EAFCFC"/>
<path d="M276.53 502.98V526.896C276.53 529.997 278.959 532.57 282.064 532.669L356.37 535.605C358.091 535.671 359.744 534.912 360.723 533.493C362.072 531.58 362.208 528.413 355.56 524.158C343.985 516.802 314.526 500.836 303.627 499.318C296.675 498.328 287.598 497.9 281.929 497.735C278.993 497.636 276.53 500.011 276.53 502.98Z" fill="#EAFCFC"/>
<path d="M178.164 521.65C178.164 521.65 239.782 514.789 241.098 515.976C242.414 517.164 250.985 536.759 252.537 542.103L179.952 541.443L174.857 533.922L178.164 521.65Z" fill="#B75742"/>
<path d="M308.823 527.06C308.823 527.06 314.492 533.624 316.112 540.684L314.324 543.52L310.747 539.826L308.823 527.06Z" fill="#263D60"/>
<path d="M314.864 509.841C313.784 502.913 307.372 497.932 300.691 501.297C299.172 502.056 297.148 503.573 296.101 504.893C293.301 508.422 292.558 512.777 289.656 516.208C290.736 516.999 292.018 517.824 293.537 518.616L295.359 516.24L294.752 519.176C299.24 521.288 305.584 523.003 314.29 522.97C315.37 518.187 315.437 513.535 314.864 509.841Z" fill="#1A1A1A"/>
<path d="M299.846 525.08C299.846 525.08 293.401 524.684 290.87 527.389C288.305 530.094 296.539 551.569 296.978 555C297.45 558.464 293.165 565.325 293.165 565.325C293.165 565.325 310.881 573.44 315.234 570.636C315.234 570.636 314.525 542.959 314.086 540.518C313.614 538.044 309.767 528.016 308.822 527.026C307.877 526.07 299.846 525.08 299.846 525.08Z" fill="#355389"/>
<path d="M301.973 516.669C301.973 516.669 301.939 516.867 301.871 517.163C301.568 518.681 300.488 523.695 299.745 525.08C298.834 526.763 302.85 532.074 306.697 531.414C307.844 531.216 305.718 526.532 305.82 526.037C306.022 525.08 306.292 523.794 306.562 522.441C306.731 521.683 306.866 520.924 307.001 520.198C307.406 518.153 307.743 516.504 307.743 516.504L301.973 516.669Z" fill="#F7A491"/>
<path d="M178.636 522.805C178.569 522.376 178.4 522.014 178.164 521.651L169.019 530.623C169.019 530.623 162.135 541.278 177.287 541.443L181.437 541.476L178.636 522.805Z" fill="#B75742"/>
<path opacity="0.3" d="M301.872 517.164C301.94 516.834 301.974 516.67 301.974 516.67L307.744 516.538C307.744 516.538 307.406 518.187 307.002 520.232C306.867 520.958 306.698 521.684 306.563 522.442C305.685 522.31 304.741 521.882 303.796 521.09C302.783 520.232 302.109 519.177 301.704 518.055C301.771 517.725 301.839 517.395 301.872 517.164Z" fill="#F47458"/>
<path d="M305.853 503.87C305.853 503.87 303.153 503.573 301.433 505.717C299.745 507.861 297.889 514.525 302.141 518.12C306.359 521.749 310.544 517.659 311.185 513.304C311.792 508.983 312.028 503.738 305.853 503.87Z" fill="#F7A491"/>
<path d="M312.401 513.272C311.894 514.229 311.051 514.756 310.511 514.459C309.971 514.163 309.937 513.14 310.443 512.183C310.95 511.227 311.793 510.699 312.333 510.996C312.873 511.293 312.907 512.315 312.401 513.272Z" fill="#F7A491"/>
<path d="M306.157 503.178C306.157 503.178 302.513 509.511 299.948 509.775C297.35 510.072 297.012 513.437 297.012 513.437C297.012 513.437 297.957 505.685 300.522 504.2C303.086 502.716 306.157 503.178 306.157 503.178Z" fill="#1A1A1A"/>
<path d="M300.624 511.392C300.826 512.513 300.422 513.536 299.679 513.701C298.937 513.833 298.161 513.041 297.958 511.919C297.756 510.798 298.161 509.775 298.903 509.61C299.645 509.478 300.422 510.27 300.624 511.392Z" fill="#F7A491"/>
<path d="M291.478 555.759C291.478 555.693 293.908 545.566 294.886 543.323C295.865 541.08 299.712 530.655 299.712 530.655L294.751 529.6C294.751 529.6 291.545 537.748 290.094 541.442C288.643 545.137 289.251 551.933 289.183 553.846C289.183 553.879 288.981 555.462 288.981 555.495C288.947 555.693 288.88 555.891 288.88 555.924C288.812 556.023 288.643 556.65 288.643 556.716C288.643 556.782 288.475 556.98 288.441 557.079C288.373 557.178 288.238 558.464 288.205 558.695C288.171 558.893 288.272 559.388 288.272 559.388L288.205 560.246C288.171 560.872 288.846 560.707 288.846 560.707C288.846 561.004 288.947 561.169 289.116 561.235C289.284 561.301 289.487 561.235 289.521 561.268C289.554 561.268 289.554 561.367 289.554 561.367C289.521 561.565 289.757 561.697 289.892 561.73C290.027 561.763 290.297 561.664 290.364 561.565C290.432 561.466 290.499 561.499 290.499 561.499C290.634 561.631 291.208 561.598 291.343 561.433C291.478 561.268 291.579 560.344 291.647 560.246C291.714 560.147 291.815 560.015 291.849 559.883C291.883 559.751 292.322 558.794 292.355 558.629C292.389 558.464 292.085 557.804 292.052 557.409C291.984 557.013 291.613 556.452 291.512 556.254C291.444 556.221 291.478 556.023 291.478 555.759Z" fill="#F48C7F"/>
<path d="M307.879 515.415L303.694 515.217C303.694 515.217 303.694 516.768 305.55 516.9C307.777 517.098 307.879 515.415 307.879 515.415Z" fill="white"/>
<path d="M285.068 518.55L283.549 528.314C283.549 528.314 289.05 539.926 292.357 538.936C295.124 538.078 293.403 527.819 293.403 527.819C293.403 527.819 291.884 522.31 292.357 519.539C292.795 516.735 285.068 518.55 285.068 518.55Z" fill="#F7A491"/>
<path d="M292.356 519.507C292.795 516.737 285.067 518.551 285.067 518.551L284.932 519.376C285.168 519.903 285.438 520.365 285.776 520.728C287.497 522.542 290.196 523.664 292.558 523.73C292.322 522.213 292.187 520.629 292.356 519.507Z" fill="#F47458"/>
<path d="M283.785 504.729C283.582 504.663 282.03 515.846 284.932 518.914C287.834 521.981 293.537 523.004 295.562 520.563C297.823 517.891 297.688 505.85 293.166 502.684C288.644 499.55 283.785 504.729 283.785 504.729Z" fill="#F7A491"/>
<path d="M291.478 496.746C287.969 497.439 285.708 499.55 284.865 500.44C283.279 500.638 281.119 501.496 278.892 505.125C276.158 509.578 278.183 514.526 281.355 516.967C284.561 519.376 284.493 522.179 284.493 522.179L284.999 520.728C285.371 519.639 285.539 518.452 285.404 517.33C285.337 516.638 285.168 515.879 284.898 515.285C284.122 513.669 286.552 512.58 287.227 511.228C287.733 510.205 287.767 507.83 288.61 506.114L289.589 504.795C289.589 504.795 291.85 503.08 294.077 503.541C296.27 504.003 295.967 495.822 291.478 496.746Z" fill="#13375B"/>
<path d="M287.059 513.206C287.093 514.558 286.451 515.68 285.642 515.713C284.832 515.713 284.157 514.624 284.157 513.272C284.157 511.919 284.764 510.798 285.574 510.765C286.384 510.732 287.059 511.821 287.059 513.206Z" fill="#F7A491"/>
<path d="M291.816 516.34L296.203 516.109C296.203 516.109 296.203 517.759 294.246 517.891C291.918 518.089 291.816 516.34 291.816 516.34Z" fill="white"/>
<path d="M282.3 527.919C282.705 527.193 283.448 526.698 284.291 526.599C287.969 526.27 298.127 526.27 303.323 535.044C304.133 536.43 304.741 537.914 305.145 539.465L306.225 543.852L279.5 542.994L279.533 540.091C279.331 535.869 280.242 531.647 282.3 527.919Z" fill="#3C8F7C"/>
<path d="M345.74 545.467L349.621 530.062C349.891 529.039 349.25 527.984 348.17 527.72C347.124 527.456 346.044 528.083 345.774 529.138L341.725 545.269L345.74 545.467Z" fill="#1A1A1A"/>
<path d="M335.717 545.006C336.83 544.346 337.708 543.786 338.315 543.423C338.349 543.39 341.15 542.07 341.217 542.07C341.622 541.938 341.959 541.806 342.027 541.806C342.229 541.806 343.444 541.41 343.545 541.344C343.647 541.311 344.153 541.311 344.355 541.311C344.558 541.311 346.819 540.19 347.19 539.992C347.561 539.827 348.236 539.167 348.236 539.167L349.687 538.343C350.767 537.749 349.788 536.858 349.788 536.858C350.294 536.561 350.429 536.231 350.362 535.901C350.261 535.572 349.991 535.308 349.957 535.242C349.957 535.176 350.092 535.077 350.092 535.077C350.429 534.912 350.429 534.417 350.328 534.153C350.227 533.889 349.822 533.592 349.586 533.592C349.383 533.559 349.35 533.46 349.35 533.46C349.383 533.097 348.81 532.273 348.405 532.24C348 532.207 346.38 532.999 346.178 532.999C345.975 532.999 345.638 532.933 345.401 533.064C345.165 533.163 343.174 533.427 342.837 533.592C342.499 533.757 341.757 534.846 341.217 535.308C340.677 535.802 340.104 536.99 339.935 537.32C339.867 537.452 339.496 537.65 339.091 537.848C339.024 537.914 326.842 542.202 319.654 544.313L335.717 545.006Z" fill="#F7A491"/>
<path d="M297.755 543.521C297.013 539.101 296.068 534.449 295.055 532.272C292.862 527.555 285.472 524.751 281.861 527.687C279.938 529.237 280.748 536.692 282.401 543.125L297.755 543.521Z" fill="#50BFA5"/>
<path d="M190.412 517.89C190.412 517.89 181.368 517.659 178.298 519.671C175.227 521.651 175.598 541.443 175.598 541.443L178.568 542.004C178.568 542.004 179.647 555.628 181.976 556.321C184.304 557.047 199.489 552.461 202.661 548.635C205.833 544.808 195.98 516.571 195.98 516.571L190.412 517.89Z" fill="#3C8F7C"/>
<path d="M206.509 502.187C207.285 499.812 207.825 492.588 207.994 490.114C207.859 489.949 207.218 488.893 207.285 486.815C207.319 485.364 206.307 482.956 207.251 483.12C208.196 483.285 208.264 485.793 208.837 485.364C209.411 484.935 209.681 479.657 210.525 479.789C211.402 479.921 210.795 484.902 211.301 484.506C211.807 484.11 211.841 479.525 213.056 479.756C214.27 479.954 212.516 485.133 213.157 485.265C213.798 485.364 214.844 482.098 215.823 482.263C216.801 482.428 214.203 486.683 214.507 486.485C214.81 486.254 216.902 484.506 217.24 484.902C217.645 485.331 212.786 490.345 212.786 491.631C213.19 494.963 214 500.967 212.887 504.761C211.537 509.379 208.095 519.671 208.095 519.671L200.772 517.956C200.772 518.022 205.564 505.024 206.509 502.187Z" fill="#F7A491"/>
<path d="M209.615 486.385C209.986 486.55 210.29 486.781 210.526 487.078C210.56 487.144 211.471 487.969 211.235 489.354C211.1 488.496 210.898 487.54 209.615 486.385Z" fill="#F48C7F"/>
<path d="M162.742 521.749C162.742 521.749 162.944 520.594 161.932 518.813C161.291 517.659 161.122 515.349 160.447 515.844C159.772 516.339 160.784 518.384 160.177 518.252C159.57 518.12 157.208 513.997 156.634 514.459C156.026 514.921 158.524 518.648 157.95 518.549C157.41 518.45 155.52 514.789 154.677 515.415C153.833 516.042 157.275 519.506 156.836 519.869C156.398 520.199 154.272 517.988 153.597 518.483C152.922 519.011 156.634 521.419 156.296 521.353C155.959 521.287 153.664 520.693 153.563 521.155C153.428 521.65 158.254 523.134 158.794 524.19C159.333 525.246 167.601 535.637 169.963 535.67C172.325 535.67 182.921 528.676 183.697 526.367C184.473 524.091 183.495 521.683 181.976 521.353C180.424 521.023 170.537 527.984 170.064 527.885C169.592 527.786 162.742 521.749 162.742 521.749Z" fill="#F7A491"/>
<path d="M160.279 519.242C160.042 519.539 159.907 519.902 159.806 520.265C159.806 520.331 159.435 521.518 160.346 522.574C160.076 521.782 159.739 520.892 160.279 519.242Z" fill="#F48C7F"/>
<path d="M185.048 536.132C185.048 536.132 194.564 543.522 195.61 545.039C196.387 546.161 193.788 558.894 193.788 558.894C193.788 558.894 190.009 558.993 188.288 557.706C188.288 557.706 189.334 548.899 188.861 548.569C188.423 548.239 177.962 543.687 177.962 543.687L178.637 538.474L185.048 536.132Z" fill="#B75742"/>
<path d="M203.338 509.511C203.338 509.511 204.991 509.808 210.627 515.812L204.08 528.842L198.04 518.022L203.338 509.511Z" fill="#9BC1F9"/>
<path d="M192.707 518.681C192.707 518.681 196.993 517.758 198.512 517.032C200.03 516.306 213.967 548.436 210.457 549.558C203.101 551.933 184.035 558.201 184.035 558.201C184.035 558.201 183.495 556.353 184.17 552.956C185.385 547.084 184.98 533.988 184.71 531.711C184.575 530.359 176.443 534.252 176.443 534.252L173.237 524.091C173.237 524.091 182.517 520.99 185.621 520.034C186.532 519.737 192.707 518.681 192.707 518.681Z" fill="#9BC1F9"/>
<path d="M208.603 538.573C206.848 533.262 195.341 518.055 195.24 517.89L197.129 516.636C197.534 517.23 206.949 530.161 208.771 535.769L208.603 538.573Z" fill="#3C8F7C"/>
<path d="M183.597 548.403L182.416 546.919C182.484 546.853 190.515 540.585 190.751 533.625C190.953 526.598 185.183 519.836 185.116 519.77L186.6 518.549C186.87 518.846 192.944 525.905 192.708 533.69C192.438 541.509 183.968 548.139 183.597 548.403Z" fill="#3C8F7C"/>
<path d="M190.649 497.207C190.649 497.207 194.057 494.733 197.263 498.758C199.827 501.957 199.49 500.935 200.772 502.551C202.055 504.135 203.978 504.267 204.248 506.939C204.552 509.578 203.337 510.138 203.337 510.138C203.337 510.138 204.72 512.085 203.674 514.328C202.628 516.571 199.692 518.748 197.027 518.715C197.027 518.715 193.315 521.255 189.232 520.662C185.148 520.068 186.532 519.936 184.912 520.101C183.292 520.266 178.669 518.55 179.041 515.318C179.041 515.318 176.037 512.481 178.332 509.677C180.66 506.873 181.909 504.893 183.023 501.331C184.136 497.768 188.759 496.58 190.649 497.207Z" fill="#1A1A1A"/>
<path d="M195.205 515.482C195.205 515.482 195.576 520.166 196.082 520.562C196.588 520.958 197.297 521.618 196.757 522.805C196.217 523.993 193.281 523.597 191.864 523.069C190.514 522.575 189.57 521.552 189.57 521.552L189.435 514.064L195.205 515.482Z" fill="#F7A491"/>
<path d="M193.517 517.626C192.572 517.396 190.885 516.967 189.434 515.119L189.4 514.064L195.204 515.482C195.204 515.482 195.306 516.637 195.441 517.824C194.665 517.89 193.956 517.725 193.517 517.626Z" fill="#F48C7F"/>
<path d="M187.039 509.972C187.039 509.972 186.6 507.234 184.913 507.96C183.226 508.686 185.014 512.71 186.431 512.413C187.882 512.117 187.039 509.972 187.039 509.972Z" fill="#F7A491"/>
<path d="M192.269 499.318C192.269 499.318 194.969 498.988 196.589 500.901C198.209 502.815 200.334 508.555 198.512 512.843C196.656 517.131 193.653 516.439 192.404 516.175C191.156 515.878 188.693 515.218 187.073 511.557C185.419 507.862 185.352 499.252 192.269 499.318Z" fill="#F7A491"/>
<path d="M247.474 543.126L252.468 566.349L243.863 565.525L239.747 544.281L247.474 543.126Z" fill="#F7A491"/>
<path d="M248.959 543.785L239.747 544.28C239.747 544.28 239.072 538.046 238.904 535.077C238.701 531.481 238.769 526.797 239.241 526.863C240.523 527.094 242.244 527.654 243.29 528.974C247.002 533.493 248.959 543.785 248.959 543.785Z" fill="#5184CE"/>
<path d="M242.886 534.284C243.123 535.373 248.96 565.755 248.96 565.755C235.159 573.177 224.597 566.843 224.597 566.843C224.597 566.843 225.137 546.424 224.428 543.587C223.956 541.707 222.268 529.369 223.483 528.973C225.069 528.445 227.465 527.654 229.456 527.357C231.177 527.093 237.825 526.664 239.04 526.994C239.04 526.961 241.975 529.699 242.886 534.284Z" fill="#EAFCFC"/>
<path d="M237.925 505.321C237.925 505.321 243.527 505.222 243.054 509.774C243.054 509.774 247.205 511.358 244.438 515.019C244.438 515.019 247.407 518.945 242.244 522.738C242.244 522.738 240.861 528.016 235.057 525.509C235.057 525.509 233.336 526.763 230.94 525.081C228.544 523.398 228.24 522.409 228.24 522.409C228.24 522.409 222.976 521.419 223.685 516.702C223.685 516.702 220.918 514.392 225.102 511.49C225.102 511.49 225.035 504.991 230.67 505.849C230.704 505.816 234.011 500.867 237.925 505.321Z" fill="#13375B"/>
<path d="M229.185 515.976C229.05 517.13 228.274 517.988 227.464 517.889C226.654 517.79 226.148 516.768 226.283 515.613C226.418 514.458 227.194 513.601 228.004 513.7C228.814 513.799 229.354 514.821 229.185 515.976Z" fill="#F7A491"/>
<path d="M242.311 519.473C241.805 520.529 240.827 521.123 240.084 520.793C239.342 520.463 239.139 519.341 239.646 518.286C240.152 517.23 241.13 516.636 241.873 516.966C242.615 517.296 242.784 518.418 242.311 519.473Z" fill="#F7A491"/>
<path d="M235.563 523.003C235.563 523.068 236.036 526.07 236.272 527.621C236.373 528.215 236.036 528.775 235.462 528.973C233.944 529.534 230.974 530.227 229.118 528.314C228.949 528.149 228.882 527.885 228.882 527.654L229.658 520.693L235.563 523.003Z" fill="#F7A491"/>
<path d="M236.035 526.004C234.415 526.664 229.758 526.103 229.387 523.233L229.657 520.726L235.562 523.002C235.562 523.035 235.9 525.08 236.035 526.004Z" fill="#F48C7F"/>
<path d="M237.081 508.85C237.081 508.85 234.618 508.323 232.289 509.741C229.927 511.16 226.114 516.768 229.32 521.65C232.492 526.532 237.925 524.124 239.814 520.264C241.704 516.405 242.514 510.665 237.081 508.85Z" fill="#F7A491"/>
<path d="M235.563 520.891L232.29 520.693C232.29 520.693 232.29 521.913 233.741 522.045C235.495 522.21 235.563 520.891 235.563 520.891Z" fill="white"/>
<path d="M241.267 511.556C241.267 511.556 238.871 510.302 237.116 510.467C235.328 510.632 229.557 514.756 228.714 514.063C227.87 513.37 228.95 509.742 229.625 509.214C230.3 508.686 232.965 507.103 233.202 507.07C233.438 507.037 235.868 507.069 236.272 507.201C236.677 507.3 239.714 508.719 239.714 508.719L241.267 511.556Z" fill="#13375B"/>
<path d="M206.644 568.493C206.678 568.361 206.813 568.361 206.948 568.328C208.163 568.262 209.378 568.163 210.592 567.965C210.795 567.932 210.997 567.866 211.166 567.8C211.504 567.668 211.841 567.635 212.178 567.734C212.381 567.767 212.55 567.767 212.752 567.767C213.359 567.734 215.114 567.108 215.992 566.943C216.194 566.91 216.363 566.745 216.397 566.547C217.173 563.083 218.826 555.364 218.995 552.824C219.197 549.591 221.02 534.945 221.02 534.945L227.161 536.429C227.161 536.429 225.001 547.249 224.462 552.494C224.057 556.519 220.21 565.194 218.995 567.701C218.421 569.549 217.004 569.648 216.7 569.681C216.498 569.714 216.329 569.813 216.228 569.945C216.025 570.209 215.755 570.439 215.485 570.637C215.283 570.769 215.114 570.967 214.979 571.165C214.743 571.528 214.507 571.924 214.304 572.32C214.169 572.584 214.001 572.683 213.764 572.617C213.528 572.551 213.393 572.386 213.393 572.089C213.393 571.66 213.528 571.264 213.731 570.901C213.933 570.538 213.899 570.34 213.663 570.044C213.528 569.879 213.36 569.714 213.191 569.549C212.988 569.417 212.82 569.318 212.55 569.351C212.111 569.483 211.672 569.582 211.234 569.648L210.862 569.747L210.66 569.78C210.626 569.78 209.985 569.879 209.749 569.879C209.58 569.879 209.276 569.912 209.04 569.912C208.804 569.945 208.332 569.846 208.332 569.846C208.129 569.846 207.927 569.78 207.758 569.648C207.69 569.582 207.623 569.516 207.657 569.417C207.69 569.318 207.758 569.285 207.859 569.252C207.994 569.219 208.77 569.12 208.736 569.087C208.5 569.087 207.792 569.087 207.589 569.087C207.285 569.087 207.016 568.988 206.813 568.79C206.712 568.724 206.611 568.625 206.644 568.493Z" fill="#F7A491"/>
<path d="M216.902 543.752L225.811 547.974C225.811 547.974 227.194 541.575 228.241 537.616C229.152 534.218 224.697 528.148 223.213 528.973C219.939 530.82 216.902 543.752 216.902 543.752Z" fill="#5184CE"/>
<path d="M277.171 532.47L356.471 535.769C356.471 535.769 349.554 558.399 349.385 559.52C349.216 560.642 323.199 574.53 316.653 574.365C310.106 574.2 294.854 568.856 291.58 567.899C288.307 566.943 279.77 560.444 280.276 556.453C280.816 552.461 277.171 532.47 277.171 532.47Z" fill="#F7CC7F"/>
<path d="M299.981 543.951H278.688C278.148 543.951 277.743 543.522 277.743 543.028V541.246C277.743 540.718 278.182 540.323 278.688 540.323H299.981C300.521 540.323 300.926 540.751 300.926 541.246V543.028C300.96 543.522 300.521 543.951 299.981 543.951Z" fill="#EAB054"/>
<path d="M309.193 500.77L319.924 505.091L319.317 502.914L315.301 500.77C315.301 500.77 312.028 500.143 311.69 499.978C311.421 499.813 309.193 500.77 309.193 500.77Z" fill="#F7CC7F"/>
<path opacity="0.6" d="M360.419 528.413L276.53 521.386V526.862C276.53 529.963 278.959 532.536 282.064 532.635L356.37 535.571C358.091 535.637 359.744 534.878 360.723 533.46C361.566 532.272 361.938 530.59 360.419 528.413Z" fill="#C5DDF9"/>
<path opacity="0.7" d="M276.53 521.386V520.627L360.115 528.016L360.419 528.412L276.53 521.386Z" fill="#C5DDF9"/>
<path opacity="0.2" d="M295.865 533.196L303.492 533.526L309.768 524.191L302.344 523.564L295.865 533.196Z" fill="white"/>
<path opacity="0.2" d="M309.43 533.757L315.538 524.652L312.703 524.421L306.528 533.625L309.43 533.757Z" fill="white"/>
<path d="M162.911 532.767L258.712 533.691L259.556 563.38C259.556 563.38 248.353 579.28 247.003 579.115C245.653 578.95 217.038 574.464 214.473 574.629C211.908 574.794 189.468 564.04 188.422 564.237C187.376 564.468 180.357 560.774 180.357 560.774L168.951 552.923L157.647 541.542L162.911 532.767Z" fill="#F7CC7F"/>
<path d="M182.313 542.102H161.021C160.481 542.102 160.076 541.673 160.076 541.179V539.397C160.076 538.87 160.514 538.474 161.021 538.474H182.313C182.853 538.474 183.258 538.902 183.258 539.397V541.179C183.258 541.706 182.82 542.102 182.313 542.102Z" fill="#EAB054"/>
<path d="M196.486 511.226L193.179 511.853C193.179 511.853 193.483 513.073 194.968 512.842C196.722 512.545 196.486 511.226 196.486 511.226Z" fill="white"/>
<path d="M186.194 508.125C186.194 508.125 193.686 504.76 194.428 499.515C195.171 494.27 188.287 499.284 188.287 499.284L185.486 501.89L186.194 508.125Z" fill="#1A1A1A"/>
<path d="M279.262 531.811C279.262 531.811 280.646 532.734 282.4 532.701C282.4 532.701 280.072 533.394 280.005 533.361C279.937 533.295 278.756 532.372 278.79 532.372C278.79 532.306 279.262 531.811 279.262 531.811Z" fill="#F7CC7F"/>
<path d="M286.483 497.899L295.864 498.492C295.864 498.492 294.345 496.018 293.671 496.018C292.996 496.018 288.744 496.018 288.744 496.018L286.483 497.899Z" fill="#F7CC7F"/>
<path d="M612.675 633.618H2.32476C1.04002 633.618 0 632.601 0 631.345C0 630.089 1.04002 629.073 2.32476 629.073H612.675C613.96 629.073 615 630.089 615 631.345C614.98 632.601 613.96 633.618 612.675 633.618Z" fill="#183658"/>
<path d="M515.01 589.2C515.01 357.275 138.262 453.546 138.262 186.776" stroke="#75BF7A" stroke-width="4.04932" stroke-linecap="round" stroke-linejoin="round" stroke-dasharray="12.15 12.15"/>
<path d="M526.005 340.968C532.617 340.976 538.956 343.547 543.632 348.117C548.307 352.688 550.937 358.885 550.945 365.348C550.953 370.63 549.188 375.769 545.921 379.976C545.921 379.976 545.24 380.852 545.129 380.978L526.005 403.026L506.872 380.967C506.773 380.849 506.09 379.976 506.09 379.976L506.088 379.969C502.823 375.764 501.058 370.628 501.066 365.348C501.074 358.885 503.704 352.688 508.379 348.117C513.055 343.547 519.394 340.976 526.005 340.968ZM526.005 374.214C527.799 374.214 529.552 373.694 531.044 372.72C532.535 371.745 533.698 370.361 534.384 368.741C535.07 367.121 535.25 365.338 534.9 363.619C534.55 361.899 533.686 360.319 532.418 359.079C531.15 357.84 529.534 356.995 527.775 356.653C526.016 356.311 524.192 356.487 522.535 357.158C520.878 357.829 519.461 358.965 518.465 360.423C517.469 361.881 516.937 363.595 516.937 365.348C516.94 367.699 517.896 369.952 519.596 371.614C521.296 373.276 523.601 374.211 526.005 374.214Z" fill="#75BF7A"/>
<path d="M139.621 0.229736C146.233 0.237362 152.572 2.8084 157.247 7.37887C161.923 11.9493 164.553 18.146 164.561 24.6097C164.568 29.8917 162.803 35.0305 159.536 39.2376C159.536 39.2376 158.856 40.1131 158.745 40.2394L139.621 62.2877L120.488 40.2283C120.388 40.1109 119.706 39.2376 119.706 39.2376L119.704 39.231C116.438 35.0257 114.674 29.8893 114.682 24.6097C114.69 18.146 117.32 11.9493 121.995 7.37887C126.67 2.8084 133.009 0.237362 139.621 0.229736ZM139.621 33.4751C141.415 33.4751 143.168 32.9551 144.66 31.981C146.151 31.0069 147.313 29.6223 148 28.0023C148.686 26.3824 148.866 24.5998 148.516 22.8801C148.166 21.1604 147.302 19.5807 146.034 18.3409C144.766 17.101 143.15 16.2567 141.39 15.9146C139.631 15.5725 137.808 15.7481 136.151 16.4191C134.494 17.0901 133.077 18.2264 132.081 19.6843C131.084 21.1422 130.552 22.8562 130.552 24.6097C130.555 26.96 131.512 29.2133 133.212 30.8752C134.912 32.5372 137.217 33.4722 139.621 33.4751Z" fill="#75BF7A"/>
</svg>
