<svg width="132" height="38" viewBox="0 0 132 38" fill="none" xmlns="http://www.w3.org/2000/svg">
<path d="M54.8181 14.2009H50.4963V36H45.5571V14.2009H41.9951V9.68914H45.5571V0.85553H50.4963V9.68914H54.8181V14.2009ZM83.7099 22.5121C83.7099 23.3353 83.6624 24.1585 83.5674 24.9817H61.7684C62.275 27.0714 63.304 28.797 64.8554 30.1584C66.4385 31.4882 68.2907 32.1531 70.412 32.1531C71.9634 32.1531 73.4199 31.7573 74.7813 30.9658C76.1744 30.1742 77.2193 29.0978 77.9158 27.7363H82.855C81.8419 30.4275 80.1955 32.5964 77.9158 34.2428C75.6362 35.8575 73.0716 36.6649 70.222 36.6649C66.5176 36.6649 63.3514 35.2876 60.7235 32.533C58.1273 29.7785 56.8291 26.5332 56.8291 22.7971C56.8291 18.966 58.1273 15.7049 60.7235 13.0136C63.3198 10.3224 66.5176 8.97675 70.317 8.97675C74.0214 8.97675 77.1718 10.3065 79.768 12.9661C82.396 15.6257 83.7099 18.8077 83.7099 22.5121ZM78.7707 21.1823C78.644 19.0293 77.7259 17.2088 76.0161 15.7207C74.3381 14.2326 72.4225 13.4885 70.2695 13.4885C68.1165 13.4885 66.1852 14.2326 64.4754 15.7207C62.7974 17.2088 61.895 19.0293 61.7684 21.1823H78.7707ZM100.028 14.0585C98.7936 14.0585 97.6063 14.3751 96.4665 15.0083C94.5351 15.9898 93.5694 18.1903 93.5694 21.6098V36H88.6302V9.68914H93.237V12.0638H93.332C94.7251 10.1007 96.9572 9.07174 100.028 8.97675V14.0585ZM129.023 22.5121C129.023 23.3353 128.975 24.1585 128.88 24.9817H107.081C107.588 27.0714 108.617 28.797 110.168 30.1584C111.751 31.4882 113.603 32.1531 115.725 32.1531C117.276 32.1531 118.733 31.7573 120.094 30.9658C121.487 30.1742 122.532 29.0978 123.229 27.7363H128.168C127.155 30.4275 125.508 32.5964 123.229 34.2428C120.949 35.8575 118.384 36.6649 115.535 36.6649C111.83 36.6649 108.664 35.2876 106.036 32.533C103.44 29.7785 102.142 26.5332 102.142 22.7971C102.142 18.966 103.44 15.7049 106.036 13.0136C108.632 10.3224 111.83 8.97675 115.63 8.97675C119.334 8.97675 122.484 10.3065 125.081 12.9661C127.709 15.6257 129.023 18.8077 129.023 22.5121ZM124.083 21.1823C123.957 19.0293 123.039 17.2088 121.329 15.7207C119.651 14.2326 117.735 13.4885 115.582 13.4885C113.429 13.4885 111.498 14.2326 109.788 15.7207C108.11 17.2088 107.208 19.0293 107.081 21.1823H124.083Z" fill="black"/>
<path d="M1.7876 11.8584L5.19287 15.2822L5.2583 15.3477L5.23486 15.4365C4.95028 16.5215 4.80715 17.6608 4.80713 18.8369C4.80713 26.3521 10.9162 32.4609 18.4497 32.4609C25.9649 32.4608 32.0737 26.3521 32.0737 18.8369C32.0737 17.6792 31.9306 16.5579 31.646 15.4727L31.6226 15.3828L31.688 15.3184L35.0933 11.8945L35.2642 11.7227L35.3569 11.9463C36.2298 14.0739 36.7016 16.4014 36.7017 18.8369C36.7017 28.9086 28.5029 37.1074 18.4312 37.1074C8.35955 37.1073 0.160645 28.9085 0.160645 18.8369C0.160676 16.3826 0.651599 14.0556 1.52393 11.9111L1.61572 11.6855L1.7876 11.8584ZM18.4312 0.566406C24.4489 0.566406 29.7941 3.49363 33.1206 7.9834L33.2026 8.09473L33.105 8.19336L29.8667 11.4316L29.7583 11.2686C27.7567 8.28336 24.6018 6.11747 20.9263 5.43457L20.5688 5.37305C19.8746 5.26627 19.1619 5.21289 18.4312 5.21289C17.7004 5.2129 16.9877 5.26527 16.2935 5.37207L16.2944 5.37305C12.4839 5.97847 9.18862 8.16887 7.12256 11.25L7.01318 11.4131L6.87549 11.2744L3.77588 8.17578L3.67725 8.07715L3.76025 7.96582C7.08684 3.47583 12.4317 0.566483 18.4312 0.566406Z" fill="black" stroke="black" stroke-width="0.321949"/>
<path d="M20.7603 19.4277H16.1138L16.1138 2.3291L20.7603 2.3291L20.7603 19.4277Z" fill="black" stroke="black" stroke-width="0.321949"/>
</svg>
