<svg width="176" height="59" viewBox="0 0 176 59" fill="none" xmlns="http://www.w3.org/2000/svg">
<path d="M69.5397 55.7831C66.2768 55.7831 63.6883 54.7172 61.7741 52.5855C59.9034 50.4103 58.9681 47.3214 58.9681 43.319V27.3963H53.095V22.3063H59.0986L60.3385 11.6042H64.8412V22.3063H74.2382V27.3963H64.8412V43.7758C64.8412 46.2991 65.3633 48.061 66.4074 49.0616C67.495 50.0622 68.7784 50.5625 70.2575 50.5625C71.3451 50.5625 72.3675 50.3885 73.3246 50.0405C74.3252 49.6924 75.2388 49.2791 76.0654 48.8006L77.6968 53.4991C76.8267 54.0211 75.6521 54.5214 74.1729 55C72.6938 55.5221 71.1494 55.7831 69.5397 55.7831ZM95.8989 55.7831C91.0264 55.7831 87.1545 54.2387 84.2832 51.1498C81.4554 48.0175 80.0415 43.6453 80.0415 38.0332C80.0415 34.6398 80.6723 31.6163 81.9339 28.9625C83.2391 26.2652 85.0445 24.1552 87.3502 22.6326C89.656 21.0664 92.3315 20.2833 95.3768 20.2833C98.6397 20.2833 101.337 21.0012 103.469 22.4368C105.644 23.829 107.275 25.7214 108.363 28.1142C109.451 30.5069 109.994 33.1389 109.994 36.0102C109.994 37.5329 109.929 39.0121 109.799 40.4477H86.0451C86.4366 43.6235 87.546 46.1033 89.3732 47.887C91.2004 49.6707 93.6149 50.5625 96.6167 50.5625C98.5744 50.5625 100.336 50.3668 101.903 49.9752C103.469 49.5402 104.97 48.9964 106.405 48.3438L107.776 53.3686C106.209 54.0647 104.448 54.6302 102.49 55.0653C100.532 55.5438 98.3352 55.7831 95.8989 55.7831ZM85.9798 35.684H104.578C104.578 32.3776 103.751 29.8326 102.098 28.0489C100.445 26.2652 98.1611 25.3734 95.2463 25.3734C92.7231 25.3734 90.6348 26.2652 88.9817 28.0489C87.3285 29.7891 86.3279 32.3341 85.9798 35.684ZM117.822 55V21.0664H123.499V28.4404C124.065 27.0048 124.826 25.6779 125.783 24.4598C126.74 23.1981 127.936 22.1975 129.372 21.458C130.808 20.6749 132.483 20.2833 134.397 20.2833C135.049 20.2833 135.702 20.3268 136.355 20.4138C137.007 20.4573 137.551 20.5444 137.986 20.6749L136.224 26.7438C135.398 26.3957 134.419 26.2217 133.288 26.2217C131.678 26.2217 130.133 26.6785 128.654 27.5921C127.219 28.5057 126.022 29.9196 125.065 31.8338C124.152 33.748 123.695 36.1843 123.695 39.1426V55H117.822ZM155.484 55.7831C150.612 55.7831 146.74 54.2387 143.868 51.1498C141.041 48.0175 139.627 43.6453 139.627 38.0332C139.627 34.6398 140.257 31.6163 141.519 28.9625C142.824 26.2652 144.63 24.1552 146.935 22.6326C149.241 21.0664 151.917 20.2833 154.962 20.2833C158.225 20.2833 160.922 21.0012 163.054 22.4368C165.229 23.829 166.861 25.7214 167.948 28.1142C169.036 30.5069 169.58 33.1389 169.58 36.0102C169.58 37.5329 169.514 39.0121 169.384 40.4477H145.63C146.022 43.6235 147.131 46.1033 148.958 47.887C150.786 49.6707 153.2 50.5625 156.202 50.5625C158.16 50.5625 159.922 50.3668 161.488 49.9752C163.054 49.5402 164.555 48.9964 165.99 48.3438L167.361 53.3686C165.795 54.0647 164.033 54.6302 162.075 55.0653C160.117 55.5438 157.92 55.7831 155.484 55.7831ZM145.565 35.684H164.163C164.163 32.3776 163.337 29.8326 161.683 28.0489C160.03 26.2652 157.746 25.3734 154.831 25.3734C152.308 25.3734 150.22 26.2652 148.567 28.0489C146.914 29.7891 145.913 32.3341 145.565 35.684Z" fill="#75BF7A"/>
<path d="M2.35254 25.0366L6.77246 29.48L6.86133 29.5698L6.8291 29.6919C6.46003 31.099 6.27539 32.5767 6.27539 34.1021C6.27539 43.8474 14.1967 51.769 23.9658 51.769C33.7113 51.769 41.6328 43.8475 41.6328 34.1021C41.6328 32.6005 41.4483 31.1462 41.0791 29.7388L41.0469 29.6167L41.1357 29.5269L45.5557 25.0835L45.79 24.8472L45.917 25.1558C47.0503 27.9182 47.6631 30.9399 47.6631 34.1021C47.6631 47.1784 37.0188 57.8228 23.9424 57.8228C10.866 57.8228 0.22168 47.1784 0.22168 34.1021C0.22168 30.9154 0.85861 27.8942 1.99121 25.1099L2.11719 24.8003L2.35254 25.0366ZM23.9424 10.3813C31.7554 10.3813 38.6948 14.1812 43.0137 20.0103L43.127 20.1636L42.9922 20.2983L38.9707 24.3208L38.7803 24.5112L38.6299 24.2876C35.9504 20.2916 31.6781 17.4281 26.7139 16.6431V16.6421C25.8138 16.5037 24.8899 16.4351 23.9424 16.4351C22.9945 16.4351 22.0703 16.5036 21.1699 16.6421L21.1709 16.6431C16.2296 17.4282 11.9575 20.2686 9.27832 24.2642L9.12793 24.4878L8.9375 24.2974L4.91602 20.2749L4.78125 20.1401L4.89453 19.9868C9.21359 14.1575 16.1531 10.3813 23.9424 10.3813Z" fill="#75BF7A" stroke="#75BF7A" stroke-width="0.442372"/>
<path d="M26.6631 35.3918H21.2217L21.2217 12.5178H26.6631L26.6631 35.3918Z" fill="#75BF7A" stroke="#75BF7A" stroke-width="0.442372"/>
</svg>
