<svg width="250" height="226" viewBox="0 0 250 226" fill="none" xmlns="http://www.w3.org/2000/svg">
<g clip-path="url(#clip0_41_72921)">
<path d="M250 218.791C250 222.771 194.015 225.999 125 225.999C55.9848 225.999 0 222.771 0 218.791C0 214.812 55.9848 211.583 125 211.583C194.015 211.583 250 214.812 250 218.791Z" fill="#75BF7A"/>
<path d="M122.197 40.4695H96.5151H70.9091C-50.3031 154.596 33.106 218.792 96.5909 218.792C160 218.792 243.409 154.596 122.197 40.4695Z" fill="#E9E2D0"/>
<path d="M96.515 218.792C57.8029 218.792 11.7423 194.915 9.09079 150.466C7.42412 122.01 23.5605 85.0688 70.8332 40.4695H122.121C243.409 154.596 160 218.792 96.515 218.792Z" fill="#E9E2D0"/>
<path d="M29.7725 152.644C23.0301 152.644 16.0604 151.893 9.16647 150.466C7.4998 122.01 23.6362 85.0688 70.9089 40.4695H107.273C141.818 112.925 79.621 152.644 29.7725 152.644Z" fill="#F2EADA"/>
<path d="M96.515 218.792C69.0908 218.792 37.8787 206.778 21.1362 183.878C38.1059 196.342 60.3029 202.874 80.4544 202.874C140.909 202.874 219.394 144.61 122.045 40.4695H122.197C243.409 154.596 160 218.792 96.515 218.792Z" fill="#D8CEB6"/>
<path d="M66.6668 40.4698L54.394 0.525648C63.4092 -2.70292 69.6213 9.91103 77.9546 9.31037C86.288 8.7097 84.2425 3.07847 89.9243 1.65189C99.9243 -0.90093 102.349 11.9383 111.212 9.91103C116.061 8.85987 119.697 -1.57668 138.712 2.32764L126.743 40.4698H66.6668Z" fill="#E9E2D0"/>
<path d="M111.061 49.5552C122.424 69.6024 128.333 94.4549 126.515 121.41C126.364 123.287 128.258 124.113 130.758 123.137C133.258 122.161 135.303 119.758 135.303 117.806C135.758 90.7008 128.561 65.9233 116.212 46.2516C115.303 44.9001 113.485 44.5247 112.121 45.4257C110.758 46.3267 110.303 48.1287 111.061 49.5552Z" fill="#FFBE2E"/>
<path d="M127.348 69.0765C120.985 59.2406 113.712 52.7834 113.712 52.7834C117.197 55.1861 121.439 58.715 124.773 62.9197C124.924 63.1449 125.076 63.3702 125.227 63.5954C125.909 65.3223 126.666 67.1994 127.348 69.0765Z" fill="#E5A320"/>
<path d="M107.879 49.1046C118.485 55.4867 130 62.094 137.879 92.4275C138.333 94.3046 140.455 94.4548 142.424 92.6528C144.394 90.9259 145.682 87.8475 144.924 86.1205C132.424 57.8142 121.743 52.1079 111.591 44.2993C110.303 43.3232 108.409 43.6235 107.424 44.8999C106.439 46.1764 106.591 47.9784 107.879 49.1046Z" fill="#FFBE2E"/>
<path d="M112.576 52.1831H121.818L122.424 52.7087H112.803L112.576 52.1831Z" fill="#E5A320"/>
<path d="M130 41.5206C129.47 40.8449 128.637 40.4695 127.727 40.4695H96.5153H65.3032C64.4698 40.4695 63.6365 40.8449 63.0305 41.5206C61.4395 43.3977 62.8032 46.326 65.3032 46.326H96.5153H127.727C130.227 46.326 131.591 43.4728 130 41.5206Z" fill="#FFBE2E"/>
<path d="M130.758 52.1827H62.2728C59.7728 52.1827 58.4092 49.2544 60.0758 47.3773C60.6061 46.7016 61.4395 46.3262 62.2728 46.3262H130.758C131.591 46.3262 132.424 46.7016 132.955 47.3773C134.697 49.2544 133.333 52.1827 130.758 52.1827Z" fill="#FFBE2E"/>
<path d="M127.727 46.3262C127.727 46.3262 112.121 47.4524 96.5153 47.4524C80.1517 47.4524 65.3032 46.3262 65.3032 46.3262H127.727Z" fill="#E5A320"/>
<path d="M115.076 128.016C110.909 125.163 106.363 122.836 101.288 121.034V104.29C103.485 104.816 105.454 105.792 107.197 107.218C108.939 108.645 110.606 110.146 112.197 111.648L121.06 103.014C119.394 101.437 117.803 100.085 116.363 98.884C114.924 97.6827 113.485 96.7066 111.97 95.8807C110.454 95.0548 108.863 94.379 107.121 93.8534C105.454 93.4029 103.409 92.9525 101.212 92.7272V85.9697H92.1211V92.8023C89.6211 93.1026 87.1211 93.7784 84.6968 94.7544C82.2726 95.7305 80.1514 97.0069 78.2574 98.5086C76.3635 100.085 74.8483 101.962 73.712 104.215C72.5756 106.392 71.9695 108.945 71.9695 111.723C71.9695 117.43 74.015 121.784 78.0301 124.788C81.212 127.19 85.9847 129.668 92.1968 132.071V150.616C89.5453 149.94 87.3483 148.814 85.5301 147.313C83.712 145.811 82.1211 143.934 80.7574 141.606L70.9089 149.94C73.712 153.695 76.818 156.548 80.2271 158.425C83.5605 160.377 87.5756 161.578 92.1211 162.104V173.441H101.212V162.104C107.197 161.503 111.894 159.927 115.379 157.224C119.545 153.92 121.818 149.265 122.045 143.108C122.045 142.733 122.045 142.357 122.045 141.982C122.121 135.975 119.773 131.32 115.076 128.016ZM101.288 135.525C103.106 136.426 104.545 137.176 105.606 137.852C108.182 139.279 109.47 141.156 109.47 143.333C109.47 144.61 109.242 145.661 108.788 146.487C108.333 147.313 107.727 148.063 106.97 148.664C106.212 149.265 105.303 149.715 104.318 150.091C103.333 150.466 102.273 150.691 101.288 150.917V135.525ZM89.7726 116.453C88.8635 116.003 88.1059 115.552 87.3483 114.952C86.5908 114.351 85.9847 113.75 85.5301 113C84.9998 112.249 84.7726 111.423 84.7726 110.447C84.7726 109.471 84.9998 108.57 85.4544 107.819C85.9089 107.068 86.515 106.467 87.1968 105.942C87.8786 105.416 88.712 104.966 89.5453 104.74C90.4544 104.44 91.2877 104.215 92.1968 104.065V117.655C91.4392 117.279 90.6059 116.904 89.7726 116.453Z" fill="#263238"/>
<path opacity="0.15" d="M98.1818 220.519C88.4848 220.519 78.4091 219.017 68.5606 216.089C66.1364 215.338 63.7121 214.512 61.2879 213.611C61.2879 213.611 61.2879 213.611 61.2121 213.611C60.6061 213.386 60.0757 213.161 59.4697 212.935H59.3939C57.6515 212.184 55.9091 211.434 54.1667 210.683C54.1667 210.683 54.1667 210.683 54.0909 210.683C53.5606 210.458 53.0303 210.157 52.5 209.932C52.4242 209.932 52.3485 209.857 52.3485 209.857C51.8182 209.632 51.2879 209.331 50.8333 209.106C50.8333 209.106 50.7576 209.106 50.7576 209.031V206.778L51.2879 205.953L50.7576 204.976V191.912L51.2879 191.086L50.7576 190.26V177.196L51.2879 176.37L50.7576 175.544V162.479L51.2879 161.654L50.7576 160.828V147.763L52.3485 145.285H101.667L103.258 147.763V160.002H121.439V143.784H134.47V122.085H118.182V93.7034H167.727C218.485 175.394 151.364 220.519 98.1818 220.519Z" fill="#231F20"/>
<path d="M224.697 93.7788H118.182V118.781H224.697V93.7788Z" fill="#75BF7A"/>
<path d="M186.212 93.7788H156.591V118.781H186.212V93.7788Z" fill="white"/>
<path d="M186.288 93.7788H182.878V118.781H186.288V93.7788Z" fill="#F3F9A2"/>
<path d="M160 93.7788H156.591V118.781H160V93.7788Z" fill="#F3F9A2"/>
<path d="M240.985 118.781H134.47V143.784H240.985V118.781Z" fill="#75BF7A"/>
<path d="M202.576 118.781H172.955V143.784H202.576V118.781Z" fill="white"/>
<path d="M202.576 118.781H199.167V143.784H202.576V118.781Z" fill="#F3F9A2"/>
<path d="M176.364 118.781H172.955V143.784H176.364V118.781Z" fill="#F3F9A2"/>
<path opacity="0.25" d="M134.498 121.42L241.013 121.42V118.717L134.498 118.717V121.42Z" fill="#231F20"/>
<path d="M228.03 143.784H121.515V168.787H228.03V143.784Z" fill="#75BF7A"/>
<path d="M189.545 143.784H159.924V168.787H189.545V143.784Z" fill="white"/>
<path d="M189.545 143.784H186.136V168.787H189.545V143.784Z" fill="#F3F9A2"/>
<path d="M163.333 143.784H159.924V168.787H163.333V143.784Z" fill="#F3F9A2"/>
<path opacity="0.25" d="M121.426 146.45H227.941V143.747H121.426V146.45Z" fill="#231F20"/>
<path d="M240.985 168.786H134.47V193.789H240.985V168.786Z" fill="#75BF7A"/>
<path d="M202.576 168.786H172.955V193.789H202.576V168.786Z" fill="white"/>
<path d="M202.576 168.786H199.167V193.789H202.576V168.786Z" fill="#F3F9A2"/>
<path d="M176.364 168.786H172.955V193.789H176.364V168.786Z" fill="#F3F9A2"/>
<path opacity="0.25" d="M134.505 171.48H241.021V168.777H134.505V171.48Z" fill="#231F20"/>
<path d="M237.803 193.789H131.288V218.792H237.803V193.789Z" fill="#75BF7A"/>
<path d="M199.318 193.789H169.696V218.792H199.318V193.789Z" fill="white"/>
<path d="M199.393 193.789H195.984V218.792H199.393V193.789Z" fill="#F3F9A2"/>
<path d="M173.105 193.789H169.696V218.792H173.105V193.789Z" fill="#F3F9A2"/>
<path opacity="0.25" d="M131.295 196.509H237.811V193.806H131.295V196.509Z" fill="#231F20"/>
<path opacity="0.15" d="M136.742 161.579C136.667 161.579 136.515 161.579 136.439 161.579V161.054L134.394 157.9H121.515V218.792H134.394L134.47 218.717C135.227 218.792 136.061 218.792 136.818 218.792C153.182 218.792 166.439 205.953 166.439 190.186C166.439 174.418 153.106 161.579 136.742 161.579Z" fill="#231F20"/>
<path d="M134.015 161.353H84.8481V173.441H134.015V161.353Z" fill="#FFB229"/>
<path d="M133.181 160.001H85.6815L84.8481 161.353H134.015L133.181 160.001Z" fill="#FFC550"/>
<path d="M85.6815 174.717H133.181L134.015 173.441H84.8481L85.6815 174.717Z" fill="#EA9A0C"/>
<path d="M103.56 161.353H99.7725V173.441H103.56V161.353Z" fill="#FFD694"/>
<path d="M105.833 161.353H104.469V173.441H105.833V161.353Z" fill="#FFD694"/>
<path opacity="0.05" d="M123.409 174.717V160.001H133.181L134.015 161.353V173.441L133.181 174.717H123.409Z" fill="#231F20"/>
<path opacity="0.1" d="M95.53 160.001V174.717H85.6815L84.8481 173.441V161.353L85.6815 160.001H95.53Z" fill="white"/>
<path d="M134.015 175.994H84.8481V188.083H134.015V175.994Z" fill="#FFB229"/>
<path d="M133.181 174.718H85.6815L84.8481 175.995H134.015L133.181 174.718Z" fill="#FFC550"/>
<path d="M85.6815 189.434H133.181L134.015 188.158H84.8481L85.6815 189.434Z" fill="#EA9A0C"/>
<path d="M103.56 175.994H99.772V188.083H103.56V175.994Z" fill="#FFD694"/>
<path d="M105.833 175.994H104.469V188.083H105.833V175.994Z" fill="#FFD694"/>
<path opacity="0.05" d="M123.409 189.435V174.718H133.181L134.015 175.995V188.158L133.181 189.435H123.409Z" fill="#231F20"/>
<path opacity="0.1" d="M95.53 174.718V189.435H85.6815L84.8481 188.158V175.995L85.6815 174.718H95.53Z" fill="white"/>
<path d="M134.015 190.711H84.8481V202.799H134.015V190.711Z" fill="#FFB229"/>
<path d="M133.181 189.435H85.6815L84.8481 190.711H134.015L133.181 189.435Z" fill="#FFC550"/>
<path d="M85.6815 204.151H133.181L134.015 202.799H84.8481L85.6815 204.151Z" fill="#EA9A0C"/>
<path d="M103.56 190.711H99.772V202.799H103.56V190.711Z" fill="#FFD694"/>
<path d="M105.833 190.711H104.469V202.799H105.833V190.711Z" fill="#FFD694"/>
<path opacity="0.05" d="M123.409 204.151V189.435H133.181L134.015 190.711V202.8L133.181 204.151H123.409Z" fill="#231F20"/>
<path opacity="0.1" d="M95.53 189.435V204.151H85.6815L84.8481 202.799V190.711L85.6815 189.435H95.53Z" fill="white"/>
<path d="M134.015 205.427H84.8481V217.515H134.015V205.427Z" fill="#FFB229"/>
<path d="M133.181 204.15H85.6815L84.8481 205.427H134.015L133.181 204.15Z" fill="#FFC550"/>
<path d="M85.6815 218.791H133.181L134.015 217.514H84.8481L85.6815 218.791Z" fill="#EA9A0C"/>
<path d="M103.56 205.427H99.772V217.515H103.56V205.427Z" fill="#FFD694"/>
<path d="M105.833 205.427H104.469V217.515H105.833V205.427Z" fill="#FFD694"/>
<path opacity="0.05" d="M123.409 218.791V204.15H133.181L134.015 205.426V217.515L133.181 218.791H123.409Z" fill="#231F20"/>
<path opacity="0.1" d="M95.53 204.15V218.791H85.6815L84.8481 217.515V205.427L85.6815 204.15H95.53Z" fill="white"/>
<path d="M99.9242 146.637H50.7576V158.726H99.9242V146.637Z" fill="#FFB229"/>
<path d="M99.0909 145.361H51.5909L50.7576 146.637H99.9242L99.0909 145.361Z" fill="#FFC550"/>
<path d="M51.5909 160.002H99.0909L99.9242 158.726H50.7576L51.5909 160.002Z" fill="#EA9A0C"/>
<path d="M69.4698 146.637H65.6819V158.726H69.4698V146.637Z" fill="#FFD694"/>
<path d="M71.7425 146.637H70.3789V158.726H71.7425V146.637Z" fill="#FFD694"/>
<path opacity="0.05" d="M89.3184 160.002V145.361H99.0911L99.9244 146.637V158.726L99.0911 160.002H89.3184Z" fill="#231F20"/>
<path opacity="0.1" d="M61.4394 145.361V160.002H51.5909L50.7576 158.726V146.637L51.5909 145.361H61.4394Z" fill="white"/>
<path d="M99.9242 161.353H50.7576V173.441H99.9242V161.353Z" fill="#FFB229"/>
<path d="M99.0909 160.001H51.5909L50.7576 161.353H99.9242L99.0909 160.001Z" fill="#FFC550"/>
<path d="M51.5909 174.717H99.0909L99.9242 173.441H50.7576L51.5909 174.717Z" fill="#EA9A0C"/>
<path d="M69.4698 161.353H65.6819V173.441H69.4698V161.353Z" fill="#FFD694"/>
<path d="M71.7425 161.353H70.3789V173.441H71.7425V161.353Z" fill="#FFD694"/>
<path opacity="0.05" d="M89.3179 174.717V160.001H99.0906L99.9239 161.353V173.441L99.0906 174.717H89.3179Z" fill="#231F20"/>
<path opacity="0.1" d="M61.4394 160.001V174.717H51.5909L50.7576 173.441V161.353L51.5909 160.001H61.4394Z" fill="white"/>
<path d="M99.9242 175.995H50.7576V188.083H99.9242V175.995Z" fill="#FFB229"/>
<path d="M99.0909 174.719H51.5909L50.7576 175.995H99.9242L99.0909 174.719Z" fill="#FFC550"/>
<path d="M51.5909 189.435H99.0909L99.9242 188.159H50.7576L51.5909 189.435Z" fill="#EA9A0C"/>
<path d="M69.4698 175.995H65.6819V188.083H69.4698V175.995Z" fill="#FFD694"/>
<path d="M71.7425 175.995H70.3789V188.083H71.7425V175.995Z" fill="#FFD694"/>
<path opacity="0.05" d="M89.3184 189.435V174.719H99.0911L99.9244 175.995V188.159L99.0911 189.435H89.3184Z" fill="#231F20"/>
<path opacity="0.1" d="M61.4394 174.719V189.435H51.5909L50.7576 188.159V175.995L51.5909 174.719H61.4394Z" fill="white"/>
<path d="M99.9242 190.711H50.7576V202.8H99.9242V190.711Z" fill="#FFB229"/>
<path d="M99.0909 189.435H51.5909L50.7576 190.712H99.9242L99.0909 189.435Z" fill="#FFC550"/>
<path d="M51.5909 204.151H99.0909L99.9242 202.8H50.7576L51.5909 204.151Z" fill="#EA9A0C"/>
<path d="M69.4698 190.711H65.6819V202.8H69.4698V190.711Z" fill="#FFD694"/>
<path d="M71.7425 190.711H70.3789V202.8H71.7425V190.711Z" fill="#FFD694"/>
<path opacity="0.05" d="M89.3184 204.151V189.435H99.0911L99.9244 190.711V202.8L99.0911 204.151H89.3184Z" fill="#231F20"/>
<path opacity="0.1" d="M61.4394 189.435V204.152H51.5909L50.7576 202.8V190.712L51.5909 189.435H61.4394Z" fill="white"/>
<path d="M99.9242 205.427H50.7576V217.516H99.9242V205.427Z" fill="#FFB229"/>
<path d="M99.0909 204.151H51.5909L50.7576 205.427H99.9242L99.0909 204.151Z" fill="#FFC550"/>
<path d="M51.5909 218.792H99.0909L99.9242 217.515H50.7576L51.5909 218.792Z" fill="#EA9A0C"/>
<path d="M69.4698 205.427H65.6819V217.516H69.4698V205.427Z" fill="#FFD694"/>
<path d="M71.7425 205.427H70.3789V217.516H71.7425V205.427Z" fill="#FFD694"/>
<path opacity="0.05" d="M89.3184 218.792V204.151H99.0911L99.9244 205.427V217.516L99.0911 218.792H89.3184Z" fill="#231F20"/>
<path opacity="0.1" d="M61.4394 204.151V218.792H51.5909L50.7576 217.516V205.427L51.5909 204.151H61.4394Z" fill="white"/>
<path opacity="0.25" d="M99.9241 218.793V161.354L99.0908 160.003H102.197V218.793H99.9241Z" fill="#231F20"/>
<path opacity="0.1" d="M121.288 218.792H132.348V163.906C118.03 166.234 107.045 178.548 107.045 193.414C107.121 204.151 112.803 213.536 121.288 218.792Z" fill="#231F20"/>
<path d="M147.654 216.871C161.854 211.19 168.719 195.176 162.987 181.103C157.256 167.029 141.098 160.225 126.898 165.906C112.697 171.587 105.833 187.601 111.564 201.674C117.296 215.748 133.454 222.552 147.654 216.871Z" fill="#FFB229"/>
<path d="M137.273 214.813C150.327 214.813 160.909 204.325 160.909 191.387C160.909 178.449 150.327 167.961 137.273 167.961C124.219 167.961 113.636 178.449 113.636 191.387C113.636 204.325 124.219 214.813 137.273 214.813Z" fill="#AF7000"/>
<path d="M137.273 213.912C149.825 213.912 160 203.827 160 191.387C160 178.947 149.825 168.862 137.273 168.862C124.721 168.862 114.545 178.947 114.545 191.387C114.545 203.827 124.721 213.912 137.273 213.912Z" fill="#FFBE2E"/>
<path d="M160 191.387C160 203.851 149.849 213.912 137.273 213.912C128.637 213.912 121.212 209.182 117.349 202.199C120.606 203.926 124.318 204.977 128.258 204.977C140.833 204.977 150.985 194.916 150.985 182.452C150.985 178.548 150 174.794 148.182 171.64C155.227 175.469 160 182.828 160 191.387Z" fill="#F2AB1D"/>
<path d="M143.864 190.786C142.424 189.735 140.758 188.909 139.015 188.308V182.377C139.773 182.527 140.455 182.902 141.137 183.428C141.743 183.954 142.349 184.479 142.879 185.005L145.985 181.926C145.379 181.401 144.849 180.875 144.318 180.5C143.788 180.049 143.334 179.749 142.803 179.449C142.273 179.148 141.667 178.923 141.137 178.698C140.53 178.548 139.849 178.397 139.015 178.322V175.92H135.834V178.322C134.924 178.472 134.091 178.698 133.182 178.998C132.349 179.373 131.591 179.824 130.909 180.35C130.227 180.875 129.697 181.551 129.318 182.377C128.94 183.128 128.712 184.029 128.712 185.005C128.712 187.032 129.394 188.534 130.833 189.66C131.97 190.486 133.637 191.387 135.834 192.213V198.745C134.924 198.52 134.091 198.144 133.485 197.619C132.879 197.093 132.273 196.417 131.818 195.591L128.333 198.52C129.318 199.871 130.455 200.847 131.591 201.523C132.803 202.199 134.167 202.649 135.834 202.799V206.854H139.015V202.875C141.137 202.649 142.803 202.124 144.015 201.148C145.53 200.021 146.288 198.294 146.364 196.192C146.364 196.042 146.364 195.892 146.364 195.817C146.364 193.639 145.53 191.987 143.864 190.786ZM138.94 193.489C139.546 193.789 140.076 194.09 140.455 194.315C141.364 194.841 141.818 195.441 141.818 196.267C141.818 196.718 141.743 197.093 141.591 197.393C141.44 197.694 141.212 197.919 140.909 198.144C140.606 198.37 140.303 198.52 140 198.67C139.621 198.82 139.318 198.895 138.94 198.97V193.489ZM134.924 186.732C134.621 186.581 134.318 186.431 134.091 186.206C133.864 185.981 133.637 185.756 133.409 185.53C133.258 185.23 133.106 185.005 133.106 184.629C133.106 184.254 133.182 183.954 133.334 183.728C133.485 183.428 133.712 183.203 133.94 183.053C134.167 182.827 134.47 182.752 134.773 182.602C135.076 182.527 135.379 182.452 135.682 182.377V187.182C135.455 187.032 135.227 186.882 134.924 186.732Z" fill="#D38D02"/>
</g>
<defs>
<clipPath id="clip0_41_72921">
<rect width="250" height="226" fill="white"/>
</clipPath>
</defs>
</svg>
