<svg width="300" height="226" viewBox="0 0 300 226" fill="none" xmlns="http://www.w3.org/2000/svg">
<path d="M79.6842 202.242C73.9668 190.956 63.4059 164.189 89.8765 120.538C116.347 76.8866 182.763 81.9576 209.234 99.0206C235.704 116.084 248.632 138.149 251.368 161.38C254.035 184.61 242.434 202.242 242.434 202.242H79.6842Z" fill="#75BF7A"/>
<path d="M275.102 133.284H244.596C242.681 133.284 241.176 131.776 241.176 129.858V114.576C241.176 112.657 242.681 111.15 244.596 111.15H275.102C277.018 111.15 278.522 112.657 278.522 114.576V129.858C278.522 131.776 276.949 133.284 275.102 133.284Z" fill="#75BF7A"/>
<path d="M259.85 141.987L264.637 130.474H254.993L259.85 141.987Z" fill="#75BF7A"/>
<path d="M259.712 118.482H268.468V119.716L272.708 117.249L268.468 114.782V116.084H259.712V118.482Z" fill="#263238"/>
<path d="M272.708 123.484H263.953V122.182L259.712 124.718L263.953 127.185V125.883H272.708V123.484Z" fill="white"/>
<path d="M254.309 125.746L253.899 125.883C253.899 125.883 252.599 124.376 251.915 122.799C251.231 121.155 251.231 119.236 251.231 119.236L251.505 119.099L249.658 114.645C249.316 114.919 249.042 115.262 248.769 115.673C247.743 117.454 247.811 120.127 248.905 122.799C249.931 125.472 251.094 127.802 253.146 129.309C254.377 130.2 255.403 130.337 256.224 130.2L254.309 125.746Z" fill="#263238"/>
<path d="M255.677 125.198L255.13 125.403L257.045 129.926C257.25 129.858 257.455 129.789 257.592 129.652C258.071 129.378 258.276 128.83 258.071 128.282L257.113 125.815C256.84 125.266 256.224 124.992 255.677 125.198Z" fill="#263238"/>
<path d="M251.163 113.891C250.957 113.96 250.684 114.097 250.41 114.234L252.325 118.756L252.941 118.482C253.488 118.277 253.762 117.591 253.557 117.043L252.531 114.508C252.325 113.96 251.71 113.685 251.163 113.891Z" fill="#263238"/>
<path d="M79.9588 205.854V154.801C79.9588 154.801 79.4116 141.028 86.5935 137.053C93.8439 133.078 124.213 135.203 124.213 135.203V205.785H79.9588V205.854Z" fill="#75BF7A"/>
<path d="M133.789 87.4399C133.789 87.4399 131.942 102.927 131.258 104.16C130.574 105.462 130.574 105.462 130.574 105.462L127.017 107.861C127.017 107.861 133.789 117.523 142.133 119.031C150.478 120.607 149.794 115.604 149.794 115.604L148.495 112.932L150.205 98.1986C150.205 98.2671 135.02 91.2774 133.789 87.4399Z" fill="#FF9D8C"/>
<path d="M122.571 109.163L128.112 106.765C128.112 106.765 131.668 112.589 139.876 115.947C148.084 119.305 148.221 117.386 148.631 115.947C149.042 114.508 148.495 113.001 148.495 113.001L149.11 108.067L152.393 109.163L163.748 201.468L134.473 202.907L122.571 109.163Z" fill="white"/>
<path d="M149.658 108.135C149.658 108.135 151.641 112.727 153.488 123.485C155.335 134.244 157.045 152.403 157.455 164.875C157.866 177.347 158.139 205.854 158.139 205.854C158.139 205.854 194.665 205.854 195.075 205.854C195.485 205.854 198.016 191.806 198.016 191.806C198.016 191.806 181.874 177.964 181.053 175.702C180.506 174.195 180.779 146.167 178.385 133.284C175.991 120.401 172.845 117.797 166.347 114.577C159.576 111.219 149.658 108.135 149.658 108.135Z" fill="#263238"/>
<path d="M168.878 189.613C168.673 189.613 168.536 189.476 168.536 189.27C168.536 188.242 168.331 173.852 168.194 159.941C167.989 146.03 167.852 131.64 167.852 130.612C167.852 130.406 167.989 130.269 168.194 130.269C168.399 130.269 168.536 130.406 168.536 130.612C168.536 131.64 168.741 146.03 168.878 159.941C169.083 173.852 169.22 188.242 169.22 189.27C169.22 189.476 169.083 189.613 168.878 189.613Z" fill="#263238"/>
<path d="M95.28 186.118L95.0063 205.854H138.03C138.03 205.854 139.876 189.133 139.192 187.557C138.44 185.981 95.28 186.118 95.28 186.118Z" fill="#263238"/>
<path d="M143.16 103.749C144.938 105.188 147.332 106.285 149.179 106.97L150.205 98.1987C150.205 98.1987 138.85 92.9907 134.952 89.0847C135.772 93.5389 137.756 99.4322 143.16 103.749Z" fill="#263238"/>
<path d="M163.475 58.659C163.475 58.659 166.416 63.7299 167.031 70.0343C167.578 76.2702 167.031 92.3054 161.97 99.0895C156.908 105.874 146.238 103.886 141.45 99.7748C137.004 96.0059 132.695 91.8257 131.532 83.6026C130.369 75.3794 133.926 59.7554 143.981 56.5347C154.035 53.3139 163.475 58.659 163.475 58.659Z" fill="#FF9D8C"/>
<path d="M176.265 196.945C176.265 196.945 175.786 196.945 175.034 196.945C174.829 196.945 174.623 196.945 174.487 196.945C173.734 196.945 172.845 196.877 171.956 196.877C171.751 196.877 171.546 196.877 171.34 196.877C170.451 196.877 169.699 196.945 168.946 196.945C168.81 196.945 168.604 196.945 168.399 196.945C168.331 196.945 168.262 196.945 168.194 196.945C167.784 196.877 167.715 196.808 167.236 196.602C166.689 196.328 158.892 194.615 152.53 194.615C146.238 194.615 140.561 195.095 139.603 194.273C138.645 193.519 138.098 185.501 143.502 185.021L150.136 187.557C150.136 187.557 165.253 185.775 170.862 189.887C176.402 193.93 176.265 196.945 176.265 196.945Z" fill="#FF9D8C"/>
<path d="M168.946 196.877C168.81 196.877 168.604 196.877 168.399 196.877C168.262 196.671 167.989 196.26 167.852 196.123C166.142 194.342 162.038 193.245 160.533 192.902C160.397 192.834 160.328 192.765 160.328 192.56C160.328 192.423 160.465 192.354 160.67 192.354C162.859 192.902 167.51 194.204 168.81 196.466C168.741 196.534 168.878 196.74 168.946 196.877Z" fill="#263238"/>
<path d="M171.887 196.877C171.682 196.877 171.477 196.877 171.272 196.877C169.425 193.45 166.347 192.491 162.585 191.257L162.38 191.189C162.243 191.12 162.175 190.983 162.243 190.846C162.312 190.709 162.448 190.641 162.585 190.709L162.79 190.778C166.758 192.011 169.972 193.039 171.887 196.877Z" fill="#263238"/>
<path d="M175.034 196.945C174.829 196.945 174.624 196.945 174.418 196.945C173.256 194.547 169.562 190.572 164.569 189.613C164.432 189.613 164.364 189.476 164.364 189.339C164.364 189.202 164.501 189.133 164.637 189.133C169.767 190.093 173.871 194.273 175.034 196.945Z" fill="#263238"/>
<path d="M134.883 76.6129C134.883 76.6129 138.029 75.1053 140.218 70.9252C142.407 66.7451 142.133 62.9762 142.133 62.9762C142.133 62.9762 146.101 62.3594 152.051 64.1411C158.002 65.9228 165.047 68.3212 170.998 64.8949C176.949 61.4686 176.949 56.055 174.008 53.7936C170.724 51.2582 164.295 52.8343 164.295 52.8343C164.295 52.8343 166.757 50.4358 165.458 48.9968C164.09 47.5577 159.233 49.4079 159.233 49.4079C159.233 49.4079 153.283 44.6796 142.065 45.2278C130.848 45.776 125.444 53.6566 124.828 62.4279C124.213 71.1993 127.359 80.0392 127.359 80.0392L134.883 76.6129Z" fill="#263238"/>
<path d="M157.729 78.7371C157.113 80.3132 157.113 82.1634 156.976 83.8081C156.84 85.1101 156.634 86.6176 157.797 87.5085C158.344 87.9196 161.08 89.0846 159.644 89.9754C159.097 90.3181 158.208 90.2496 157.66 90.181C157.25 90.181 156.84 90.1125 156.429 90.1125C156.019 90.1125 155.54 89.9754 155.13 89.9754C154.856 89.9754 154.788 90.3181 154.993 90.4551C155.677 90.9348 156.771 91.0719 157.592 91.0719C158.413 91.0719 158.96 91.0719 159.712 90.6607C160.191 90.4551 160.602 90.1125 160.67 89.5643C160.738 88.9475 160.26 88.3993 159.849 88.0567C159.302 87.6455 158.686 87.44 158.139 87.0973C157.387 86.5491 157.455 85.6583 157.524 84.836C157.66 82.8487 158.139 80.8614 158.276 78.8056C158.276 78.5315 157.797 78.5315 157.729 78.7371Z" fill="#263238"/>
<path d="M163.543 83.4655C163.337 84.6305 162.448 85.5213 161.627 85.3842C160.738 85.2472 160.259 84.1508 160.465 82.9173C160.67 81.7523 161.559 80.8615 162.38 80.9986C163.201 81.2041 163.748 82.3006 163.543 83.4655Z" fill="#263238"/>
<path d="M152.667 82.5061C152.462 83.8081 151.573 84.6989 150.615 84.5619C149.657 84.4248 149.11 83.2599 149.315 81.9579C149.521 80.6559 150.41 79.765 151.367 79.9021C152.325 80.0391 152.872 81.2041 152.667 82.5061Z" fill="#263238"/>
<path d="M161.012 78.5316C161.696 78.6686 162.312 78.5316 162.996 78.6001C163.132 78.6001 163.338 78.6687 163.474 78.6687C163.611 78.6687 163.269 78.6687 163.406 78.6687H163.474C163.543 78.6687 163.611 78.6687 163.748 78.7372C163.885 78.8057 164.022 78.8057 164.158 78.8742C164.295 78.8742 164.432 78.9428 164.569 78.9428C164.637 78.9428 164.706 78.9428 164.774 78.9428C164.706 78.9428 164.706 78.9428 164.637 78.9428H164.911C165.321 78.8742 165.526 78.3945 165.39 78.0519C165.39 77.9149 165.321 77.8463 165.253 77.7778C165.253 77.7093 165.184 77.7093 165.184 77.6408L165.253 77.7093C165.253 77.6408 165.184 77.6408 165.184 77.5722C165.116 77.5037 165.116 77.4352 165.048 77.4352C164.979 77.3666 164.911 77.3667 164.911 77.2981C164.706 77.1611 164.5 77.0925 164.295 77.024C163.885 76.9555 163.474 76.887 163.064 76.887C162.654 76.887 162.243 76.9555 161.833 76.9555C161.491 77.024 161.08 77.0925 160.807 77.3667C160.602 77.5037 160.465 77.7778 160.465 78.0519C160.533 78.2575 160.738 78.5316 161.012 78.5316Z" fill="#263238"/>
<path d="M153.42 76.6814C153.351 76.6129 153.214 76.6129 153.146 76.5443C153.078 76.4758 152.872 76.4073 153.009 76.4758C152.941 76.4758 152.872 76.4073 152.804 76.4073C152.53 76.2702 152.257 76.2017 151.983 76.1332C151.368 75.9961 150.684 75.9276 150 75.9961C149.316 76.0646 148.632 76.2702 148.016 76.6129C147.948 76.6814 147.811 76.7499 147.742 76.8184C147.674 76.887 147.674 76.9555 147.606 77.024C147.606 77.024 147.606 76.9555 147.674 76.9555C147.469 77.0925 147.4 77.2981 147.4 77.5037C147.4 77.7093 147.537 77.9149 147.674 77.9834C147.879 78.1204 148.153 78.0519 148.358 77.9834C148.221 77.9834 148.153 77.9834 148.016 77.9834C148.221 77.9834 148.358 78.0519 148.563 77.9834C148.563 77.9834 148.768 77.9149 148.632 77.9834C148.495 77.9834 148.837 77.9834 148.837 77.9834C148.905 77.9834 149.11 77.9834 148.837 77.9834C148.905 77.9834 148.905 77.9834 148.974 77.9834C149.11 77.9834 149.179 77.9834 149.316 77.9149C149.794 77.8463 150.273 77.8463 150.684 77.8463C151.094 77.8463 151.573 77.8463 151.983 77.8463C152.188 77.8463 152.325 77.8463 152.53 77.8463C152.599 77.8463 152.667 77.8463 152.53 77.8463C152.599 77.8463 152.599 77.8463 152.667 77.8463C152.736 77.8463 152.804 77.9149 152.872 77.9149C153.146 78.0519 153.556 77.7778 153.625 77.5037C153.83 77.1611 153.762 76.8184 153.42 76.6814Z" fill="#263238"/>
<path d="M156.84 96.3485C157.455 95.0465 158.686 94.0871 160.054 93.4704C158.892 93.3333 153.283 92.8536 151.847 93.6074C150.273 94.4983 152.12 98.1302 155.403 98.3357C155.745 98.3357 156.087 98.3357 156.361 98.2672C156.361 97.6505 156.498 96.9652 156.84 96.3485Z" fill="#263238"/>
<path d="M130.916 88.742C130.916 88.742 131.463 90.9348 134.746 93.4703C138.03 96.0058 142.749 97.856 142.749 97.856L143.16 96.2113C143.16 96.2113 138.303 94.087 136.046 91.7571C133.789 89.4272 133.515 88.1252 133.515 88.1252L130.916 88.742Z" fill="#263238"/>
<path d="M143.707 95.0463C146.306 94.9093 147.811 96.9651 147.948 98.3356C148.153 99.7061 146.853 101.214 143.912 99.8432C140.287 98.1985 141.039 95.1834 143.707 95.0463Z" fill="#263238"/>
<path d="M132.968 72.5012C132.968 72.5012 134.131 64.3465 139.534 58.7959C149.931 48.2428 158.754 48.8596 158.754 48.8596C158.754 48.8596 158.686 47.352 155.334 46.2556C152.188 45.1591 150.82 45.7759 150.82 45.7759C150.82 45.7759 142.27 46.4611 135.02 54.4787C127.769 62.4963 127.017 72.7068 127.017 72.7068L132.968 72.5012Z" fill="#263238"/>
<path d="M132.216 71.5419C125.376 70.377 121.614 75.722 121.34 81.1356C121.067 86.5492 124.965 90.5923 130.164 90.1811C141.928 89.2217 140.56 72.9124 132.216 71.5419Z" fill="white"/>
<path d="M128.796 84.9044C127.017 84.9044 125.444 84.0136 124.623 82.4375C123.666 80.7243 123.803 78.6 124.829 77.0924C124.897 76.9554 125.034 76.9554 125.171 77.0239C125.307 77.0924 125.307 77.298 125.239 77.3665C124.281 78.7371 124.213 80.6558 125.034 82.1634C125.855 83.6024 127.222 84.4248 128.932 84.4248C130.506 84.3562 131.805 83.671 132.626 82.4375C133.584 80.9984 133.789 79.0112 133.173 77.4351C132.558 75.7904 130.916 74.694 129.343 74.8996C129.206 74.8996 129.069 74.8311 129.069 74.694C129.069 74.557 129.138 74.4199 129.274 74.4199C131.053 74.2143 132.968 75.3793 133.652 77.2295C134.336 79.0112 134.062 81.1355 133.036 82.7116C132.079 84.0821 130.642 84.9044 128.932 84.973C128.932 84.9044 128.864 84.9044 128.796 84.9044Z" fill="#263238"/>
<path d="M123.871 107.176C123.871 107.176 103.214 112.246 95.964 120.47C88.7137 128.693 85.3621 169.26 85.2253 176.73C85.0885 184.268 90.2869 187.351 93.4332 189.476C96.5796 191.6 110.259 195.438 121.34 195.986C132.353 196.534 142.818 195.986 142.818 195.986C142.818 195.986 142.749 193.587 144.459 190.024C146.032 186.735 148.016 186.049 148.016 186.049L138.508 182.623C138.508 182.623 136.867 152.814 134.268 138.355C131.395 121.909 123.871 107.176 123.871 107.176Z" fill="#263238"/>
<path d="M158.139 177.963C158.071 177.963 158.071 177.963 158.002 177.963C157.797 177.895 157.729 177.689 157.797 177.484C159.712 173.098 161.764 164.532 162.859 158.502L162.927 158.022C163.269 156.241 163.679 154.048 162.859 152.54C162.448 151.786 161.422 150.073 160.533 148.429C159.575 146.715 158.618 145.139 158.413 144.66C157.934 143.7 159.507 141.233 161.764 137.876C162.38 136.985 162.927 136.162 163.201 135.614C164.021 134.244 163.474 132.942 162.859 131.434L162.653 130.954C162.106 129.584 161.422 128.145 160.807 126.843C160.533 126.295 160.328 125.746 160.054 125.198C159.712 124.444 159.37 123.691 159.028 122.937C157.045 118.483 154.993 113.823 152.325 109.369C152.257 109.232 152.257 109.026 152.462 108.889C152.599 108.82 152.804 108.82 152.941 109.026C155.608 113.549 157.66 118.14 159.712 122.663C160.054 123.416 160.396 124.17 160.738 124.924C161.012 125.472 161.217 126.02 161.491 126.569C162.106 127.939 162.79 129.31 163.337 130.749L163.543 131.228C164.158 132.736 164.842 134.312 163.885 136.025C163.543 136.574 162.995 137.396 162.38 138.287C161.217 140.068 158.755 143.769 159.097 144.386C159.37 144.865 160.259 146.441 161.217 148.086C162.175 149.731 163.132 151.375 163.543 152.198C164.5 153.911 164.09 156.309 163.679 158.159L163.611 158.639C163.201 160.832 161.012 172.07 158.481 177.758C158.344 177.895 158.276 177.963 158.139 177.963Z" fill="#263238"/>
<path d="M137.961 179.197C137.893 179.197 137.756 179.197 137.688 179.128C136.046 177.484 128.317 164.053 127.77 161.517C127.428 160.147 128.248 156.652 129.001 153.225C129.616 150.621 130.232 147.88 130.027 147.127C129.753 146.03 127.77 144.386 125.854 142.809C123.529 140.891 121.135 138.972 120.656 137.19C120.109 135.203 120.588 122.594 120.861 114.302C120.998 111.287 121.066 108.957 121.066 108.135C121.066 107.93 121.203 107.792 121.408 107.792C121.614 107.792 121.75 107.93 121.75 108.135C121.75 108.957 121.682 111.356 121.545 114.371C121.272 122.114 120.793 135.135 121.272 137.053C121.682 138.629 124.076 140.548 126.196 142.33C128.317 144.043 130.3 145.688 130.574 146.99C130.779 147.88 130.232 150.416 129.548 153.363C128.864 156.515 128.043 160.147 128.317 161.38C128.864 163.847 136.525 177.073 138.098 178.649C138.235 178.786 138.235 178.991 138.098 179.128C138.098 179.128 138.03 179.197 137.961 179.197Z" fill="#263238"/>
<path d="M110.123 173.303C109.918 173.303 109.781 173.098 109.781 172.892C110.054 171.111 113.953 135.614 114.158 132.873C114.158 132.667 114.364 132.53 114.5 132.53C114.706 132.53 114.842 132.736 114.842 132.873C114.637 135.614 110.738 171.111 110.465 172.892C110.465 173.166 110.328 173.303 110.123 173.303Z" fill="#263238"/>
<path d="M138.303 182.966C138.235 182.966 138.235 182.966 138.166 182.966C137.277 182.623 133.447 181.321 128.59 179.677C118.741 176.387 105.335 171.796 102.735 170.494C102.599 170.425 102.53 170.22 102.599 170.014C102.667 169.877 102.872 169.809 103.077 169.877C105.608 171.179 119.562 175.908 128.796 179.06C133.652 180.704 137.551 182.006 138.44 182.349C138.645 182.418 138.714 182.623 138.645 182.829C138.577 182.897 138.44 182.966 138.303 182.966Z" fill="#263238"/>
<path d="M133.584 197.082C124.965 197.082 108.208 195.506 95.4852 190.984C95.28 190.915 95.2116 190.709 95.28 190.572C95.3484 190.367 95.5536 190.298 95.6904 190.367C111.764 196.054 134.268 197.014 138.44 196.123C138.645 196.054 138.782 196.192 138.85 196.397C138.919 196.603 138.782 196.74 138.577 196.808C137.688 196.945 135.909 197.082 133.584 197.082Z" fill="#263238"/>
<path d="M34.6785 111.972C37.3461 114.371 40.7661 115.878 43.0916 118.619C44.0492 119.716 44.87 120.812 45.6908 121.977C46.3064 122.799 48.0164 124.17 48.29 125.198C48.4268 125.677 48.3584 125.061 48.29 124.581V124.512C48.0848 122.457 47.8796 120.332 47.8112 118.208C47.7428 116.084 47.8796 114.028 47.7428 111.904C47.5376 108.957 46.6484 106.079 44.2544 104.229C43.0916 103.338 41.5869 102.79 40.4925 101.762C39.4665 100.802 39.8769 99.7059 40.4925 98.678C41.0397 97.6501 41.7237 96.6908 41.9973 95.5943C42.2709 94.2923 41.7921 92.9218 41.1081 91.8254C39.7401 89.4955 36.5937 86.823 33.6525 87.1656C31.1901 87.4397 30.9165 90.3178 30.9849 92.3051C30.9849 94.2238 31.1901 96.1426 31.2585 98.0613C31.2585 100.049 30.9165 101.967 30.9165 103.955C30.6429 107.244 32.2161 109.779 34.6785 111.972Z" fill="#75BF7A"/>
<path d="M59.5757 142.672C60.3281 140.89 61.1489 139.245 62.2433 137.601C63.6797 135.339 65.3212 133.215 66.2788 130.68C67.2364 128.144 67.0996 125.403 67.2364 122.731C67.3048 120.743 67.9204 118.825 67.7152 116.837C67.6468 115.878 67.0996 114.37 65.8684 114.507C64.9108 114.644 64.3636 115.809 63.9533 116.563C63.3377 117.865 62.8589 119.304 62.3801 120.675C62.1749 121.223 62.0381 121.771 61.7645 122.319C61.6277 122.594 61.2173 123.347 60.8069 123.279C60.1229 123.073 60.7385 120.264 60.8753 119.784C61.4225 117.248 62.1749 114.919 62.3117 112.315C62.4485 108.546 62.1749 104.023 58.4813 101.967C57.5237 101.419 56.2925 101.076 55.4033 101.899C54.5141 102.721 54.2405 104.091 54.1037 105.188C53.6933 108.683 54.5141 111.972 55.6085 115.261C56.4977 118.002 57.5921 120.743 57.7289 123.69C57.7973 126.5 56.3609 128.967 55.6769 131.571C54.5825 135.751 54.7877 138.012 54.7877 139.383C54.7877 141.096 54.8561 142.74 54.9929 144.453C55.1297 146.03 55.2665 147.606 55.4033 149.113C55.4717 149.456 55.4717 149.73 55.5401 150.073C54.9245 148.634 54.7193 146.989 54.2405 145.55C53.3513 142.946 52.3253 140.479 51.5046 137.875C50.8206 135.751 50.1366 133.558 49.2474 131.502C48.3582 129.583 47.3322 127.527 45.6906 126.088C44.733 125.198 43.5018 124.718 42.2022 124.718C41.3814 124.718 40.629 124.992 39.8082 125.198C38.8507 125.472 38.0299 125.335 37.2775 124.718C34.6099 122.662 33.8575 119.03 31.8739 116.495C30.4375 114.576 26.9491 111.287 24.4184 113.411C23.0504 114.507 22.7084 116.7 22.7768 118.345C22.8452 120.401 23.7344 122.319 24.8288 124.033C25.9916 125.883 27.4279 127.527 28.5223 129.378C29.1379 130.474 29.2063 131.571 29.1379 132.804C29.0695 133.969 28.9327 135.134 29.3431 136.299C30.5743 139.725 34.3363 139.245 37.2775 139.314C39.3294 139.383 41.5182 139.657 43.5018 140.342C45.759 141.096 47.1954 142.603 48.0162 144.796C48.6318 146.441 48.9054 148.222 49.9998 149.661C50.547 150.278 51.231 150.758 51.9833 151.101C53.1461 151.58 56.6345 151.854 56.6345 151.512C56.7029 150.415 57.2501 149.319 57.5237 148.291C58.1393 146.372 58.8233 144.522 59.5757 142.672Z" fill="#75BF7A"/>
<path d="M75.7866 141.986C75.513 139.999 75.513 137.875 74.6238 136.025C74.5554 135.888 74.3502 135.888 74.2818 135.956C73.5978 136.299 73.5978 137.395 73.5294 138.08C73.461 139.177 73.5294 140.273 73.3926 141.37C73.1874 143.288 72.7086 145.276 72.0246 147.057C71.2722 149.113 69.8358 150.278 67.7838 150.895C66.4842 151.306 65.1847 151.649 64.0903 152.54C63.1327 153.293 62.4487 154.39 61.9015 155.555C60.5335 158.638 59.8495 162.065 59.2339 165.422C58.8235 167.615 58.4815 169.877 57.9343 172.07C57.3871 174.262 56.8399 176.455 56.4979 178.717C56.4295 178.854 56.3611 178.922 56.3611 179.059C56.2243 179.402 56.7715 179.607 56.9083 179.265C59.0287 175.976 61.6279 173.029 65.1847 171.247C66.7578 170.425 68.8782 170.288 70.2462 168.986C71.2722 168.026 71.409 166.519 71.2722 165.217C71.067 163.504 70.2462 162.065 69.357 160.557C68.8782 159.735 68.331 158.844 68.5362 157.885C68.7414 156.925 69.4938 156.24 70.2462 155.76C71.6826 154.869 73.461 154.458 74.6238 153.088C75.7182 151.854 76.3338 150.347 76.4706 148.702C76.539 146.509 76.1286 144.179 75.7866 141.986Z" fill="#75BF7A"/>
<path d="M46.8537 153.293C45.0069 150.895 42.6813 148.771 40.1505 147.058C38.7825 146.167 35.5677 144.385 34.9522 147.058C34.5418 148.634 36.1149 150.141 37.0725 151.169C38.5773 152.608 40.3557 153.91 41.5869 155.623C40.0137 156.103 38.3721 156.24 37.0041 157.336C35.3625 158.638 34.6786 161.105 36.2517 162.682C37.0041 163.435 38.0985 163.915 39.0561 164.395C40.3557 165.011 41.5869 165.56 42.8865 166.108C45.6909 167.273 48.5636 168.506 50.9576 170.425C53.42 172.412 55.6772 175.702 55.8824 178.922C55.8824 179.196 55.814 178.922 55.9508 178.785C56.0192 178.854 56.3612 178.717 56.3612 178.511C56.2928 173.783 55.472 169.26 53.4884 164.874C51.7784 160.9 49.5212 156.788 46.8537 153.293Z" fill="#75BF7A"/>
<path d="M40.3554 109.094C41.3814 111.218 42.4758 113.343 43.6386 115.467C44.733 117.454 45.8274 119.51 46.6482 121.634C47.6742 124.307 48.7002 126.911 49.7946 129.515C50.8889 132.256 51.9149 135.066 52.7357 137.875C54.3089 143.426 55.4717 149.113 56.0189 154.87C56.2925 157.816 56.4293 160.694 56.3609 163.641C56.2925 165.902 56.0189 168.232 55.8137 170.494C55.6085 172.892 55.4033 175.291 55.6085 177.62C55.7453 179.608 56.0873 182.006 57.6605 183.377C57.9341 183.651 58.4129 183.308 58.2077 182.965C56.3609 179.197 56.4977 175.085 56.8397 171.042C57.0449 168.781 57.3185 166.519 57.3869 164.258C57.4553 161.38 57.3869 158.502 57.1133 155.623C56.5661 150.004 55.4717 144.454 54.0353 138.972C53.2829 136.162 52.3937 133.421 51.2993 130.748C50.2049 128.076 48.9738 125.403 47.9478 122.731C46.101 117.797 43.2282 113.48 40.6974 108.888C40.5606 108.614 40.2186 108.82 40.3554 109.094Z" fill="#263238"/>
<path d="M56.1559 149.25C56.4295 145.687 56.7715 142.261 58.0027 138.834C58.5499 137.258 59.2339 135.682 59.7811 134.106C60.2599 132.804 60.8755 130.954 60.5335 129.583C60.4651 129.446 60.2599 129.446 60.1915 129.583C59.9863 130.406 59.9863 131.296 59.8495 132.119C59.7127 132.941 59.4391 133.695 59.2339 134.449C58.6867 136.093 58.0027 137.669 57.3871 139.314C56.2243 142.466 55.6087 145.961 55.8823 149.319C55.8823 149.387 56.0875 149.387 56.1559 149.25Z" fill="#263238"/>
<path d="M35.4309 128.692C36.8673 132.119 41.1081 132.324 44.186 133.078C46.3748 133.626 48.0164 135.134 49.1792 137.053C50.4788 139.177 51.368 141.644 52.052 143.974H52.1204C51.2312 139.862 50 134.928 45.7592 133.01C42.3393 131.502 37.8933 132.256 35.7045 128.555C35.7045 128.35 35.3625 128.487 35.4309 128.692Z" fill="#263238"/>
<path d="M53.8984 148.702C54.0352 148.908 54.2404 149.182 54.3772 149.388C54.4456 149.525 54.5824 149.593 54.6508 149.662C54.7876 149.73 54.9244 149.867 55.0612 149.867C55.1296 149.867 55.198 149.799 55.1296 149.73C55.0612 149.593 54.9244 149.525 54.856 149.456C54.7876 149.388 54.6508 149.25 54.5824 149.182C54.3772 148.976 54.172 148.771 54.0352 148.565C53.8984 148.634 53.83 148.634 53.8984 148.702Z" fill="#263238"/>
<path d="M45.0067 159.598C47.4691 161.585 49.7263 163.984 51.5046 166.588C52.3938 167.821 53.1462 169.123 53.8986 170.494C54.651 171.933 55.1982 173.509 55.8138 175.016C55.8822 175.153 56.0874 175.153 56.0874 175.016C55.7454 171.796 53.6934 169.054 52.0518 166.313C51.231 164.943 50.1367 163.778 49.0423 162.613C47.8795 161.38 46.6483 160.283 45.2803 159.324C45.0751 159.187 44.8699 159.461 45.0067 159.598Z" fill="#263238"/>
<path d="M64.5004 155.76C63.3376 156.445 63.2692 158.296 63.2692 159.461C63.2008 161.722 63.8164 163.915 62.7904 166.039C61.9012 168.026 60.4648 169.671 59.302 171.453C58.2076 173.166 57.1816 175.359 57.1816 177.415C57.1816 177.552 57.3868 177.62 57.3868 177.483C57.7972 176.524 58.0024 175.496 58.276 174.536C58.618 173.44 59.0968 172.412 59.7124 171.453C60.8068 169.74 62.1748 168.232 63.064 166.382C64.0216 164.463 63.8848 162.544 63.8164 160.488C63.748 159.186 63.6112 156.994 64.7056 156.034C64.9108 155.966 64.7056 155.692 64.5004 155.76Z" fill="#263238"/>
<path d="M56.6345 177.689C51.915 177.62 42.8862 177.552 42.8862 177.552L45.1434 194.204C45.6222 197.973 48.837 200.714 52.599 200.714H56.4977H56.9081H60.8069C64.5689 200.714 67.7836 197.904 68.2624 194.204L70.5196 177.552C70.3828 177.62 61.3541 177.62 56.6345 177.689Z" fill="white"/>
<path d="M285.841 147.194L258.755 200.851L179.891 201.399L204.241 146.372L285.841 147.194Z" fill="#263238"/>
<path d="M127.565 201.056V196.739H178.591L202.052 145.139H283.721L285.773 147.126H206.088L181.669 200.988C181.669 201.056 127.565 200.919 127.565 201.056Z" fill="#263238"/>
<path d="M244.87 176.798C243.981 179.47 239.125 181.526 234.063 181.389C229.002 181.252 225.582 178.991 226.471 176.318C227.36 173.646 232.216 171.59 237.278 171.727C242.408 171.864 245.759 174.125 244.87 176.798Z" fill="#263238"/>
<path d="M181.669 201.399C181.601 201.399 181.601 201.399 181.532 201.399C181.327 201.331 181.259 201.125 181.395 200.919L205.882 146.852H285.841C286.047 146.852 286.183 146.989 286.183 147.195C286.183 147.4 286.047 147.537 285.841 147.537H206.293L181.943 201.193C181.943 201.331 181.806 201.399 181.669 201.399Z" fill="white"/>
<path d="M124.008 205.168H123.46H30.1636V209.005H123.46H124.008H292.27V205.168H124.008Z" fill="white"/>
<path d="M128.112 201.056H25.6494V206.127H128.112V201.056Z" fill="#263238"/>
<path d="M296.374 201.056H127.564V206.127H296.374V201.056Z" fill="#263238"/>
<path d="M100.342 91.6883H67.1682C65.1162 91.6883 63.4746 90.0437 63.4746 87.9879V71.4045C63.4746 69.3487 65.1162 67.7041 67.1682 67.7041H100.274C102.325 67.7041 103.967 69.3487 103.967 71.4045V87.9879C104.035 90.0437 102.394 91.6883 100.342 91.6883Z" fill="white"/>
<path d="M113.475 79.696L101.026 74.4194V84.9725L113.475 79.696Z" fill="white"/>
<path d="M75.9232 81.9578C77.1698 81.9578 78.1804 80.9454 78.1804 79.6964C78.1804 78.4475 77.1698 77.4351 75.9232 77.4351C74.6766 77.4351 73.666 78.4475 73.666 79.6964C73.666 80.9454 74.6766 81.9578 75.9232 81.9578Z" fill="#263238"/>
<path d="M83.7889 81.9578C85.0355 81.9578 86.0461 80.9454 86.0461 79.6964C86.0461 78.4475 85.0355 77.4351 83.7889 77.4351C82.5423 77.4351 81.5317 78.4475 81.5317 79.6964C81.5317 80.9454 82.5423 81.9578 83.7889 81.9578Z" fill="#263238"/>
<path d="M91.5868 81.9578C92.8334 81.9578 93.8439 80.9454 93.8439 79.6964C93.8439 78.4475 92.8334 77.4351 91.5868 77.4351C90.3402 77.4351 89.3296 78.4475 89.3296 79.6964C89.3296 80.9454 90.3402 81.9578 91.5868 81.9578Z" fill="#263238"/>
<path d="M268.947 16.7207H192.476C187.551 16.7207 183.584 20.6952 183.584 25.6291V61.9481C183.584 66.882 187.551 70.8565 192.476 70.8565H199.316C199.521 74.1458 199.042 79.0797 196.306 85.3156C205.13 81.204 210.26 75.1052 212.859 70.8565H268.947C273.871 70.8565 277.838 66.882 277.838 61.9481V25.6291C277.838 20.6952 273.871 16.7207 268.947 16.7207Z" fill="#75BF7A"/>
<path d="M236.32 34.0577H198.426C197.4 34.0577 196.511 33.2354 196.511 32.139C196.511 31.1111 197.332 30.2202 198.426 30.2202H236.32C237.346 30.2202 238.235 31.0425 238.235 32.139C238.235 33.1669 237.346 34.0577 236.32 34.0577Z" fill="white"/>
<path d="M263.543 45.0904H197.674C197.058 45.0904 196.511 44.5422 196.511 43.9254C196.511 43.3087 197.058 42.7605 197.674 42.7605H263.543C264.158 42.7605 264.705 43.3087 264.705 43.9254C264.705 44.5422 264.158 45.0904 263.543 45.0904Z" fill="#75BF7A"/>
<path d="M263.543 51.4632H197.674C197.058 51.4632 196.511 50.915 196.511 50.2983C196.511 49.6815 197.058 49.1333 197.674 49.1333H263.543C264.158 49.1333 264.705 49.6815 264.705 50.2983C264.705 50.9835 264.158 51.4632 263.543 51.4632Z" fill="#75BF7A"/>
<path d="M249.179 58.316H197.674C197.058 58.316 196.511 57.7678 196.511 57.151C196.511 56.5343 197.058 55.9861 197.674 55.9861H249.179C249.794 55.9861 250.342 56.5343 250.342 57.151C250.342 57.8363 249.794 58.316 249.179 58.316Z" fill="#75BF7A"/>
<path d="M262.996 34.0577H244.87C243.844 34.0577 242.955 33.2354 242.955 32.139C242.955 31.1111 243.775 30.2202 244.87 30.2202H262.996C264.022 30.2202 264.911 31.0425 264.911 32.139C264.911 33.1669 264.022 34.0577 262.996 34.0577Z" fill="white"/>
<path d="M217.373 117.66H196.853C196.101 117.66 195.485 117.043 195.485 116.289V102.241C195.485 101.487 196.101 100.871 196.853 100.871H217.373C218.126 100.871 218.741 101.487 218.741 102.241V116.289C218.741 117.043 218.194 117.66 217.373 117.66Z" fill="white"/>
<path d="M207.25 111.766C207.113 111.766 207.045 111.698 206.908 111.629L195.759 102.378C195.554 102.173 195.486 101.899 195.691 101.625C195.896 101.419 196.17 101.35 196.443 101.556L207.319 110.533L217.921 101.35C218.126 101.145 218.468 101.213 218.673 101.419C218.878 101.625 218.81 101.967 218.605 102.173L207.729 111.698C207.524 111.698 207.387 111.766 207.25 111.766Z" fill="#263238"/>
<path d="M196.101 117.248C195.965 117.248 195.828 117.18 195.759 117.111C195.554 116.906 195.554 116.563 195.759 116.358L203.557 108.134C203.762 107.929 204.104 107.929 204.309 108.134C204.514 108.34 204.514 108.683 204.309 108.888L196.512 117.111C196.375 117.18 196.238 117.248 196.101 117.248Z" fill="#263238"/>
<path d="M218.194 116.974C218.058 116.974 217.921 116.906 217.852 116.837L209.986 108.957C209.781 108.751 209.781 108.409 209.986 108.203C210.192 107.997 210.534 107.997 210.739 108.203L218.536 116.015C218.742 116.221 218.742 116.563 218.536 116.769C218.4 116.906 218.331 116.974 218.194 116.974Z" fill="#263238"/>
<path d="M219.836 107.175C223.613 107.175 226.675 104.107 226.675 100.323C226.675 96.538 223.613 93.47 219.836 93.47C216.058 93.47 212.996 96.538 212.996 100.323C212.996 104.107 216.058 107.175 219.836 107.175Z" fill="#FF5F42"/>
<path d="M217.92 100.323C218.057 100.323 218.262 100.46 218.399 100.597C218.536 100.734 218.673 100.871 218.741 101.077C218.81 101.282 218.878 101.488 218.878 101.693C218.878 101.968 218.81 102.242 218.673 102.447C218.536 102.653 218.331 102.858 218.057 102.995C217.784 103.133 217.51 103.201 217.168 103.201C216.826 103.201 216.552 103.133 216.279 102.995C216.005 102.858 215.8 102.653 215.663 102.447C215.526 102.242 215.458 101.968 215.458 101.693C215.458 101.419 215.526 101.214 215.595 101.077C215.663 100.94 215.8 100.734 215.937 100.597C216.074 100.46 216.279 100.391 216.416 100.254C216.279 100.186 216.142 100.049 216.005 99.9803C215.868 99.8432 215.8 99.7062 215.663 99.5006C215.595 99.295 215.526 99.158 215.526 98.9524C215.526 98.6783 215.595 98.4042 215.732 98.1986C215.868 97.993 216.074 97.7875 216.279 97.6504C216.552 97.5134 216.758 97.4448 217.1 97.4448C217.442 97.4448 217.647 97.5134 217.92 97.6504C218.194 97.7875 218.331 97.993 218.468 98.1986C218.604 98.4042 218.673 98.6783 218.673 98.9524C218.673 99.158 218.604 99.3636 218.536 99.5006C218.468 99.7062 218.331 99.8432 218.194 99.9803C218.194 100.117 218.057 100.254 217.92 100.323ZM217.236 102.927C217.647 102.927 217.989 102.79 218.262 102.584C218.536 102.379 218.673 102.036 218.673 101.693C218.673 101.419 218.604 101.214 218.468 101.077C218.331 100.871 218.194 100.734 217.989 100.666C217.784 100.529 217.578 100.529 217.305 100.529C217.031 100.529 216.826 100.597 216.621 100.666C216.416 100.803 216.279 100.94 216.142 101.077C216.005 101.282 215.937 101.488 215.937 101.693C215.937 102.036 216.074 102.31 216.279 102.584C216.484 102.858 216.826 102.927 217.236 102.927ZM216.005 98.9524C216.005 99.2265 216.074 99.4321 216.21 99.5691C216.347 99.7747 216.484 99.9118 216.689 99.9803C216.894 100.049 217.1 100.117 217.305 100.117C217.51 100.117 217.715 100.049 217.92 99.9803C218.126 99.9118 218.262 99.7062 218.399 99.5691C218.536 99.3636 218.604 99.158 218.604 98.9524C218.604 98.6098 218.468 98.3357 218.262 98.0616C218.057 97.7875 217.715 97.7189 217.373 97.7189C217.031 97.7189 216.689 97.856 216.484 98.0616C216.279 98.2671 216.005 98.6098 216.005 98.9524Z" fill="white"/>
<path d="M221.341 103.201C221.135 103.201 220.862 103.132 220.657 103.064C220.451 102.995 220.246 102.858 220.041 102.721L219.973 102.653V102.584C219.973 102.516 219.973 102.516 220.041 102.447C220.041 102.379 220.109 102.379 220.178 102.379C220.246 102.379 220.246 102.379 220.315 102.447C220.451 102.584 220.657 102.653 220.862 102.721C221.067 102.79 221.272 102.79 221.409 102.79C221.751 102.79 222.025 102.721 222.298 102.584C222.572 102.447 222.777 102.242 222.914 102.036C223.051 101.762 223.119 101.488 223.119 101.214C223.119 100.94 223.051 100.665 222.914 100.391C222.777 100.186 222.572 99.9802 222.367 99.8432C222.093 99.7061 221.819 99.6376 221.477 99.6376C221.272 99.6376 221.067 99.6376 220.93 99.7061C220.725 99.7746 220.588 99.8432 220.52 99.9117C220.451 99.9802 220.315 99.9802 220.246 99.9802H220.178L220.109 99.9117C220.109 99.9117 220.109 99.8432 220.109 99.7746L220.52 97.5133C220.52 97.5133 220.52 97.4447 220.588 97.4447C220.657 97.4447 220.657 97.3762 220.725 97.3762H223.256C223.324 97.3762 223.324 97.3762 223.393 97.4447C223.461 97.5133 223.461 97.5133 223.461 97.5818C223.461 97.6503 223.461 97.6503 223.393 97.7189C223.324 97.7874 223.324 97.7874 223.256 97.7874H220.793L220.862 97.7189L220.451 99.7746L220.315 99.7061C220.383 99.6376 220.52 99.5691 220.657 99.5691C220.793 99.5691 220.93 99.432 221.135 99.432C221.341 99.3635 221.477 99.3635 221.683 99.3635C222.025 99.3635 222.367 99.432 222.64 99.5691C222.914 99.7061 223.119 99.9117 223.324 100.186C223.461 100.46 223.598 100.803 223.598 101.145C223.598 101.556 223.529 101.899 223.324 102.173C223.187 102.447 222.914 102.721 222.64 102.858C222.093 103.132 221.751 103.201 221.341 103.201Z" fill="white"/>
<path d="M288.782 97.7873H248.7C247.196 97.7873 245.964 96.5538 245.964 95.0462V88.7418C245.964 87.2342 247.196 86.0007 248.7 86.0007H288.782C290.287 86.0007 291.518 87.2342 291.518 88.7418V95.0462C291.518 96.5538 290.287 97.7873 288.782 97.7873Z" fill="#263238"/>
<path d="M251.573 94.9773C251.368 94.9773 251.231 94.9088 251.162 94.7718C251.026 94.6347 251.026 94.4977 251.026 94.2921L251.231 92.7845C251.231 92.716 251.231 92.716 251.231 92.716H251.162L249.931 93.6068C249.794 93.7439 249.589 93.7439 249.452 93.7439C249.316 93.7439 249.179 93.6068 249.042 93.4698C248.905 93.2642 248.905 93.0586 248.974 92.9216C249.042 92.7845 249.179 92.6474 249.316 92.5789L250.752 91.9622C250.82 91.9622 250.82 91.9622 250.82 91.8937C250.82 91.8937 250.82 91.8251 250.752 91.8251L249.316 91.2084C249.11 91.1399 249.042 91.0028 248.974 90.8658C248.905 90.7287 248.974 90.5231 249.042 90.3861C249.11 90.249 249.247 90.112 249.452 90.112C249.589 90.112 249.794 90.112 249.931 90.249L251.162 91.2084C251.231 91.2084 251.231 91.2084 251.231 91.2084V91.1399L251.026 89.6323C251.026 89.4267 251.094 89.2897 251.162 89.1526C251.299 89.0155 251.436 88.947 251.641 88.947C251.846 88.947 251.983 89.0155 252.052 89.1526C252.188 89.2897 252.188 89.4267 252.188 89.6323L251.983 91.1399C251.983 91.2084 251.983 91.2084 251.983 91.2084H252.052L253.283 90.3175C253.42 90.1805 253.625 90.1805 253.762 90.1805C253.967 90.1805 254.035 90.3175 254.172 90.4546C254.309 90.6602 254.309 90.8658 254.24 91.0028C254.172 91.1399 254.035 91.2769 253.898 91.3454L252.462 91.9622C252.394 91.9622 252.394 91.9622 252.394 92.0307C252.394 92.0307 252.394 92.0992 252.462 92.0992L253.898 92.716C254.104 92.7845 254.172 92.9216 254.24 93.0586C254.309 93.1957 254.309 93.4012 254.172 93.5383C254.104 93.6753 253.967 93.8124 253.762 93.8124C253.556 93.8124 253.42 93.8124 253.283 93.6753L252.052 92.716C251.983 92.716 251.983 92.716 251.983 92.716V92.7845L252.188 94.2921C252.188 94.4977 252.188 94.6347 252.052 94.7718C251.915 94.9088 251.778 94.9773 251.573 94.9773Z" fill="white"/>
<path d="M259.849 94.9773C259.644 94.9773 259.507 94.9088 259.439 94.7718C259.302 94.6347 259.302 94.4977 259.302 94.2921L259.507 92.7845C259.507 92.716 259.507 92.716 259.507 92.716H259.439L258.208 93.6068C258.071 93.7439 257.866 93.7439 257.729 93.7439C257.592 93.7439 257.455 93.6068 257.318 93.4698C257.182 93.2642 257.182 93.0586 257.25 92.9216C257.318 92.7845 257.455 92.6474 257.592 92.5789L259.028 91.9622C259.097 91.9622 259.097 91.9622 259.097 91.8937C259.097 91.8937 259.097 91.8251 259.028 91.8251L257.592 91.2084C257.387 91.1399 257.318 91.0028 257.25 90.8658C257.182 90.7287 257.25 90.5231 257.318 90.3861C257.455 90.249 257.524 90.112 257.729 90.112C257.866 90.112 258.071 90.112 258.208 90.249L259.439 91.2084C259.507 91.2084 259.507 91.2084 259.507 91.2084V91.1399L259.302 89.6323C259.302 89.4267 259.37 89.2897 259.439 89.1526C259.576 89.0155 259.712 88.947 259.918 88.947C260.123 88.947 260.26 89.0155 260.328 89.1526C260.465 89.2897 260.465 89.4267 260.465 89.6323L260.26 91.1399C260.26 91.2084 260.26 91.2084 260.26 91.2084H260.328L261.559 90.3175C261.696 90.1805 261.901 90.1805 262.038 90.1805C262.243 90.1805 262.312 90.3175 262.448 90.4546C262.585 90.6602 262.585 90.8658 262.517 91.0028C262.448 91.1399 262.312 91.2769 262.175 91.3454L260.738 91.9622C260.67 91.9622 260.67 91.9622 260.67 92.0307C260.67 92.0307 260.67 92.0992 260.738 92.0992L262.175 92.716C262.38 92.7845 262.448 92.9216 262.517 93.0586C262.585 93.1957 262.585 93.4012 262.448 93.5383C262.38 93.6753 262.243 93.8124 262.038 93.8124C261.833 93.8124 261.696 93.8124 261.559 93.6753L260.328 92.716C260.26 92.716 260.26 92.716 260.26 92.716V92.7845L260.465 94.2921C260.465 94.4977 260.465 94.6347 260.328 94.7718C260.191 94.9088 260.054 94.9773 259.849 94.9773Z" fill="white"/>
<path d="M268.126 94.9773C267.92 94.9773 267.784 94.9088 267.715 94.7718C267.578 94.6347 267.578 94.4977 267.578 94.2921L267.784 92.7845C267.784 92.716 267.784 92.716 267.784 92.716H267.715L266.484 93.6068C266.347 93.7439 266.142 93.7439 266.005 93.7439C265.868 93.7439 265.732 93.6068 265.595 93.4698C265.458 93.2642 265.458 93.0586 265.526 92.9216C265.595 92.7845 265.732 92.6474 265.868 92.5789L267.305 91.9622C267.373 91.9622 267.373 91.9622 267.373 91.8937C267.373 91.8937 267.373 91.8251 267.305 91.8251L265.868 91.2084C265.663 91.1399 265.595 91.0028 265.526 90.8658C265.458 90.7287 265.526 90.5231 265.595 90.3861C265.663 90.249 265.8 90.112 266.005 90.112C266.142 90.112 266.347 90.112 266.484 90.249L267.715 91.2084C267.784 91.2084 267.784 91.2084 267.784 91.2084V91.1399L267.578 89.6323C267.578 89.4267 267.647 89.2897 267.715 89.1526C267.852 89.0155 267.989 88.947 268.194 88.947C268.399 88.947 268.536 89.0155 268.604 89.1526C268.741 89.2897 268.741 89.4267 268.741 89.6323L268.536 91.1399C268.536 91.2084 268.536 91.2084 268.536 91.2084H268.604L269.836 90.3175C269.972 90.1805 270.178 90.1805 270.314 90.1805C270.52 90.1805 270.588 90.3175 270.725 90.4546C270.862 90.6602 270.862 90.8658 270.793 91.0028C270.725 91.1399 270.588 91.2769 270.451 91.3454L269.015 91.9622C268.946 91.9622 268.946 91.9622 268.946 92.0307C268.946 92.0307 268.946 92.0992 269.015 92.0992L270.451 92.716C270.656 92.7845 270.725 92.9216 270.793 93.0586C270.862 93.1957 270.862 93.4012 270.725 93.5383C270.656 93.6753 270.52 93.8124 270.314 93.8124C270.109 93.8124 269.972 93.8124 269.836 93.6753L268.604 92.716C268.536 92.716 268.536 92.716 268.536 92.716V92.7845L268.741 94.2921C268.741 94.4977 268.741 94.6347 268.604 94.7718C268.536 94.9088 268.331 94.9773 268.126 94.9773Z" fill="white"/>
<path d="M276.47 94.9773C276.265 94.9773 276.128 94.9088 276.06 94.7718C275.923 94.6347 275.923 94.4977 275.923 94.2921L276.128 92.7845C276.128 92.716 276.128 92.716 276.128 92.716H276.06L274.829 93.6068C274.692 93.7439 274.487 93.7439 274.35 93.7439C274.213 93.7439 274.076 93.6068 273.94 93.4698C273.803 93.2642 273.803 93.0586 273.871 92.9216C273.939 92.7845 274.076 92.6474 274.213 92.5789L275.649 91.9622C275.718 91.9622 275.718 91.9622 275.718 91.8937C275.718 91.8937 275.718 91.8251 275.649 91.8251L274.213 91.2084C274.008 91.1399 273.939 91.0028 273.871 90.8658C273.803 90.7287 273.871 90.5231 273.94 90.3861C274.076 90.249 274.145 90.112 274.35 90.112C274.487 90.112 274.692 90.112 274.829 90.249L276.06 91.2084C276.128 91.2084 276.128 91.2084 276.128 91.2084V91.1399L275.923 89.6323C275.923 89.4267 275.991 89.2897 276.06 89.1526C276.197 89.0155 276.333 88.947 276.539 88.947C276.744 88.947 276.881 89.0155 276.949 89.1526C277.086 89.2897 277.086 89.4267 277.086 89.6323L276.881 91.1399C276.881 91.2084 276.881 91.2084 276.881 91.2084H276.949L278.18 90.3175C278.317 90.1805 278.522 90.1805 278.659 90.1805C278.864 90.1805 278.933 90.3175 279.069 90.4546C279.206 90.6602 279.206 90.8658 279.138 91.0028C279.069 91.1399 278.933 91.2769 278.796 91.3454L277.359 91.9622C277.291 91.9622 277.291 91.9622 277.291 92.0307C277.291 92.0307 277.291 92.0992 277.359 92.0992L278.796 92.716C279.001 92.7845 279.069 92.9216 279.138 93.0586C279.206 93.1957 279.206 93.4012 279.069 93.5383C279.001 93.6753 278.864 93.8124 278.659 93.8124C278.454 93.8124 278.317 93.8124 278.18 93.6753L276.949 92.716C276.881 92.716 276.881 92.716 276.881 92.716V92.7845L277.086 94.2921C277.086 94.4977 277.086 94.6347 276.949 94.7718C276.812 94.9088 276.675 94.9773 276.47 94.9773Z" fill="white"/>
<path d="M284.747 94.9773C284.541 94.9773 284.405 94.9088 284.336 94.7718C284.199 94.6347 284.199 94.4977 284.199 94.2921L284.405 92.7845C284.405 92.716 284.405 92.716 284.405 92.716H284.336L283.105 93.6068C282.968 93.7439 282.763 93.7439 282.626 93.7439C282.489 93.7439 282.353 93.6068 282.216 93.4698C282.079 93.2642 282.079 93.0586 282.147 92.9216C282.216 92.7845 282.353 92.6474 282.489 92.5789L283.926 91.9622C283.994 91.9622 283.994 91.9622 283.994 91.8937C283.994 91.8937 283.994 91.8251 283.926 91.8251L282.489 91.2084C282.284 91.1399 282.216 91.0028 282.147 90.8658C282.079 90.7287 282.147 90.5231 282.216 90.3861C282.284 90.249 282.421 90.112 282.626 90.112C282.763 90.112 282.968 90.112 283.105 90.249L284.336 91.2084C284.405 91.2084 284.405 91.2084 284.405 91.2084V91.1399L284.199 89.6323C284.199 89.4267 284.268 89.2897 284.336 89.1526C284.473 89.0155 284.61 88.947 284.815 88.947C285.02 88.947 285.157 89.0155 285.225 89.1526C285.362 89.2897 285.362 89.4267 285.362 89.6323L285.157 91.1399C285.157 91.2084 285.157 91.2084 285.157 91.2084H285.225L286.457 90.3175C286.593 90.1805 286.799 90.1805 286.935 90.1805C287.141 90.1805 287.209 90.3175 287.346 90.4546C287.483 90.6602 287.483 90.8658 287.414 91.0028C287.346 91.1399 287.209 91.2769 287.072 91.3454L285.636 91.9622C285.567 91.9622 285.567 91.9622 285.567 92.0307C285.567 92.0307 285.567 92.0992 285.636 92.0992L287.072 92.716C287.277 92.7845 287.346 92.9216 287.414 93.0586C287.483 93.1957 287.483 93.4012 287.346 93.5383C287.277 93.6753 287.141 93.8124 286.935 93.8124C286.73 93.8124 286.593 93.8124 286.457 93.6753L285.225 92.716C285.157 92.716 285.157 92.716 285.157 92.716V92.7845L285.362 94.2921C285.362 94.4977 285.362 94.6347 285.225 94.7718C285.089 94.9088 284.952 94.9773 284.747 94.9773Z" fill="#75BF7A"/>
</svg>
