<svg width="19" height="19" viewBox="0 0 19 19" fill="none" xmlns="http://www.w3.org/2000/svg">
<path d="M17.5 14.75V9.25C17.5 4.69365 13.8064 1 9.25 1C4.69365 1 1 4.69365 1 9.25V14.75M3.29167 17.5C2.02602 17.5 1 16.474 1 15.2083V13.375C1 12.1094 2.02602 11.0833 3.29167 11.0833C4.55732 11.0833 5.58333 12.1094 5.58333 13.375V15.2083C5.58333 16.474 4.55732 17.5 3.29167 17.5ZM15.2083 17.5C13.9427 17.5 12.9167 16.474 12.9167 15.2083V13.375C12.9167 12.1094 13.9427 11.0833 15.2083 11.0833C16.474 11.0833 17.5 12.1094 17.5 13.375V15.2083C17.5 16.474 16.474 17.5 15.2083 17.5Z" stroke="#131313" stroke-width="2" stroke-linecap="round" stroke-linejoin="round"/>
</svg>
