<svg width="268" height="49" viewBox="0 0 268 49" fill="none" xmlns="http://www.w3.org/2000/svg">
<g clip-path="url(#clip0_430_1865)">
<path d="M6.3458 25.7677H5.51401C4.21313 25.7677 3.18254 25.4133 2.42399 24.7082C1.45967 23.8004 0.973144 22.6697 0.960938 21.3198C0.985351 19.5151 1.48582 18.1213 2.46061 17.1367L3.74405 18.103C3.00991 18.9999 2.64196 20.0466 2.64196 21.2449C2.64196 23.1757 3.60629 24.1529 5.53319 24.1785H6.27431C7.5996 24.1657 8.26224 23.5538 8.26224 22.3427V10H9.94327V21.9628C9.94327 24.4982 8.74528 25.7677 6.34755 25.7677" fill="#18479F"/>
<path d="M14.8382 21.9244H13.1763C11.9836 21.9244 11.3872 21.0531 11.3872 19.3123V10H13.0491V19.5772C13.0491 20.0813 13.2531 20.3407 13.6629 20.3535H14.8364V21.9244H14.8382Z" fill="#18479F"/>
<path d="M17.2237 20.3535H14.6045V21.9244H17.2237V20.3535Z" fill="#18479F"/>
<path d="M19.5709 20.3535H16.9517V21.9244H19.5709V20.3535Z" fill="#18479F"/>
<path d="M21.9195 20.3535H19.3003V21.9244H21.9195V20.3535Z" fill="#18479F"/>
<path d="M24.2686 20.3535H21.6494V21.9244H24.2686V20.3535Z" fill="#18479F"/>
<path d="M26.6172 20.3535H23.998V21.9244H26.6172V20.3535Z" fill="#18479F"/>
<path d="M31.9481 22.6824C30.5391 22.6824 29.4126 22.0449 28.5686 20.7717C28.1832 21.528 27.6409 21.9134 26.9416 21.9262H26.3452V20.3553H26.7969C27.6513 20.3425 28.0855 19.6812 28.0977 18.3679V18.0464C28.0977 16.6837 28.3924 15.6242 28.9836 14.8662C29.573 14.1081 30.4414 13.73 31.5853 13.73C32.7293 13.73 33.5942 14.1245 34.2499 14.9137C34.9055 15.7028 35.2351 16.8335 35.2351 18.3112C35.2351 18.9798 35.1392 19.663 34.9457 20.3571H36.4994V21.928H33.9691C33.4268 22.4194 32.7519 22.6715 31.9463 22.6843M31.6952 21.2047C33.0205 21.2047 33.6831 20.284 33.6831 18.4409C33.6831 16.2964 32.9908 15.2224 31.6045 15.2224C30.2914 15.2479 29.6358 16.238 29.6358 18.1943C29.6358 20.1507 30.3228 21.2047 31.6952 21.2047Z" fill="#18479F"/>
<path d="M38.8501 20.3535H36.231V21.9244H38.8501V20.3535Z" fill="#18479F"/>
<path d="M41.1993 20.3535H38.5801V21.9244H41.1993V20.3535Z" fill="#18479F"/>
<path d="M43.5479 20.3535H40.9287V21.9244H43.5479V20.3535Z" fill="#18479F"/>
<path d="M45.8951 20.3535H43.2759V21.9244H45.8951V20.3535Z" fill="#18479F"/>
<path d="M53.9918 21.9244H45.625V20.3535H48.028C47.1962 19.3561 46.7811 18.3095 46.7811 17.2117C46.7811 16.0389 47.1543 15.0507 47.9007 14.2488C48.647 13.4469 49.6584 13.0469 50.9366 13.0469C52.2148 13.0469 53.1338 13.414 53.8819 14.1447L53.3221 15.4124C52.6002 14.8955 51.8277 14.6361 51.0099 14.6361C50.2391 14.6361 49.648 14.8881 49.2399 15.3941C48.8301 15.9001 48.6261 16.5175 48.6261 17.25C48.6261 18.6894 49.355 19.7233 50.8128 20.3535H53.9935V21.9244H53.9918Z" fill="#18479F"/>
<path d="M59.3571 21.9244H55.437V20.3535H59.0502C60.3022 20.3535 60.93 19.6155 60.93 18.1378V10H62.611V18.1378C62.611 20.5362 61.5264 21.7984 59.3588 21.9244M57.3691 19.3306L56.574 10H58.1643L59.0502 19.3123L57.3691 19.3306Z" fill="#18479F"/>
<path d="M65.7362 10H64.0552V21.9244H65.7362V10Z" fill="#18479F"/>
<path d="M75.2765 25.7677H74.4447C73.1438 25.7677 72.1132 25.4133 71.3547 24.7082C70.3903 23.8004 69.9038 22.6697 69.8916 21.3198C69.916 19.5151 70.4165 18.1213 71.3913 17.1367L72.6747 18.103C71.9406 18.9999 71.5726 20.0466 71.5726 21.2449C71.5726 23.1757 72.537 24.1529 74.4639 24.1785H75.205C76.5303 24.1657 77.1929 23.5538 77.1929 22.3427V10H78.8739V21.9628C78.8739 24.4982 77.6742 25.7677 75.2782 25.7677" fill="#18479F"/>
<path d="M83.8579 25.7659H82.7924V24.1767H83.7497C85.0506 24.1767 85.7377 23.4259 85.8092 21.9244H85.1762C83.7184 21.9116 82.6773 21.6596 82.0495 21.1664C80.9056 20.3078 80.3267 19.1607 80.3145 17.7213C80.3145 16.2581 80.8376 15.0909 81.8856 14.2196C82.5953 13.6387 83.4149 13.3483 84.3426 13.3483C85.4622 13.3483 86.4631 13.6643 87.342 14.2945V20.3517H88.6062V21.9226H87.342C87.342 24.4708 86.1789 25.7513 83.8544 25.7641M85.6662 20.3535V15.1293C85.2076 14.89 84.7437 14.7694 84.2746 14.7694C83.7079 14.7694 83.2318 14.9776 82.8465 15.3941C82.3041 16.0134 82.0338 16.7513 82.0338 17.608C82.0338 19.4256 83.0156 20.3407 84.9791 20.3535H85.6662Z" fill="#18479F"/>
<path d="M90.9585 20.3535H88.3394V21.9244H90.9585V20.3535Z" fill="#18479F"/>
<path d="M93.3077 20.3535H90.6885V21.9244H93.3077V20.3535Z" fill="#18479F"/>
<path d="M95.6563 20.3535H93.0371V21.9244H95.6563V20.3535Z" fill="#18479F"/>
<path d="M99.3429 21.9244H95.3862V20.3535H96.4151V10H98.0769V20.3535H99.3429V21.9244Z" fill="#18479F"/>
<path d="M101.691 20.3535H99.0723V21.9244H101.691V20.3535Z" fill="#18479F"/>
<path d="M104.039 20.3535H101.419V21.9244H104.039V20.3535Z" fill="#18479F"/>
<path d="M106.388 20.3535H103.769V21.9244H106.388V20.3535Z" fill="#18479F"/>
<path d="M115.856 21.9244H106.117V20.3535H113.218V19.2556C113.218 18.2455 112.948 17.3943 112.405 16.7001C111.802 15.9677 111.002 15.6023 110.002 15.6023C109.219 15.6023 108.491 15.8672 107.816 16.3969C107.575 16.5741 107.388 16.7641 107.256 16.965L106.333 15.7722C107.225 14.5867 108.442 13.993 109.983 13.993C111.429 13.993 112.615 14.5483 113.542 15.659C114.397 16.744 114.826 18.1195 114.826 19.7854V20.3535H115.856V21.9244Z" fill="#18479F"/>
<path d="M118.206 20.3535H115.586V21.9244H118.206V20.3535Z" fill="#18479F"/>
<path d="M120.553 20.3535H117.934V21.9244H120.553V20.3535Z" fill="#18479F"/>
<path d="M122.901 20.3535H120.282V21.9244H122.901V20.3535Z" fill="#18479F"/>
<path d="M122.65 21.9244H122.633V20.3535C123.499 20.3407 123.934 19.6904 123.934 18.4044V10H125.615V18.2327C125.615 19.2173 125.409 20.0448 124.999 20.7133C124.493 21.5207 123.71 21.9244 122.65 21.9244Z" fill="#18479F"/>
<path d="M137.647 21.9244H129.933V20.3535H134.667V18.1962C134.655 17.2755 134.453 16.5814 134.062 16.1138C133.67 15.6462 133.138 15.4124 132.463 15.4124C131.788 15.4124 131.125 15.69 130.512 16.2453C130.259 15.8033 130.011 15.3557 129.771 14.9009C130.553 14.194 131.469 13.8414 132.517 13.8414C133.565 13.8414 134.51 14.2323 135.246 15.0141C135.98 15.796 136.348 16.8627 136.348 18.2126V20.3516H137.649V21.9226L137.647 21.9244Z" fill="#18479F"/>
<path d="M139.994 20.3535H137.375V21.9244H139.994V20.3535Z" fill="#18479F"/>
<path d="M142.343 20.3535H139.724V21.9244H142.343V20.3535Z" fill="#18479F"/>
<path d="M144.692 20.3535H142.073V21.9244H144.692V20.3535Z" fill="#18479F"/>
<path d="M147.041 20.3535H144.422V21.9244H147.041V20.3535Z" fill="#18479F"/>
<path d="M149.39 20.3535H146.771V21.9244H149.39V20.3535Z" fill="#18479F"/>
<path d="M153.076 21.9244H149.12V20.3535H150.148V10H151.81V20.3535H153.076V21.9244Z" fill="#18479F"/>
<path d="M155.425 20.3535H152.806V21.9244H155.425V20.3535Z" fill="#18479F"/>
<path d="M157.773 20.3535H155.153V21.9244H157.773V20.3535Z" fill="#18479F"/>
<path d="M162.796 21.9245H157.502V20.3536H158.135C159.195 20.3536 159.725 19.6594 159.725 18.2712V14.3347H161.333V18.1762C161.333 19.0219 161.213 19.7471 160.972 20.3536H162.796V21.9245ZM160.14 25.7477C159.875 25.7477 159.643 25.6472 159.445 25.4444C159.246 25.2417 159.146 24.9969 159.146 24.7065C159.146 24.416 159.246 24.1694 159.445 23.9685C159.643 23.7657 159.875 23.6653 160.14 23.6653C160.405 23.6653 160.653 23.7657 160.845 23.9685C161.037 24.1694 161.134 24.416 161.134 24.7065C161.134 24.9969 161.038 25.2417 160.845 25.4444C160.653 25.6472 160.418 25.7477 160.14 25.7477Z" fill="#18479F"/>
<path d="M165.145 20.3535H162.526V21.9244H165.145V20.3535Z" fill="#18479F"/>
<path d="M167.494 20.3535H164.875V21.9244H167.494V20.3535Z" fill="#18479F"/>
<path d="M169.843 20.3535H167.224V21.9244H169.843V20.3535Z" fill="#18479F"/>
<path d="M169.59 21.9244H169.573V20.3535C170.439 20.3407 170.874 19.6904 170.874 18.4044V10H172.555V18.2327C172.555 19.2173 172.349 20.0448 171.939 20.7133C171.433 21.5207 170.65 21.9244 169.59 21.9244Z" fill="#18479F"/>
<path d="M175.68 10H173.999V21.9244H175.68V10Z" fill="#18479F"/>
<path d="M179.835 25.7678H178.932V24.1786H179.619C181.028 24.1786 181.732 23.4844 181.732 22.0962V14.3347H183.394V22.3227C183.394 24.6188 182.208 25.7678 179.835 25.7678Z" fill="#18479F"/>
<path d="M186.521 10H184.84V21.9244H186.521V10Z" fill="#18479F"/>
<path d="M194.56 21.9245H188.146V20.3535H192.88L192.898 18.1963C192.886 17.2756 192.682 16.5815 192.284 16.1139C191.886 15.6462 191.351 15.4124 190.676 15.4124C190.001 15.4124 189.326 15.6974 188.725 16.2637L187.966 14.901C188.774 14.1813 189.694 13.8214 190.73 13.8214C191.827 13.8214 192.739 14.216 193.468 15.0033C194.197 15.7924 194.561 16.8628 194.561 18.2109V21.9208L194.56 21.9245Z" fill="#18479F"/>
<path d="M2.2652 38.874H0V29.9763H2.2652C3.55038 29.9763 4.49204 30.3325 5.08842 31.0431C5.68654 31.7537 5.98473 32.877 5.98473 34.4114C5.98473 35.9458 5.67957 37.0491 5.06749 37.7798C4.45542 38.5086 3.52074 38.874 2.26346 38.874M2.27741 37.7012C3.86776 37.7012 4.66293 36.6527 4.66293 34.5521V34.4388C4.66293 32.2268 3.90263 31.1198 2.38552 31.1198H1.2939V37.6994H2.27741V37.7012Z" fill="#F99D1C"/>
<path d="M13.1028 38.8721H11.7147L11.1079 36.8537H8.11552L7.50867 38.8721H6.13281L8.99091 29.9745H10.2447L13.1028 38.8721ZM10.7574 35.6389L9.6117 31.7975L8.47997 35.6389H10.7591H10.7574Z" fill="#F99D1C"/>
<path d="M19.2919 38.8722H17.9579L16.1914 35.3558H15.1137V38.8722H13.8198V29.9763C14.6464 29.7133 15.4049 29.58 16.0972 29.58C18.066 29.58 19.0547 30.5024 19.0634 32.3473C19.0634 33.7977 18.5141 34.7439 17.419 35.186L19.2936 38.8722H19.2919ZM16.1234 34.2544C17.2115 34.2544 17.7678 33.6278 17.7957 32.3766C17.7957 31.2568 17.2569 30.696 16.1774 30.696C15.6839 30.696 15.323 30.7472 15.098 30.8513V34.2544H16.1234Z" fill="#F99D1C"/>
<path d="M28.9578 38.8721H27.5697L26.9629 36.8537H23.9705L23.3637 38.8721H21.9878L24.8459 29.9745H26.0997L28.9578 38.8721ZM26.6106 35.6389L25.4649 31.7975L24.3332 35.6389H26.6124H26.6106Z" fill="#F99D1C"/>
<path d="M34.2955 38.874H29.7529V29.9763H31.0468V37.7012H34.2955V38.874Z" fill="#F99D1C"/>
<path d="M37.6384 38.874H35.1309V29.9763C35.8859 29.7133 36.6445 29.58 37.4083 29.58C39.2515 29.58 40.1722 30.4184 40.1722 32.0934C40.1722 33.2223 39.7188 33.9237 38.8103 34.1977C39.2951 34.2909 39.6735 34.459 39.942 34.6982C40.2123 34.9394 40.3954 35.2134 40.4948 35.5239C40.5942 35.8344 40.643 36.123 40.643 36.3861C40.643 37.1204 40.4024 37.7177 39.9211 38.1799C39.4398 38.6402 38.6795 38.8722 37.6367 38.8722M37.3682 33.7886C37.8617 33.7886 38.2488 33.6552 38.5278 33.3867C38.8068 33.1182 38.9463 32.7163 38.9463 32.1793C38.9463 31.1819 38.4423 30.6814 37.4362 30.6814C36.9514 30.6814 36.6044 30.7344 36.3986 30.8367V33.7867H37.3699L37.3682 33.7886ZM37.5181 37.7013C38.1023 37.7013 38.5557 37.588 38.88 37.3615C39.2044 37.135 39.3648 36.8117 39.3648 36.3879C39.3648 35.4837 38.744 35.0088 37.5042 34.9613H36.3986V37.7013H37.5181Z" fill="#F99D1C"/>
<path d="M47.8167 38.8721H46.4286L45.8217 36.8537H42.8294L42.2225 38.8721H40.8467L43.7048 29.9745H44.9586L47.8167 38.8721ZM45.4712 35.6389L44.3256 31.7975L43.1938 35.6389H45.473H45.4712Z" fill="#F99D1C"/>
<path d="M53.1544 38.874H48.6118V29.9763H49.9057V37.7012H53.1544V38.874Z" fill="#F99D1C"/>
<path d="M60.5691 38.8721H59.181L58.5742 36.8537H55.5818L54.975 38.8721H53.5991L56.4572 29.9745H57.711L60.5691 38.8721ZM58.2237 35.6389L57.078 31.7975L55.9463 35.6389H58.2254H58.2237Z" fill="#F99D1C"/>
<path d="M63.5494 38.874H61.2842V29.9763H63.5494C64.8346 29.9763 65.7762 30.3325 66.3743 31.0431C66.9725 31.7537 67.2707 32.877 67.2707 34.4114C67.2707 35.9458 66.9655 37.0491 66.3534 37.7798C65.7413 38.5086 64.8067 38.874 63.5494 38.874ZM63.5616 37.7012C65.1519 37.7012 65.9471 36.6527 65.9471 34.5521V34.4388C65.9471 32.2268 65.1868 31.1198 63.6697 31.1198H62.5781V37.6994H63.5616V37.7012Z" fill="#F99D1C"/>
<path d="M71.5571 38.874H70.2632V29.9763H74.7517V31.149H71.5571V33.8178H74.0647V34.9613H71.5571V38.874Z" fill="#F99D1C"/>
<path d="M78.9314 39C77.8171 39 76.9469 38.5872 76.3227 37.7652C75.6984 36.9414 75.3862 35.7869 75.3862 34.2982C75.3862 32.8095 75.7053 31.6642 76.3436 30.8312C76.9818 29.9983 77.8677 29.5818 78.9994 29.5818C80.0701 29.5818 80.9158 30.0056 81.5401 30.8531C82.1644 31.7007 82.4765 32.8497 82.4765 34.2982C82.4765 35.7468 82.1644 36.9414 81.5401 37.7652C80.9158 38.589 80.0457 39 78.9314 39ZM78.9436 37.7013C80.3997 37.7013 81.1495 36.5815 81.1948 34.3402C81.1948 33.2479 81.0013 32.393 80.6142 31.7774C80.227 31.16 79.6847 30.8531 78.9837 30.8531C77.5015 30.8531 76.7377 32.0204 76.6923 34.3548C76.6923 35.4198 76.8859 36.2418 77.2713 36.8263C77.6584 37.409 78.2147 37.7013 78.9436 37.7013Z" fill="#F99D1C"/>
<path d="M88.9201 38.8722H87.5861L85.8196 35.3558H84.7419V38.8722H83.4463V29.9763C84.2729 29.7133 85.0332 29.58 85.7254 29.58C87.6942 29.58 88.6812 30.5024 88.6916 32.3473C88.6916 33.7977 88.1424 34.7439 87.0472 35.186L88.9201 38.8722ZM85.7516 34.2544C86.838 34.2544 87.396 33.6278 87.4239 32.3766C87.4239 31.2568 86.8851 30.696 85.8057 30.696C85.3104 30.696 84.9512 30.7472 84.728 30.8513V34.2544H85.7533H85.7516Z" fill="#F99D1C"/>
<path d="M94.5139 38.874H92.0063V29.9763C92.7614 29.7133 93.52 29.58 94.2855 29.58C96.127 29.58 97.0494 30.4184 97.0494 32.0934C97.0494 33.2223 96.596 33.9237 95.6875 34.1977C96.1723 34.2909 96.5507 34.459 96.8192 34.6982C97.0895 34.9394 97.2726 35.2134 97.372 35.5239C97.4714 35.8344 97.5203 36.123 97.5203 36.3861C97.5203 37.1204 97.2796 37.7177 96.7983 38.1799C96.317 38.6402 95.555 38.8722 94.5139 38.8722M94.2454 33.7886C94.7389 33.7886 95.126 33.6552 95.405 33.3867C95.684 33.1182 95.8235 32.7163 95.8235 32.1793C95.8235 31.1819 95.3196 30.6814 94.3134 30.6814C93.8286 30.6814 93.4816 30.7344 93.2758 30.8367V33.7867H94.2471L94.2454 33.7886ZM94.3936 37.7013C94.9778 37.7013 95.4312 37.588 95.7555 37.3615C96.0799 37.135 96.242 36.8117 96.242 36.3879C96.242 35.4837 95.6213 35.0088 94.3814 34.9613H93.2758V37.7013H94.3936Z" fill="#F99D1C"/>
<path d="M101.646 39C100.621 39 99.8397 38.6219 99.3008 37.862C98.762 37.1039 98.4917 36.0627 98.4917 34.7348V29.9763H99.7856V35.0179C99.7856 35.4782 99.8554 35.913 99.9949 36.3166C100.134 36.7222 100.344 37.051 100.623 37.3049C100.902 37.5588 101.243 37.6866 101.648 37.6866C102.053 37.6866 102.407 37.5606 102.686 37.3049C102.965 37.051 103.172 36.7222 103.313 36.3166C103.453 35.913 103.523 35.4782 103.523 35.0179V29.9763H104.816V34.7348C104.816 36.0627 104.546 37.1039 104.007 37.862C103.469 38.6201 102.682 39 101.648 39" fill="#F99D1C"/>
<path d="M108.278 38.958C106.597 38.9197 105.648 38.1342 105.434 36.5998L106.579 36.2052C106.661 37.2227 107.231 37.7579 108.292 37.8145C109.164 37.8145 109.622 37.3615 109.668 36.4591C109.668 36.1194 109.577 35.8381 109.399 35.6116C109.219 35.3851 108.904 35.1695 108.454 34.9613L107.146 34.3256C106.175 33.8726 105.69 33.1017 105.69 32.0094C105.707 31.266 105.936 30.6759 106.377 30.2376C106.816 29.7992 107.415 29.58 108.17 29.58C109.626 29.6548 110.48 30.3417 110.731 31.6423L109.6 32.024C109.582 31.6477 109.446 31.3372 109.195 31.0924C108.944 30.8477 108.593 30.7216 108.143 30.7107C107.362 30.7107 106.944 31.1052 106.89 31.8962C106.89 32.5373 107.343 33.0543 108.252 33.4488L109.423 34.0279C110.377 34.4699 110.853 35.2663 110.853 36.4153C110.836 37.2062 110.597 37.8273 110.138 38.2785C109.68 38.7297 109.061 38.9562 108.278 38.9562" fill="#F99D1C"/>
<path d="M113.011 29.9763H111.717V38.874H113.011V29.9763Z" fill="#F99D1C"/>
<path d="M120.519 38.874H119.252L115.478 32.1373V38.874H114.196V29.9763H115.492L119.239 36.6418V29.9763H120.519V38.874Z" fill="#F99D1C"/>
<path d="M126.155 38.874H121.625V29.9763H126.061V31.149H122.907V33.8178H125.224V34.9467H122.919V37.672H126.155V38.874Z" fill="#F99D1C"/>
<path d="M129.646 38.958C127.965 38.9197 127.017 38.1342 126.802 36.5998L127.948 36.2052C128.03 37.2227 128.6 37.7579 129.66 37.8145C130.532 37.8145 130.991 37.3615 131.036 36.4591C131.036 36.1194 130.946 35.8381 130.768 35.6116C130.588 35.3851 130.272 35.1695 129.823 34.9613L128.515 34.3256C127.543 33.8726 127.059 33.1017 127.059 32.0094C127.076 31.266 127.304 30.6759 127.746 30.2376C128.185 29.7992 128.783 29.58 129.538 29.58C130.994 29.6548 131.849 30.3417 132.1 31.6423L130.968 32.024C130.951 31.6477 130.815 31.3372 130.564 31.0924C130.313 30.8477 129.962 30.7216 129.512 30.7107C128.731 30.7107 128.312 31.1052 128.258 31.8962C128.258 32.5373 128.712 33.0543 129.62 33.4488L130.792 34.0279C131.746 34.4699 132.222 35.2663 132.222 36.4153C132.203 37.2062 131.966 37.8273 131.507 38.2785C131.048 38.7297 130.429 38.9562 129.646 38.9562" fill="#F99D1C"/>
<path d="M135.523 38.958C133.842 38.9197 132.894 38.1342 132.679 36.5998L133.825 36.2052C133.907 37.2227 134.477 37.7579 135.537 37.8145C136.409 37.8145 136.868 37.3615 136.913 36.4591C136.913 36.1194 136.822 35.8381 136.645 35.6116C136.465 35.3851 136.149 35.1695 135.699 34.9613L134.392 34.3256C133.42 33.8726 132.936 33.1017 132.936 32.0094C132.953 31.266 133.181 30.6759 133.623 30.2376C134.062 29.7992 134.66 29.58 135.415 29.58C136.871 29.6548 137.726 30.3417 137.977 31.6423L136.845 32.024C136.828 31.6477 136.692 31.3372 136.441 31.0924C136.189 30.8477 135.839 30.7216 135.389 30.7107C134.608 30.7107 134.189 31.1052 134.135 31.8962C134.135 32.5373 134.589 33.0543 135.497 33.4488L136.669 34.0279C137.623 34.4699 138.099 35.2663 138.099 36.4153C138.082 37.2062 137.843 37.8273 137.384 38.2785C136.925 38.7297 136.306 38.9562 135.523 38.9562" fill="#F99D1C"/>
<path d="M143.423 38.958C141.742 38.9197 140.793 38.1342 140.579 36.5998L141.724 36.2052C141.806 37.2227 142.376 37.7579 143.437 37.8145C144.309 37.8145 144.767 37.3615 144.813 36.4591C144.813 36.1194 144.722 35.8381 144.544 35.6116C144.364 35.3851 144.049 35.1695 143.599 34.9613L142.291 34.3256C141.32 33.8726 140.835 33.1017 140.835 32.0094C140.852 31.266 141.081 30.6759 141.522 30.2376C141.961 29.7992 142.56 29.58 143.315 29.58C144.771 29.6548 145.625 30.3417 145.876 31.6423L144.745 32.024C144.727 31.6477 144.591 31.3372 144.34 31.0924C144.089 30.8477 143.738 30.7216 143.288 30.7107C142.507 30.7107 142.089 31.1052 142.035 31.8962C142.035 32.5373 142.488 33.0543 143.397 33.4488L144.568 34.0279C145.522 34.4699 145.998 35.2663 145.998 36.4153C145.981 37.2062 145.742 37.8273 145.283 38.2785C144.825 38.7297 144.206 38.9562 143.423 38.9562" fill="#F99D1C"/>
<path d="M150.19 39C149.076 39 148.206 38.5872 147.581 37.7652C146.957 36.9414 146.645 35.7869 146.645 34.2982C146.645 32.8095 146.964 31.6642 147.602 30.8312C148.241 29.9983 149.125 29.5818 150.258 29.5818C151.327 29.5818 152.175 30.0056 152.799 30.8531C153.423 31.7007 153.735 32.8497 153.735 34.2982C153.735 35.7468 153.423 36.9414 152.799 37.7652C152.175 38.589 151.304 39 150.19 39ZM150.204 37.7013C151.66 37.7013 152.41 36.5815 152.455 34.3402C152.455 33.2479 152.262 32.393 151.875 31.7774C151.488 31.16 150.945 30.8531 150.244 30.8531C148.76 30.8531 147.996 32.0204 147.953 34.3548C147.953 35.4198 148.146 36.2418 148.532 36.8263C148.919 37.409 149.475 37.7013 150.204 37.7013Z" fill="#F99D1C"/>
<path d="M159.331 38.874H154.789V29.9763H156.082V37.7012H159.331V38.874Z" fill="#F99D1C"/>
<path d="M162.566 39C161.541 39 160.76 38.6219 160.221 37.862C159.682 37.1039 159.412 36.0627 159.412 34.7348V29.9763H160.707V35.0179C160.707 35.4782 160.777 35.913 160.915 36.3166C161.054 36.7222 161.264 37.051 161.543 37.3049C161.822 37.5588 162.163 37.6866 162.568 37.6866C162.972 37.6866 163.326 37.5606 163.605 37.3049C163.884 37.051 164.094 36.7222 164.233 36.3166C164.373 35.913 164.442 35.4782 164.442 35.0179V29.9763H165.736V34.7348C165.736 36.0627 165.466 37.1039 164.927 37.862C164.388 38.6201 163.602 39 162.568 39" fill="#F99D1C"/>
<path d="M170.008 38.874H168.715V31.1764H166.503V29.9763H172.22V31.1764H170.008V38.874Z" fill="#F99D1C"/>
<path d="M174.363 29.9763H173.069V38.874H174.363V29.9763Z" fill="#F99D1C"/>
<path d="M178.96 39C177.845 39 176.975 38.5872 176.351 37.7652C175.727 36.9414 175.415 35.7869 175.415 34.2982C175.415 32.8095 175.734 31.6642 176.372 30.8312C177.01 29.9983 177.894 29.5818 179.028 29.5818C180.097 29.5818 180.944 30.0056 181.568 30.8531C182.193 31.7007 182.505 32.8497 182.505 34.2982C182.505 35.7468 182.193 36.9414 181.568 37.7652C180.944 38.589 180.074 39 178.96 39ZM178.974 37.7013C180.43 37.7013 181.18 36.5815 181.225 34.3402C181.225 33.2479 181.031 32.393 180.644 31.7774C180.257 31.16 179.715 30.8531 179.014 30.8531C177.53 30.8531 176.766 32.0204 176.722 34.3548C176.722 35.4198 176.916 36.2418 177.301 36.8263C177.688 37.409 178.245 37.7013 178.974 37.7013Z" fill="#F99D1C"/>
<path d="M189.799 38.874H188.531L184.756 32.1373V38.874H183.476V29.9763H184.77L188.517 36.6418V29.9763H189.799V38.874Z" fill="#F99D1C"/>
<path d="M193.424 38.958C191.743 38.9197 190.796 38.1342 190.58 36.5998L191.726 36.2052C191.806 37.2227 192.378 37.7579 193.438 37.8145C194.31 37.8145 194.769 37.3615 194.814 36.4591C194.814 36.1194 194.723 35.8381 194.544 35.6116C194.364 35.3851 194.05 35.1695 193.6 34.9613L192.292 34.3256C191.321 33.8726 190.836 33.1017 190.836 32.0094C190.854 31.266 191.082 30.6759 191.523 30.2376C191.963 29.7992 192.561 29.58 193.316 29.58C194.772 29.6548 195.627 30.3417 195.878 31.6423L194.746 32.024C194.729 31.6477 194.593 31.3372 194.341 31.0924C194.09 30.8477 193.74 30.7216 193.29 30.7107C192.509 30.7107 192.09 31.1052 192.036 31.8962C192.036 32.5373 192.49 33.0543 193.398 33.4488L194.57 34.0279C195.524 34.4699 196 35.2663 196 36.4153C195.982 37.2062 195.743 37.8273 195.285 38.2785C194.826 38.7297 194.207 38.9562 193.424 38.9562" fill="#F99D1C"/>
</g>
<g clip-path="url(#clip1_430_1865)">
<path d="M252.625 48.9735C250.989 48.9968 249.354 48.9841 247.717 48.9841C241.175 48.9841 234.632 48.982 228.09 48.9799H227.136C227.253 47.9802 227.717 47.7143 228.55 47.7292C231.102 47.7758 233.654 47.7461 236.206 47.7461H237.51C236.119 44.9905 234.842 42.4615 233.553 39.9081C232.543 40.7363 232.326 41.484 232.778 42.5112C233.191 43.4411 233.644 44.3529 234.142 45.4035H228.802C229.569 43.8319 230.315 42.2772 231.085 40.732C231.833 39.2271 232.604 37.7307 233.372 36.2353C233.787 35.4241 234.388 34.7707 235.335 34.8204C236.312 34.8723 236.952 35.4739 237.408 36.3942C239.181 39.9716 241.007 43.5194 242.839 47.0651C242.985 47.3458 243.327 47.6984 243.592 47.708C245.018 47.7726 246.449 47.7397 248.142 47.7397C245.1 41.6693 242.161 35.8011 239.115 29.7243C239.295 29.7243 239.471 29.7243 239.648 29.7222C240.447 29.7201 241.197 29.7137 241.94 29.7222C242.09 29.7222 242.244 29.7264 242.395 29.7285C245.256 29.7868 244.494 29.2763 245.776 31.8572C248.239 36.8199 250.768 41.7466 253.264 46.6913C253.425 47.0122 253.583 47.3511 253.653 47.7016C253.819 48.5362 253.482 48.9608 252.625 48.9735Z" fill="#18479F"/>
<path d="M222.068 29.7221H227.702C223.898 37.1736 220.125 44.5986 218.365 48.1252C218.04 48.7765 217.671 49.0095 216.942 48.9989C213.674 48.9544 210.407 48.982 207.139 48.982H206V47.0227C207.571 47.0227 209.128 47.0206 210.685 47.0227C213.443 47.0227 213.392 46.9973 214.591 44.5371C216.285 41.0518 219.013 35.6729 222.068 29.7211" fill="#18479F"/>
<path d="M268 47.0206V48.9047C267.708 48.9301 267.426 48.9756 267.146 48.9756C263.713 48.982 260.28 48.9629 256.848 48.9968C256.193 49.0032 255.842 48.7808 255.558 48.2025C252.144 41.2435 238.659 16.2119 237.316 11.048C235.562 14.3967 232.058 21.2095 228.468 28.2278H222.836C228.102 17.9847 234.142 6.41889 237.502 0C241.982 9.72099 256.062 37.6767 260.25 46.3587C260.513 46.9041 260.872 47.0333 261.413 47.0291C263.567 47.01 265.718 47.0206 268 47.0206Z" fill="#18479F"/>
<path d="M234.807 29.7222C233.46 32.4068 232.237 34.8437 231.016 37.2827C229.231 40.8453 227.428 44.3974 225.685 47.978C225.314 48.7426 224.869 49.036 224.03 48.9968C222.6 48.928 221.163 48.9778 219.54 48.9778C219.737 48.5584 219.87 48.2502 220.021 47.9526C222.961 42.1331 225.913 36.32 228.825 30.4857C229.066 30.0039 229.325 29.7793 229.754 29.7211C229.857 29.7063 229.969 29.702 230.096 29.7063C230.291 29.7126 230.486 29.7169 230.681 29.7211C231.979 29.7465 233.301 29.7211 234.809 29.7211" fill="#18479F"/>
<path d="M240.479 20.8792H237.779V23.6083H240.479V20.8792Z" fill="#F99D1C"/>
<path d="M236.615 20.8792H233.916V23.6083H236.615V20.8792Z" fill="#F99D1C"/>
<path d="M240.479 24.2236H237.779V26.9528H240.479V24.2236Z" fill="#F99D1C"/>
<path d="M236.615 24.2236H233.916V26.9528H236.615V24.2236Z" fill="#F99D1C"/>
<path d="M230.095 29.7074C230.29 29.7137 230.485 29.718 230.68 29.7222H229.752C229.856 29.7074 229.968 29.7031 230.095 29.7074Z" fill="#1B203E"/>
<path d="M241.939 29.7222H239.648C240.447 29.7201 241.197 29.7137 241.939 29.7222Z" fill="#1B203E"/>
</g>
<defs>
<clipPath id="clip0_430_1865">
<rect width="196" height="29" fill="white" transform="translate(0 10)"/>
</clipPath>
<clipPath id="clip1_430_1865">
<rect width="62" height="49" fill="white" transform="translate(206)"/>
</clipPath>
</defs>
</svg>
